<svg width="270" height="80" viewBox="0 0 270 80" fill="none" xmlns="http://www.w3.org/2000/svg">
<path d="M19.025 39.29C19.365 40.14 19.11 40.65 18.43 40.48C17.75 40.31 16.9 39.545 16.56 38.78C14.86 37.165 10.695 39.12 9.165 40.395C6.02 42.945 4.235 46.005 3.3 49.915C6.275 49.065 14.01 40.055 14.01 40.055C14.35 39.715 15.115 39.97 15.88 40.735C16.475 41.415 16.815 42.18 16.56 42.605C16.39 43.03 15.37 45.24 15.88 47.62C16.22 49.66 27.27 40.395 27.44 40.31C27.78 39.97 28.46 39.545 29.14 40.225C29.82 40.99 29.735 41.67 29.395 42.01C23.785 47.025 20.47 50 18.175 51.19C14.265 53.23 11.29 52.04 11.375 47.875C8.315 50.765 5.17 53.4 3.3 52.55C2.62 52.295 2.11 51.785 1.6 51.275C0.75 50.17 0.41 48.98 0.58 47.705C0.665 46.685 1.005 45.58 1.515 44.475C2.62 42.095 4.575 39.46 6.785 37.675C10.61 34.53 17.58 34.36 19.025 39.29ZM38.7231 42.775C38.4681 43.285 37.7031 43.115 37.0231 42.435C36.2581 41.755 35.8331 40.82 36.0031 40.395C36.0881 40.395 37.4481 37.42 37.1081 37.42C35.4931 37.335 32.0081 39.63 29.3731 42.605C28.3531 43.71 27.5031 44.9 26.8231 46.09C26.2281 47.195 25.8881 48.385 25.8031 49.405C25.8031 50.17 25.9731 50.85 26.3981 51.275C29.9681 54.42 47.3931 41.33 47.4781 41.33C47.8181 41.245 48.5831 40.225 49.1781 40.395C49.8581 41.16 50.1131 42.01 49.7731 42.35C49.6881 42.35 31.3281 58.075 25.6331 52.975C23.7631 51.275 22.9981 49.405 23.0831 47.535C23.0831 46.175 23.5081 44.9 24.1881 43.625C24.8681 42.35 25.8031 41.16 26.8231 39.97C29.6281 36.825 33.4531 34.36 35.4081 34.445C42.6331 34.7 38.7231 42.775 38.7231 42.775ZM59.8901 42.775C59.6351 43.285 58.8701 43.115 58.1901 42.435C57.4251 41.755 57.0001 40.82 57.1701 40.395C57.2551 40.395 58.6151 37.42 58.2751 37.42C56.6601 37.335 53.1751 39.63 50.5401 42.605C49.5201 43.71 48.6701 44.9 47.9901 46.09C47.3951 47.195 47.0551 48.385 46.9701 49.405C46.9701 50.17 47.1401 50.85 47.5651 51.275C51.1351 54.42 68.5601 41.33 68.6451 41.33C68.9851 41.245 69.7501 40.225 70.3451 40.395C71.0251 41.16 71.2801 42.01 70.9401 42.35C70.8551 42.35 52.4951 58.075 46.8001 52.975C44.9301 51.275 44.1651 49.405 44.2501 47.535C44.2501 46.175 44.6751 44.9 45.3551 43.625C46.0351 42.35 46.9701 41.16 47.9901 39.97C50.7951 36.825 54.6201 34.36 56.5751 34.445C63.8001 34.7 59.8901 42.775 59.8901 42.775ZM72.6421 40.225C73.8321 39.885 75.1071 39.375 76.4671 38.78C78.2521 37.845 79.7821 36.06 80.7171 34.445C80.8871 34.105 80.9721 33.85 81.1421 33.51C80.2071 33.935 79.1021 34.615 77.8271 35.55C76.1271 36.825 74.1721 38.44 72.6421 40.225ZM78.6771 41.585C74.6821 43.625 70.1771 44.135 69.9221 44.135C64.1421 56.545 87.0921 46.005 89.7271 41.245C89.9821 40.735 90.8321 40.14 91.5971 40.82C92.2771 41.5 92.2771 41.84 92.0221 42.35C89.6421 46.515 76.3821 55.695 70.5171 52.38C67.6271 50.765 65.8421 47.365 66.5221 44.05C66.9471 41.925 68.2221 39.715 69.9221 37.76C71.6221 35.89 73.5771 34.105 75.4471 32.745C77.9121 31.045 80.2071 30.025 81.1421 30.195C81.9071 30.365 82.5871 30.79 83.1821 31.47C84.0321 32.405 84.3721 33.51 84.2021 34.53C84.1171 35.295 83.7771 36.06 83.3521 36.91C82.4171 38.695 80.7171 40.565 78.6771 41.585ZM90.17 43.625C89.83 43.965 88.81 44.475 88.13 43.795C87.45 43.03 89.235 41.5 89.575 41.16L95.95 33.425C97.055 32.235 97.905 31.555 97.905 31.555C98.245 31.215 99.095 31.555 99.69 32.32C100.37 33 100.71 33.935 100.37 34.275L98.33 36.23C96.545 38.27 94.165 41.925 95.1 45.835C95.61 48.3 95.355 50.255 94.675 51.7C94.25 52.465 93.655 53.06 93.06 53.57C92.465 53.995 91.785 54.335 91.105 54.505C89.915 54.76 88.725 54.59 87.79 54.08C82.945 51.615 85.58 46.855 85.58 46.77C85.835 46.345 86.6 46.515 87.365 47.195C88.13 47.875 88.47 48.81 88.3 49.235C88.3 49.32 87.11 51.445 87.28 51.53C87.62 51.7 88.3 51.7 88.98 51.53C89.575 51.445 90.17 51.19 90.68 50.765C91.19 50.425 91.7 49.83 91.955 49.235C92.55 48.045 92.805 46.515 92.38 44.56C92.38 43.455 91.615 43.37 93.655 39.63L90.17 43.625ZM103.783 43.625C103.443 43.965 102.423 44.475 101.743 43.795C101.063 43.03 102.848 41.5 103.188 41.16L109.563 33.425C110.668 32.235 111.518 31.555 111.518 31.555C111.858 31.215 112.708 31.555 113.303 32.32C113.983 33 114.323 33.935 113.983 34.275L111.943 36.23C110.158 38.27 107.778 41.925 108.713 45.835C109.223 48.3 108.968 50.255 108.288 51.7C107.863 52.465 107.268 53.06 106.673 53.57C106.078 53.995 105.398 54.335 104.718 54.505C103.528 54.76 102.338 54.59 101.403 54.08C96.5583 51.615 99.1933 46.855 99.1933 46.77C99.4483 46.345 100.213 46.515 100.978 47.195C101.743 47.875 102.083 48.81 101.913 49.235C101.913 49.32 100.723 51.445 100.893 51.53C101.233 51.7 101.913 51.7 102.593 51.53C103.188 51.445 103.783 51.19 104.293 50.765C104.803 50.425 105.313 49.83 105.568 49.235C106.163 48.045 106.418 46.515 105.993 44.56C105.993 43.455 105.228 43.37 107.268 39.63L103.783 43.625ZM122.667 34.105C123.092 33.765 123.942 34.105 124.622 34.87C125.302 35.635 125.557 36.485 125.132 36.825C123.262 38.44 120.202 42.095 118.332 45.665C117.142 48.045 117.227 49.405 118.077 49.83C121.562 50.34 130.997 41.16 130.997 41.075C131.337 40.735 131.932 40.055 132.612 40.82C133.377 41.585 133.037 41.84 132.697 42.18C132.612 42.18 118.502 57.48 114.847 51.105C113.657 48.98 114.252 46.09 115.697 43.2C117.567 39.545 120.712 35.72 122.667 34.105ZM127.937 31.64C127.597 32.065 126.747 31.725 126.067 31.045C125.387 30.28 125.047 29.43 125.387 29.005L130.147 23.565C130.487 23.14 131.252 23.48 132.017 24.16C132.697 24.925 132.952 25.775 132.697 26.2L127.937 31.64ZM149.7 9.455C149.955 9.03 150.72 9.285 151.485 9.965C152.165 10.645 152.59 11.58 152.335 12.005L133.295 42.775C136.78 39.545 140.35 36.57 143.07 35.38C144.6 34.7 145.875 34.785 146.895 35.55L146.98 35.635C148.255 36.655 148.85 38.015 148.85 39.545C148.935 40.565 148.68 41.755 148.34 43.03C146.98 47.45 143.495 52.975 139.755 53.825C134.57 55.1 132.53 52.21 131.68 49.405C127.6 53.485 124.54 57.055 124.455 57.055C124.2 57.395 123.435 57.14 122.755 56.46C121.99 55.78 121.65 54.845 121.905 54.42L149.7 9.455ZM145.365 38.185C142.22 39.63 137.885 43.37 133.89 47.195C133.89 48.13 134.145 51.785 137.715 50.935C141.03 50.085 144.345 44.9 145.535 40.735C145.875 39.715 146.045 38.695 146.13 37.845C145.875 37.93 145.62 38.1 145.365 38.185ZM146.64 37.675C146.64 37.675 146.555 37.675 146.47 37.76C146.64 37.76 146.725 37.845 146.64 37.76V37.675ZM158.526 34.105C158.951 33.765 159.801 34.105 160.481 34.87C161.161 35.635 161.416 36.485 160.991 36.825C159.121 38.44 156.061 42.095 154.191 45.665C153.001 48.045 153.086 49.405 153.936 49.83C157.421 50.34 166.856 41.16 166.856 41.075C167.196 40.735 167.791 40.055 168.471 40.82C169.236 41.585 168.896 41.84 168.556 42.18C168.471 42.18 154.361 57.48 150.706 51.105C149.516 48.98 150.111 46.09 151.556 43.2C153.426 39.545 156.571 35.72 158.526 34.105ZM163.796 31.64C163.456 32.065 162.606 31.725 161.926 31.045C161.246 30.28 160.906 29.43 161.246 29.005L166.006 23.565C166.346 23.14 167.111 23.48 167.876 24.16C168.556 24.925 168.811 25.775 168.556 26.2L163.796 31.64ZM190.999 41.075C191.169 40.82 191.509 40.31 192.189 40.82C192.869 41.245 193.294 41.925 193.124 42.18C190.999 45.835 173.829 59.69 168.899 62.155C165.839 63.77 160.739 65.3 158.614 61.9C153.599 54.845 186.324 8.18 187.089 8.01C189.809 4.1 193.379 1.465 196.014 0.699997C196.949 0.444996 197.884 0.359997 198.734 0.699997C200.179 1.125 201.199 2.06 201.624 3.42C201.964 4.695 201.624 6.735 200.094 9.625C194.654 20.505 171.959 37.76 171.874 37.845C171.789 37.845 171.704 37.93 171.534 37.845C165.329 48.64 160.909 58.415 162.099 60.965C162.864 62.07 166.519 60.71 167.369 60.285C172.214 57.735 188.874 44.645 190.999 41.075ZM189.469 9.795C189.469 9.795 182.584 19.825 175.699 31.045C182.754 25.18 194.059 15.15 197.714 7.925C198.989 5.375 199.414 3.59 199.159 2.48499C198.904 2.48499 198.479 2.57 198.054 2.655C195.589 3.42 192.189 5.97 189.469 9.795ZM196.211 34.105C196.636 33.765 197.486 34.105 198.166 34.87C198.846 35.635 199.101 36.485 198.676 36.825C196.806 38.44 193.746 42.095 191.876 45.665C190.686 48.045 190.771 49.405 191.621 49.83C195.106 50.34 204.541 41.16 204.541 41.075C204.881 40.735 205.476 40.055 206.156 40.82C206.921 41.585 206.581 41.84 206.241 42.18C206.156 42.18 192.046 57.48 188.391 51.105C187.201 48.98 187.796 46.09 189.241 43.2C191.111 39.545 194.256 35.72 196.211 34.105ZM201.481 31.64C201.141 32.065 200.291 31.725 199.611 31.045C198.931 30.28 198.591 29.43 198.931 29.005L203.691 23.565C204.031 23.14 204.796 23.48 205.561 24.16C206.241 24.925 206.496 25.775 206.241 26.2L201.481 31.64ZM228.6 2.655C228.855 2.315 229.705 2.48499 230.385 3.24999C231.065 3.93 231.405 4.865 231.15 5.205C231.15 5.29 224.945 13.875 218.315 23.82H239.99C240.585 23.82 241.52 24.5 241.945 25.265C242.455 26.115 242.37 26.795 241.775 26.795H216.36C214.575 29.515 212.79 32.32 211.09 35.04V35.125C211.09 35.465 210.92 35.635 210.75 35.635C205.565 44.05 202.76 48.895 203.695 50.595C205.225 53.485 222.48 39.715 222.48 39.63C222.82 39.375 223.33 39.205 224.01 39.97C224.69 40.735 224.18 41.16 223.84 41.415C223.755 41.5 204.46 60.54 200.295 52.89C199.02 50.51 202.93 42.35 208.37 33.34C208.285 33.34 208.88 32.405 208.88 32.405C209.05 25.945 187.29 26.795 187.29 26.795C186.695 26.795 185.76 26.115 185.335 25.265C184.825 24.5 184.91 23.82 185.505 23.82H214.235C221.375 12.685 228.515 2.74 228.6 2.655ZM209.815 30.875C210.665 29.515 211.515 28.155 212.365 26.795L201.74 26.37C204.29 27.39 208.455 29.09 209.815 30.875ZM267.279 57.48C267.959 57.565 268.809 58.245 269.234 59.095C269.659 59.86 269.574 60.455 268.894 60.455C250.874 58.925 237.614 59.265 228.009 60.625C222.314 70.23 215.939 79.495 213.049 79.495C209.139 79.41 205.739 77.285 204.039 74.31C203.104 72.61 202.764 70.655 203.359 68.785C203.954 67.085 205.229 65.385 207.524 63.77C211.009 61.305 216.789 59.095 225.629 57.735C227.839 53.995 229.964 50.255 231.749 47.025C229.114 49.32 226.394 51.105 224.609 50.935C223.844 50.85 223.249 50.68 222.654 50.34C220.954 49.405 220.019 47.96 220.019 46.175C219.934 45.155 220.274 43.88 220.869 42.52C221.974 39.8 224.184 36.485 226.904 33.255C227.244 32.83 228.094 33.17 228.774 33.85C229.454 34.615 229.794 35.465 229.454 35.89C226.734 39.035 224.609 42.265 223.504 44.9C223.334 45.24 223.164 47.11 223.674 47.45C229.539 48.725 239.569 34.275 238.889 33.765V33.85C239.229 33.425 239.909 33.68 240.674 34.36C241.354 35.04 241.779 35.89 241.524 36.315L239.654 39.63L239.569 39.715C239.569 39.8 235.234 48.13 230.049 57.225C239.314 56.205 251.554 56.12 267.279 57.48ZM223.504 61.39C217.129 62.75 212.709 64.535 209.904 66.575C207.779 68.02 206.589 69.635 206.079 71.08C205.654 72.44 205.824 73.545 206.249 74.395C207.014 75.585 208.884 76.435 211.264 76.52C213.559 76.52 218.574 69.55 223.504 61.39Z" fill="white"/>
</svg>
