<svg width="460" height="59" viewBox="0 0 460 59" fill="none" xmlns="http://www.w3.org/2000/svg">
<path d="M19.9657 2.095C18.491 2.095 17.0427 2.51633 15.6207 3.359C14.1987 4.20166 12.9347 5.67633 11.8287 7.783C10.7227 9.837 9.82735 12.6283 9.14268 16.157C8.45802 19.633 8.11568 24.0307 8.11568 29.35C8.11568 34.6693 8.45802 39.0933 9.14268 42.622C9.82735 46.098 10.749 48.8893 11.9077 50.996C13.0664 53.05 14.4094 54.4983 15.9367 55.341C17.464 56.1837 19.0704 56.605 20.7557 56.605C22.125 56.605 23.5207 56.2363 24.9427 55.499C26.3647 54.7617 27.655 53.7347 28.8137 52.418C30.025 51.1013 31.0257 49.5477 31.8157 47.757C32.6584 45.9663 33.185 44.044 33.3957 41.99H34.5807C34.37 44.36 33.8434 46.5457 33.0007 48.547C32.158 50.4957 31.0784 52.2073 29.7617 53.682C28.4977 55.104 27.023 56.21 25.3377 57C23.6524 57.79 21.8617 58.185 19.9657 58.185C17.4904 58.185 15.094 57.6057 12.7767 56.447C10.4594 55.2357 8.37902 53.445 6.53568 51.075C4.74502 48.6523 3.29668 45.6503 2.19068 42.069C1.13735 38.435 0.610684 34.1953 0.610684 29.35C0.610684 24.5047 1.13735 20.2913 2.19068 16.71C3.29668 13.076 4.71868 10.074 6.45668 7.704C8.24735 5.28133 10.2487 3.49066 12.4607 2.332C14.6727 1.12066 16.911 0.514997 19.1757 0.514997C20.4397 0.514997 21.572 0.725664 22.5727 1.147C23.626 1.56833 24.5214 2.04233 25.2587 2.569C26.1014 3.14833 26.8387 3.80666 27.4707 4.544C27.892 3.754 28.445 3.01666 29.1297 2.332C29.867 1.59466 30.6307 1.12066 31.4207 0.909997H32.6057C32.5004 1.7 32.4214 2.49 32.3687 3.28C32.316 4.01733 32.2634 4.80733 32.2107 5.65C32.2107 6.44 32.2107 7.23 32.2107 8.02C32.2107 8.91533 32.2107 9.81066 32.2107 10.706C32.2634 11.5487 32.316 12.3387 32.3687 13.076C32.4214 13.9187 32.5004 14.735 32.6057 15.525H31.4207C30.2094 11.1537 28.5767 7.83566 26.5227 5.571C24.5214 3.25366 22.3357 2.095 19.9657 2.095ZM75.9262 29.35C75.9262 34.1953 75.3732 38.435 74.2672 42.069C73.2139 45.6503 71.7919 48.6523 70.0012 51.075C68.2632 53.445 66.2882 55.2357 64.0762 56.447C61.8642 57.6057 59.6259 58.185 57.3612 58.185C55.0966 58.185 52.8582 57.6057 50.6462 56.447C48.4342 55.2357 46.4329 53.445 44.6422 51.075C42.9042 48.6523 41.4822 45.6503 40.3762 42.069C39.3229 38.435 38.7962 34.1953 38.7962 29.35C38.7962 24.5047 39.3229 20.2913 40.3762 16.71C41.4822 13.076 42.9042 10.074 44.6422 7.704C46.4329 5.28133 48.4342 3.49066 50.6462 2.332C52.8582 1.12066 55.0966 0.514997 57.3612 0.514997C59.6259 0.514997 61.8642 1.12066 64.0762 2.332C66.2882 3.49066 68.2632 5.28133 70.0012 7.704C71.7919 10.074 73.2139 13.076 74.2672 16.71C75.3732 20.2913 75.9262 24.5047 75.9262 29.35ZM68.4212 29.35C68.4212 23.9253 68.0789 19.4487 67.3942 15.92C66.7622 12.3387 65.8932 9.49467 64.7872 7.388C63.7339 5.28133 62.5489 3.80666 61.2322 2.964C59.9156 2.12133 58.6252 1.7 57.3612 1.7C56.0972 1.7 54.8069 2.12133 53.4902 2.964C52.1736 3.80666 50.9622 5.28133 49.8562 7.388C48.8029 9.49467 47.9339 12.3387 47.2492 15.92C46.6172 19.4487 46.3012 23.9253 46.3012 29.35C46.3012 34.7747 46.6172 39.2777 47.2492 42.859C47.9339 46.3877 48.8029 49.2053 49.8562 51.312C50.9622 53.4187 52.1736 54.8933 53.4902 55.736C54.8069 56.5787 56.0972 57 57.3612 57C58.6252 57 59.9156 56.5787 61.2322 55.736C62.5489 54.8933 63.7339 53.4187 64.7872 51.312C65.8932 49.2053 66.7622 46.3877 67.3942 42.859C68.0789 39.2777 68.4212 34.7747 68.4212 29.35ZM102.209 55.025L106.949 56.21V57H90.7543V56.21L95.4943 55.025V3.28H87.1993C87.1993 5.492 86.7516 7.546 85.8563 9.442C84.961 11.338 83.8286 12.9707 82.4593 14.34H81.6693C81.722 13.6553 81.7746 12.9443 81.8273 12.207C81.88 11.575 81.9326 10.9167 81.9853 10.232C82.038 9.49467 82.0643 8.75733 82.0643 8.02C82.0643 7.01933 82.038 6.15033 81.9853 5.413C81.9326 4.623 81.88 3.93833 81.8273 3.359C81.7746 2.727 81.722 2.174 81.6693 1.7H116.034C115.929 2.174 115.85 2.727 115.797 3.359C115.745 3.93833 115.692 4.623 115.639 5.413C115.639 6.15033 115.639 7.01933 115.639 8.02C115.639 8.75733 115.639 9.49467 115.639 10.232C115.692 10.9167 115.745 11.575 115.797 12.207C115.85 12.9443 115.929 13.6553 116.034 14.34H115.244C113.875 12.9707 112.743 11.338 111.847 9.442C110.952 7.546 110.504 5.492 110.504 3.28H102.209V55.025ZM134.424 55.025L139.164 56.21V57H122.969V56.21L127.709 55.025V3.675L122.969 2.49V1.7H139.164V2.49L134.424 3.675V55.025ZM174.522 55.42C174.522 53.208 174.97 51.154 175.865 49.258C176.761 47.362 177.893 45.7293 179.262 44.36H180.052C179.947 45.0447 179.868 45.7557 179.815 46.493C179.763 47.125 179.71 47.8097 179.657 48.547C179.657 49.2843 179.657 49.9953 179.657 50.68C179.657 51.6807 179.657 52.576 179.657 53.366C179.71 54.1033 179.763 54.7617 179.815 55.341C179.868 55.973 179.947 56.526 180.052 57H147.267V56.21L152.007 55.025V3.675L147.267 2.49V1.7H179.262C179.157 2.174 179.078 2.727 179.025 3.359C178.973 3.93833 178.92 4.623 178.867 5.413C178.867 6.15033 178.867 7.01933 178.867 8.02C178.867 8.75733 178.867 9.49467 178.867 10.232C178.92 10.9167 178.973 11.575 179.025 12.207C179.078 12.9443 179.157 13.6553 179.262 14.34H178.472C177.103 12.9707 175.971 11.338 175.075 9.442C174.18 7.546 173.732 5.492 173.732 3.28H158.722V26.98H166.227L169.782 19.87H170.572V35.67H169.782L166.227 28.56H158.722V55.42H174.522ZM202.768 1.7C206.139 1.7 209.062 2.06866 211.537 2.806C214.012 3.54333 216.066 4.544 217.699 5.808C219.332 7.072 220.543 8.54667 221.333 10.232C222.123 11.8647 222.518 13.629 222.518 15.525C222.518 17.0523 222.281 18.4217 221.807 19.633C221.386 20.7917 220.806 21.845 220.069 22.793C219.384 23.6883 218.568 24.452 217.62 25.084C216.672 25.716 215.724 26.2427 214.776 26.664C212.511 27.6647 209.957 28.2967 207.113 28.56C209.43 28.8233 211.537 29.3763 213.433 30.219C215.066 30.9563 216.593 32.036 218.015 33.458C219.437 34.88 220.28 36.8023 220.543 39.225L222.123 53.05C222.228 54.0507 222.465 54.7617 222.834 55.183C223.203 55.6043 223.624 55.815 224.098 55.815C224.361 55.815 224.625 55.736 224.888 55.578C225.204 55.3673 225.494 55.1303 225.757 54.867C226.02 54.6037 226.257 54.2613 226.468 53.84L227.258 54.63C226.942 55.3147 226.494 55.9203 225.915 56.447C225.441 56.8683 224.809 57.2633 224.019 57.632C223.282 58.0007 222.386 58.185 221.333 58.185C219.542 58.185 218.068 57.6847 216.909 56.684C215.803 55.6307 215.171 54.4193 215.013 53.05L213.433 39.225C213.222 37.4343 212.88 35.9333 212.406 34.722C211.932 33.458 211.274 32.431 210.431 31.641C209.641 30.851 208.614 30.2717 207.35 29.903C206.086 29.5343 204.559 29.35 202.768 29.35H199.608V55.025L204.348 56.21V57H188.153V56.21L192.893 55.025V3.675L188.153 2.49V1.7H202.768ZM215.013 15.525C215.013 11.575 213.96 8.54666 211.853 6.44C209.746 4.33333 206.718 3.28 202.768 3.28H199.608V27.77H202.768C206.718 27.77 209.746 26.7167 211.853 24.61C213.96 22.5033 215.013 19.475 215.013 15.525ZM264.021 28.56V55.025L268.761 56.21V57H252.566V56.21L257.306 55.025V3.675L252.566 2.49V1.7H268.761V2.49L264.021 3.675V26.98H280.216V3.675L275.476 2.49V1.7H291.671V2.49L286.931 3.675V55.025L291.671 56.21V57H275.476V56.21L280.216 55.025V28.56H264.021ZM336.513 29.35C336.513 34.1953 335.96 38.435 334.854 42.069C333.801 45.6503 332.379 48.6523 330.588 51.075C328.85 53.445 326.875 55.2357 324.663 56.447C322.451 57.6057 320.213 58.185 317.948 58.185C315.683 58.185 313.445 57.6057 311.233 56.447C309.021 55.2357 307.02 53.445 305.229 51.075C303.491 48.6523 302.069 45.6503 300.963 42.069C299.91 38.435 299.383 34.1953 299.383 29.35C299.383 24.5047 299.91 20.2913 300.963 16.71C302.069 13.076 303.491 10.074 305.229 7.704C307.02 5.28133 309.021 3.49066 311.233 2.332C313.445 1.12066 315.683 0.514997 317.948 0.514997C320.213 0.514997 322.451 1.12066 324.663 2.332C326.875 3.49066 328.85 5.28133 330.588 7.704C332.379 10.074 333.801 13.076 334.854 16.71C335.96 20.2913 336.513 24.5047 336.513 29.35ZM329.008 29.35C329.008 23.9253 328.666 19.4487 327.981 15.92C327.349 12.3387 326.48 9.49467 325.374 7.388C324.321 5.28133 323.136 3.80666 321.819 2.964C320.502 2.12133 319.212 1.7 317.948 1.7C316.684 1.7 315.394 2.12133 314.077 2.964C312.76 3.80666 311.549 5.28133 310.443 7.388C309.39 9.49467 308.521 12.3387 307.836 15.92C307.204 19.4487 306.888 23.9253 306.888 29.35C306.888 34.7747 307.204 39.2777 307.836 42.859C308.521 46.3877 309.39 49.2053 310.443 51.312C311.549 53.4187 312.76 54.8933 314.077 55.736C315.394 56.5787 316.684 57 317.948 57C319.212 57 320.502 56.5787 321.819 55.736C323.136 54.8933 324.321 53.4187 325.374 51.312C326.48 49.2053 327.349 46.3877 327.981 42.859C328.666 39.2777 329.008 34.7747 329.008 29.35ZM378.973 41.2C378.973 47.1513 377.735 51.47 375.26 54.156C372.837 56.842 369.335 58.185 364.753 58.185C359.381 58.185 355.194 56.7103 352.192 53.761C349.242 50.759 347.768 46.572 347.768 41.2V3.675L343.028 2.49V1.7H359.223V2.49L354.483 3.675V41.2C354.483 46.5193 355.536 50.4167 357.643 52.892C359.749 55.3673 362.383 56.605 365.543 56.605C367.333 56.605 368.94 56.3153 370.362 55.736C371.836 55.104 373.074 54.156 374.075 52.892C375.128 51.628 375.944 50.048 376.524 48.152C377.103 46.2033 377.393 43.886 377.393 41.2V4.465L372.258 2.49V1.7H384.108V2.49L378.973 4.465V41.2ZM394.631 11.97C394.631 14.1293 395.263 15.999 396.527 17.579C397.791 19.1063 399.371 20.5283 401.267 21.845C403.163 23.1617 405.217 24.452 407.429 25.716C409.694 26.98 411.774 28.4283 413.67 30.061C415.566 31.641 417.146 33.5107 418.41 35.67C419.674 37.8293 420.306 40.4627 420.306 43.57C420.306 45.624 419.937 47.5463 419.2 49.337C418.463 51.1277 417.409 52.6813 416.04 53.998C414.723 55.3147 413.143 56.3417 411.3 57.079C409.457 57.8163 407.455 58.185 405.296 58.185C403.295 58.185 401.583 57.9743 400.161 57.553C398.739 57.1843 397.554 56.7367 396.606 56.21C395.5 55.6307 394.578 54.9723 393.841 54.235C393.42 55.025 392.84 55.7623 392.103 56.447C391.418 57.1317 390.681 57.5793 389.891 57.79H388.706C388.759 57.0527 388.811 56.2627 388.864 55.42C388.917 54.7353 388.969 53.9717 389.022 53.129C389.075 52.2863 389.101 51.47 389.101 50.68C389.101 49.7847 389.075 48.9157 389.022 48.073C388.969 47.1777 388.917 46.3613 388.864 45.624C388.811 44.7813 388.759 43.965 388.706 43.175H389.891C391.102 47.5463 392.84 50.8907 395.105 53.208C397.422 55.4727 400.556 56.605 404.506 56.605C407.666 56.605 410.22 55.6043 412.169 53.603C414.17 51.549 415.171 48.7313 415.171 45.15C415.171 42.9907 414.539 41.1473 413.275 39.62C412.011 38.04 410.431 36.5917 408.535 35.275C406.639 33.9583 404.559 32.668 402.294 31.404C400.082 30.14 398.028 28.718 396.132 27.138C394.236 25.5053 392.656 23.6093 391.392 21.45C390.128 19.2907 389.496 16.6573 389.496 13.55C389.496 11.7593 389.838 10.074 390.523 8.494C391.208 6.914 392.156 5.54466 393.367 4.386C394.578 3.17467 396 2.22667 397.633 1.542C399.266 0.857331 401.03 0.514997 402.926 0.514997C404.506 0.514997 405.902 0.725664 407.113 1.147C408.324 1.56833 409.351 2.016 410.194 2.49C411.142 3.06933 412.011 3.72767 412.801 4.465C413.222 3.675 413.775 2.93767 414.46 2.253C415.197 1.56833 415.961 1.12066 416.751 0.909997H417.936C417.831 1.7 417.752 2.49 417.699 3.28C417.646 4.01733 417.594 4.80733 417.541 5.65C417.541 6.44 417.541 7.23 417.541 8.02C417.541 8.91533 417.541 9.81066 417.541 10.706C417.594 11.5487 417.646 12.3387 417.699 13.076C417.752 13.9187 417.831 14.735 417.936 15.525H416.751C415.54 11.1537 413.854 7.83566 411.695 5.571C409.536 3.25366 406.876 2.095 403.716 2.095C401.135 2.095 398.976 2.99033 397.238 4.781C395.5 6.57166 394.631 8.968 394.631 11.97ZM454.474 55.42C454.474 53.208 454.921 51.154 455.817 49.258C456.712 47.362 457.844 45.7293 459.214 44.36H460.004C459.898 45.0447 459.819 45.7557 459.767 46.493C459.714 47.125 459.661 47.8097 459.609 48.547C459.609 49.2843 459.609 49.9953 459.609 50.68C459.609 51.6807 459.609 52.576 459.609 53.366C459.661 54.1033 459.714 54.7617 459.767 55.341C459.819 55.973 459.898 56.526 460.004 57H427.219V56.21L431.959 55.025V3.675L427.219 2.49V1.7H459.214C459.108 2.174 459.029 2.727 458.977 3.359C458.924 3.93833 458.871 4.623 458.819 5.413C458.819 6.15033 458.819 7.01933 458.819 8.02C458.819 8.75733 458.819 9.49467 458.819 10.232C458.871 10.9167 458.924 11.575 458.977 12.207C459.029 12.9443 459.108 13.6553 459.214 14.34H458.424C457.054 12.9707 455.922 11.338 455.027 9.442C454.131 7.546 453.684 5.492 453.684 3.28H438.674V26.98H446.179L449.734 19.87H450.524V35.67H449.734L446.179 28.56H438.674V55.42H454.474Z" fill="white"/>
</svg>
