<svg width="616" height="131" viewBox="0 0 616 131" fill="none" xmlns="http://www.w3.org/2000/svg">
<path d="M14.7417 65.53C16.6737 64.978 18.7437 64.15 20.9517 63.184C23.8497 61.666 26.3337 58.768 27.8517 56.146C28.1277 55.594 28.2657 55.18 28.5417 54.628C27.0237 55.318 25.2297 56.422 23.1597 57.94C20.3997 60.01 17.2257 62.632 14.7417 65.53ZM24.5397 67.738C18.0537 71.05 10.7397 71.878 10.3257 71.878C0.941742 92.026 38.2017 74.914 42.4797 67.186C42.8937 66.358 44.2737 65.392 45.5157 66.496C46.6197 67.6 46.6197 68.152 46.2057 68.98C42.3417 75.742 20.8137 90.646 11.2917 85.264C6.59974 82.642 3.70174 77.122 4.80574 71.74C5.49574 68.29 7.56574 64.702 10.3257 61.528C13.0857 58.492 16.2597 55.594 19.2957 53.386C23.2977 50.626 27.0237 48.97 28.5417 49.246C29.7837 49.522 30.8877 50.212 31.8537 51.316C33.2337 52.834 33.7857 54.628 33.5097 56.284C33.3717 57.526 32.8197 58.768 32.1297 60.148C30.6117 63.046 27.8517 66.082 24.5397 67.738ZM81.7009 66.91C81.9769 66.496 82.5289 65.668 83.6329 66.496C84.7369 67.186 85.4269 68.29 85.1509 68.704C81.7009 74.638 53.8249 97.132 45.8209 101.134C40.8529 103.756 32.5729 106.24 29.1229 100.72C20.9809 89.266 74.1109 13.504 75.3529 13.228C79.7689 6.88 85.5649 2.602 89.8429 1.36C91.3609 0.945993 92.8789 0.807995 94.2589 1.36C96.6049 2.05 98.2609 3.56799 98.9509 5.776C99.5029 7.84599 98.9509 11.158 96.4669 15.85C87.6349 33.514 50.7889 61.528 50.6509 61.666C50.5129 61.666 50.3749 61.804 50.0989 61.666C40.0249 79.192 32.8489 95.062 34.7809 99.202C36.0229 100.996 41.9569 98.788 43.3369 98.098C51.2029 93.958 78.2509 72.706 81.7009 66.91ZM79.2169 16.126C79.2169 16.126 68.0389 32.41 56.8609 50.626C68.3149 41.104 86.6689 24.82 92.6029 13.09C94.6729 8.95 95.3629 6.05199 94.9489 4.25799C94.5349 4.25799 93.8449 4.396 93.1549 4.534C89.1529 5.776 83.6329 9.91599 79.2169 16.126ZM86.4371 65.53C88.3691 64.978 90.4391 64.15 92.6471 63.184C95.5451 61.666 98.0291 58.768 99.5471 56.146C99.8231 55.594 99.9611 55.18 100.237 54.628C98.7191 55.318 96.9251 56.422 94.8551 57.94C92.0951 60.01 88.9211 62.632 86.4371 65.53ZM96.2351 67.738C89.7491 71.05 82.4351 71.878 82.0211 71.878C72.6371 92.026 109.897 74.914 114.175 67.186C114.589 66.358 115.969 65.392 117.211 66.496C118.315 67.6 118.315 68.152 117.901 68.98C114.037 75.742 92.5091 90.646 82.9871 85.264C78.2951 82.642 75.3971 77.122 76.5011 71.74C77.1911 68.29 79.2611 64.702 82.0211 61.528C84.7811 58.492 87.9551 55.594 90.9911 53.386C94.9931 50.626 98.7191 48.97 100.237 49.246C101.479 49.522 102.583 50.212 103.549 51.316C104.929 52.834 105.481 54.628 105.205 56.284C105.067 57.526 104.515 58.768 103.825 60.148C102.307 63.046 99.5471 66.082 96.2351 67.738ZM113.652 68.152L113.376 67.876C112.272 66.634 111.996 65.254 112.548 64.84L119.862 57.664C120.414 57.112 122.898 58.354 124.002 59.596C124.968 60.7 125.382 61.942 124.968 62.494C124.83 62.632 115.584 75.466 112.824 82.228C111.996 84.16 113.928 83.608 115.308 82.228C121.656 77.674 130.764 67.876 138.63 57.388L139.458 56.146C140.01 55.456 140.7 55.456 141.804 56.698C143.046 57.802 144.426 60.286 143.874 60.838C143.874 60.976 138.354 68.014 138.354 70.912C138.354 71.05 142.908 70.36 147.324 66.772C147.876 66.358 149.532 64.702 150.636 65.944C151.74 67.186 151.74 68.014 151.188 68.566C151.188 68.566 137.94 80.158 133.8 71.602L133.662 71.326C128.556 76.846 123.588 81.4 119.586 84.16C117.516 85.678 115.722 86.782 114.342 87.334C112.134 88.024 110.064 87.61 108.408 85.678C107.718 84.85 107.304 84.022 107.166 83.056C106.476 80.02 110.064 73.672 113.652 68.152ZM171.484 64.012C172.036 65.392 171.622 66.22 170.518 65.944C169.414 65.668 168.034 64.426 167.482 63.184C164.722 60.562 157.96 63.736 155.476 65.806C150.37 69.946 147.472 74.914 145.954 81.262C150.784 79.882 163.342 65.254 163.342 65.254C163.894 64.702 165.136 65.116 166.378 66.358C167.344 67.462 167.896 68.704 167.482 69.394C167.206 70.084 165.55 73.672 166.378 77.536C166.93 80.848 184.87 65.806 185.146 65.668C185.698 65.116 186.802 64.426 187.906 65.53C189.01 66.772 188.872 67.876 188.32 68.428C179.212 76.57 173.83 81.4 170.104 83.332C163.756 86.644 158.926 84.712 159.064 77.95C154.096 82.642 148.99 86.92 145.954 85.54C144.85 85.126 144.022 84.298 143.194 83.47C141.814 81.676 141.262 79.744 141.538 77.674C141.676 76.018 142.228 74.224 143.056 72.43C144.85 68.566 148.024 64.288 151.612 61.39C157.822 56.284 169.138 56.008 171.484 64.012ZM223.336 4.534C223.75 3.98199 225.13 4.25799 226.234 5.49999C227.338 6.60399 227.89 8.122 227.476 8.67399C227.476 8.812 217.402 22.75 206.638 38.896H241.828C242.794 38.896 244.312 40 245.002 41.242C245.83 42.622 245.692 43.726 244.726 43.726H203.464C200.566 48.142 197.668 52.696 194.908 57.112V57.25C194.908 57.802 194.632 58.078 194.356 58.078C185.938 71.74 181.384 79.606 182.902 82.366C185.386 87.058 213.4 64.702 213.4 64.564C213.952 64.15 214.78 63.874 215.884 65.116C216.988 66.358 216.16 67.048 215.608 67.462C215.47 67.6 184.144 98.512 177.382 86.092C175.312 82.228 181.66 68.98 190.492 54.352C190.354 54.352 191.32 52.834 191.32 52.834C191.596 42.346 156.268 43.726 156.268 43.726C155.302 43.726 153.784 42.622 153.094 41.242C152.266 40 152.404 38.896 153.37 38.896H200.014C211.606 20.818 223.198 4.67199 223.336 4.534ZM192.838 50.35C194.218 48.142 195.598 45.934 196.978 43.726L179.728 43.036C183.868 44.692 190.63 47.452 192.838 50.35ZM218.238 65.53C220.17 64.978 222.24 64.15 224.448 63.184C227.346 61.666 229.83 58.768 231.348 56.146C231.624 55.594 231.762 55.18 232.038 54.628C230.52 55.318 228.726 56.422 226.656 57.94C223.896 60.01 220.722 62.632 218.238 65.53ZM228.036 67.738C221.55 71.05 214.236 71.878 213.822 71.878C204.438 92.026 241.698 74.914 245.976 67.186C246.39 66.358 247.77 65.392 249.012 66.496C250.116 67.6 250.116 68.152 249.702 68.98C245.838 75.742 224.31 90.646 214.788 85.264C210.096 82.642 207.198 77.122 208.302 71.74C208.992 68.29 211.062 64.702 213.822 61.528C216.582 58.492 219.756 55.594 222.792 53.386C226.794 50.626 230.52 48.97 232.038 49.246C233.28 49.522 234.384 50.212 235.35 51.316C236.73 52.834 237.282 54.628 237.006 56.284C236.868 57.526 236.316 58.768 235.626 60.148C234.108 63.046 231.348 66.082 228.036 67.738ZM266.705 72.154C266.567 72.844 265.739 72.982 264.773 72.43L264.635 72.706C259.667 76.984 255.251 80.434 251.801 82.642C247.109 85.54 239.243 86.23 239.657 78.364C239.795 76.294 240.761 73.672 242.279 71.05C245.039 66.496 250.973 58.906 256.769 59.182C262.151 59.044 263.807 61.804 265.187 63.874C270.293 59.044 275.537 53.386 280.505 47.452C291.821 33.928 299.549 22.75 303.275 16.954L306.173 12.538C306.587 11.848 307.829 12.124 309.071 13.366C310.175 14.47 310.865 15.85 310.451 16.678C310.451 16.678 309.347 18.472 307.139 21.784C293.615 43.036 242.417 123.766 244.349 128.32C244.901 129.7 244.349 130.39 243.245 130.114C242.141 129.838 240.761 128.596 240.347 127.216C238.691 123.352 257.045 91.888 274.709 62.77C272.087 65.53 269.465 68.152 266.843 70.498C266.843 71.464 266.705 72.016 266.705 72.154ZM262.151 66.772C261.875 65.806 261.185 64.702 259.391 64.702C254.423 64.426 248.903 71.188 246.557 75.052C245.453 76.984 244.625 78.778 244.349 80.158C245.177 79.744 246.419 79.054 247.937 78.088C251.387 76.018 255.803 72.568 260.633 68.29L262.151 66.772ZM373.064 66.91C373.34 66.496 373.892 65.668 374.996 66.496C376.1 67.186 376.79 68.29 376.514 68.704C373.064 74.638 345.188 97.132 337.184 101.134C332.216 103.756 323.936 106.24 320.486 100.72C312.344 89.266 365.474 13.504 366.716 13.228C371.132 6.88 376.928 2.602 381.206 1.36C382.724 0.945993 384.242 0.807995 385.622 1.36C387.968 2.05 389.624 3.56799 390.314 5.776C390.866 7.84599 390.314 11.158 387.83 15.85C378.998 33.514 342.152 61.528 342.014 61.666C341.876 61.666 341.738 61.804 341.462 61.666C331.388 79.192 324.212 95.062 326.144 99.202C327.386 100.996 333.32 98.788 334.7 98.098C342.566 93.958 369.614 72.706 373.064 66.91ZM370.58 16.126C370.58 16.126 359.402 32.41 348.224 50.626C359.678 41.104 378.032 24.82 383.966 13.09C386.036 8.95 386.726 6.05199 386.312 4.25799C385.898 4.25799 385.208 4.396 384.518 4.534C380.516 5.776 374.996 9.91599 370.58 16.126ZM381.526 55.594C382.216 55.042 383.596 55.594 384.7 56.836C385.804 58.078 386.218 59.458 385.528 60.01C382.492 62.632 377.524 68.566 374.488 74.362C372.556 78.226 372.694 80.434 374.074 81.124C379.732 81.952 395.05 67.048 395.05 66.91C395.602 66.358 396.568 65.254 397.672 66.496C398.914 67.738 398.362 68.152 397.81 68.704C397.672 68.704 374.764 93.544 368.83 83.194C366.898 79.744 367.864 75.052 370.21 70.36C373.246 64.426 378.352 58.216 381.526 55.594ZM390.082 51.592C389.53 52.282 388.15 51.73 387.046 50.626C385.942 49.384 385.39 48.004 385.942 47.314L393.67 38.482C394.222 37.792 395.464 38.344 396.706 39.448C397.81 40.69 398.224 42.07 397.81 42.76L390.082 51.592ZM409.96 44.14C409.546 43.864 409.132 43.312 408.856 42.898C408.028 41.656 408.166 40.552 409.132 40.414C410.512 40.414 414.238 36.688 417.964 31.996L419.068 30.892C421.414 27.166 423.484 23.992 425.002 21.508C426.658 18.748 427.9 16.816 428.866 15.85C429.004 15.298 429.418 15.16 430.108 15.298H430.246C433.006 16.126 433.972 17.644 433.282 20.128C432.73 22.198 428.038 29.098 423.208 35.032C420.586 39.034 417.412 43.588 413.962 48.418C409.822 54.214 403.474 63.46 396.712 73.258C402.508 73.396 412.168 73.81 421.966 66.496C422.518 66.082 423.208 64.978 424.174 66.22C425.278 67.462 425.692 68.842 425.002 69.256C411.478 79.33 399.334 78.502 393.952 77.398L392.986 78.64C393.262 81.952 393.124 87.61 391.192 96.166C389.812 102.652 386.776 107.482 383.326 111.07C378.634 115.9 373.114 118.246 370.078 117.97L369.94 117.832C369.664 117.832 369.526 117.832 369.25 117.694L368.974 117.556C365.8 116.038 365.524 113.002 367.318 109.138C368.56 106.654 370.492 103.204 372.838 99.202C376.978 92.302 382.636 83.608 388.432 75.052C388.294 74.086 388.156 73.672 388.156 73.672C387.742 72.43 388.294 71.602 389.398 72.016H389.536C389.536 72.016 389.812 72.154 390.364 72.292C397.816 61.252 405.268 50.764 409.822 44.278L409.96 44.14ZM388.018 86.23C383.878 92.44 380.152 98.374 377.116 103.342C375.046 106.654 373.39 109.69 372.286 111.898C374.494 110.932 376.978 109.138 379.324 106.792C382.498 103.342 385.396 98.788 386.776 92.716C387.328 90.232 387.742 88.162 388.018 86.23ZM427.259 65.53C429.191 64.978 431.261 64.15 433.469 63.184C436.367 61.666 438.851 58.768 440.369 56.146C440.645 55.594 440.783 55.18 441.059 54.628C439.541 55.318 437.747 56.422 435.677 57.94C432.917 60.01 429.743 62.632 427.259 65.53ZM437.057 67.738C430.571 71.05 423.257 71.878 422.843 71.878C413.459 92.026 450.719 74.914 454.997 67.186C455.411 66.358 456.791 65.392 458.033 66.496C459.137 67.6 459.137 68.152 458.723 68.98C454.859 75.742 433.331 90.646 423.809 85.264C419.117 82.642 416.219 77.122 417.323 71.74C418.013 68.29 420.083 64.702 422.843 61.528C425.603 58.492 428.777 55.594 431.813 53.386C435.815 50.626 439.541 48.97 441.059 49.246C442.301 49.522 443.405 50.212 444.371 51.316C445.751 52.834 446.303 54.628 446.027 56.284C445.889 57.526 445.337 58.768 444.647 60.148C443.129 63.046 440.369 66.082 437.057 67.738ZM455.716 71.05C455.164 71.602 453.508 72.43 452.404 71.326C451.3 70.084 454.198 67.6 454.75 67.048L465.1 54.49C466.894 52.558 468.274 51.454 468.274 51.454C468.826 50.902 470.206 51.454 471.172 52.696C472.276 53.8 472.828 55.318 472.276 55.87L468.964 59.044C466.066 62.356 462.202 68.29 463.72 74.638C464.548 78.64 464.134 81.814 463.03 84.16C462.34 85.402 461.374 86.368 460.408 87.196C459.442 87.886 458.338 88.438 457.234 88.714C455.302 89.128 453.37 88.852 451.852 88.024C443.986 84.022 448.264 76.294 448.264 76.156C448.678 75.466 449.92 75.742 451.162 76.846C452.404 77.95 452.956 79.468 452.68 80.158C452.68 80.296 450.748 83.746 451.024 83.884C451.576 84.16 452.68 84.16 453.784 83.884C454.75 83.746 455.716 83.332 456.544 82.642C457.372 82.09 458.2 81.124 458.614 80.158C459.58 78.226 459.994 75.742 459.304 72.568C459.304 70.774 458.062 70.636 461.374 64.564L455.716 71.05ZM516.182 4.534C516.596 3.98199 517.976 4.25799 519.08 5.49999C520.184 6.60399 520.736 8.122 520.322 8.67399C520.322 8.812 510.248 22.75 499.484 38.896H534.674C535.64 38.896 537.158 40 537.848 41.242C538.676 42.622 538.538 43.726 537.572 43.726H496.31C493.412 48.142 490.514 52.696 487.754 57.112V57.25C487.754 57.802 487.478 58.078 487.202 58.078C478.784 71.74 474.23 79.606 475.748 82.366C478.232 87.058 506.246 64.702 506.246 64.564C506.798 64.15 507.626 63.874 508.73 65.116C509.834 66.358 509.006 67.048 508.454 67.462C508.316 67.6 476.99 98.512 470.228 86.092C468.158 82.228 474.506 68.98 483.338 54.352C483.2 54.352 484.166 52.834 484.166 52.834C484.442 42.346 449.114 43.726 449.114 43.726C448.148 43.726 446.63 42.622 445.94 41.242C445.112 40 445.25 38.896 446.216 38.896H492.86C504.452 20.818 516.044 4.67199 516.182 4.534ZM485.684 50.35C487.064 48.142 488.444 45.934 489.824 43.726L472.574 43.036C476.714 44.692 483.476 47.452 485.684 50.35ZM578.98 93.544C580.084 93.682 581.464 94.786 582.154 96.166C582.844 97.408 582.706 98.374 581.602 98.374C552.346 95.89 530.818 96.442 515.224 98.65C505.978 114.244 495.628 129.286 490.936 129.286C484.588 129.148 479.068 125.698 476.308 120.868C474.79 118.108 474.238 114.934 475.204 111.898C476.17 109.138 478.24 106.378 481.966 103.756C487.624 99.754 497.008 96.166 511.36 93.958C514.948 87.886 518.398 81.814 521.296 76.57C517.018 80.296 512.602 83.194 509.704 82.918C508.462 82.78 507.496 82.504 506.53 81.952C503.77 80.434 502.252 78.088 502.252 75.19C502.114 73.534 502.666 71.464 503.632 69.256C505.426 64.84 509.014 59.458 513.43 54.214C513.982 53.524 515.362 54.076 516.466 55.18C517.57 56.422 518.122 57.802 517.57 58.492C513.154 63.598 509.704 68.842 507.91 73.12C507.634 73.672 507.358 76.708 508.186 77.26C517.708 79.33 533.992 55.87 532.888 55.042V55.18C533.44 54.49 534.544 54.904 535.786 56.008C536.89 57.112 537.58 58.492 537.166 59.182L534.13 64.564L533.992 64.702C533.992 64.84 526.954 78.364 518.536 93.13C533.578 91.474 553.45 91.336 578.98 93.544ZM507.91 99.892C497.56 102.1 490.384 104.998 485.83 108.31C482.38 110.656 480.448 113.278 479.62 115.624C478.93 117.832 479.206 119.626 479.896 121.006C481.138 122.938 484.174 124.318 488.038 124.456C491.764 124.456 499.906 113.14 507.91 99.892ZM578.447 66.91C578.723 66.496 579.275 65.668 580.379 66.496C581.483 67.186 582.173 68.29 581.897 68.704C578.447 74.638 550.571 97.132 542.567 101.134C537.599 103.756 529.319 106.24 525.869 100.72C517.727 89.266 570.857 13.504 572.099 13.228C576.515 6.88 582.311 2.602 586.589 1.36C588.107 0.945993 589.625 0.807995 591.005 1.36C593.351 2.05 595.007 3.56799 595.697 5.776C596.249 7.84599 595.697 11.158 593.213 15.85C584.381 33.514 547.535 61.528 547.397 61.666C547.259 61.666 547.121 61.804 546.845 61.666C536.771 79.192 529.595 95.062 531.527 99.202C532.769 100.996 538.703 98.788 540.083 98.098C547.949 93.958 574.997 72.706 578.447 66.91ZM575.963 16.126C575.963 16.126 564.785 32.41 553.607 50.626C565.061 41.104 583.415 24.82 589.349 13.09C591.419 8.95 592.109 6.05199 591.695 4.25799C591.281 4.25799 590.591 4.396 589.901 4.534C585.899 5.776 580.379 9.91599 575.963 16.126ZM583.183 65.53C585.115 64.978 587.185 64.15 589.393 63.184C592.291 61.666 594.775 58.768 596.293 56.146C596.569 55.594 596.707 55.18 596.983 54.628C595.465 55.318 593.671 56.422 591.601 57.94C588.841 60.01 585.667 62.632 583.183 65.53ZM592.981 67.738C586.495 71.05 579.181 71.878 578.767 71.878C569.383 92.026 606.643 74.914 610.921 67.186C611.335 66.358 612.715 65.392 613.957 66.496C615.061 67.6 615.061 68.152 614.647 68.98C610.783 75.742 589.255 90.646 579.733 85.264C575.041 82.642 572.143 77.122 573.247 71.74C573.937 68.29 576.007 64.702 578.767 61.528C581.527 58.492 584.701 55.594 587.737 53.386C591.739 50.626 595.465 48.97 596.983 49.246C598.225 49.522 599.329 50.212 600.295 51.316C601.675 52.834 602.227 54.628 601.951 56.284C601.813 57.526 601.261 58.768 600.571 60.148C599.053 63.046 596.293 66.082 592.981 67.738Z" fill="white"/>
</svg>
