<svg width="579" height="108" viewBox="0 0 579 108" fill="none" xmlns="http://www.w3.org/2000/svg">
<path d="M14.69 65.53C16.622 64.978 18.692 64.15 20.9 63.184C23.798 61.666 26.282 58.768 27.8 56.146C28.076 55.594 28.214 55.18 28.49 54.628C26.972 55.318 25.178 56.422 23.108 57.94C20.348 60.01 17.174 62.632 14.69 65.53ZM24.488 67.738C18.002 71.05 10.688 71.878 10.274 71.878C0.889984 92.026 38.15 74.914 42.428 67.186C42.842 66.358 44.222 65.392 45.464 66.496C46.568 67.6 46.568 68.152 46.154 68.98C42.29 75.742 20.762 90.646 11.24 85.264C6.54798 82.642 3.64998 77.122 4.75398 71.74C5.44398 68.29 7.51398 64.702 10.274 61.528C13.034 58.492 16.208 55.594 19.244 53.386C23.246 50.626 26.972 48.97 28.49 49.246C29.732 49.522 30.836 50.212 31.802 51.316C33.182 52.834 33.734 54.628 33.458 56.284C33.32 57.526 32.768 58.768 32.078 60.148C30.56 63.046 27.8 66.082 24.488 67.738ZM70.6091 53.524C71.2991 53.11 72.6791 53.662 73.7831 54.904C74.7491 56.146 75.1631 57.526 74.4731 58.078C74.4731 58.078 61.5011 67.738 49.0811 79.054C48.1151 81.814 47.7011 83.884 48.3911 84.712C53.4971 88.576 75.5771 69.67 78.4751 66.082C79.0271 65.392 79.5791 64.978 80.6831 66.082C81.9251 67.324 81.5111 67.6 81.0971 68.29C75.3011 75.466 59.0171 96.994 47.5631 87.886C47.4251 87.61 47.1491 87.472 46.8731 87.196C45.7691 86.092 44.9411 84.712 44.6651 83.194C35.8331 91.612 28.1051 100.444 26.7251 106.516C26.4491 107.344 25.3451 107.344 24.1031 106.378C22.8611 105.274 22.0331 103.756 22.1711 102.928C23.9651 95.476 34.4531 84.436 45.2171 74.638C45.9071 71.878 47.0111 69.256 47.9771 66.91C46.1831 68.014 44.6651 68.98 44.6651 68.98C43.9751 69.394 42.5951 68.704 41.4911 67.462C40.5251 66.22 40.2491 64.84 40.9391 64.426C40.9391 64.426 50.0471 58.768 52.2551 59.734C55.7051 61.39 55.4291 63.598 54.1871 66.634C63.1571 59.044 70.6091 53.662 70.6091 53.524ZM96.9477 69.67C96.5337 70.498 95.2917 70.222 94.1877 69.118C92.9457 68.014 92.2557 66.496 92.5317 65.806C92.6697 65.806 94.8777 60.976 94.3257 60.976C91.7037 60.838 86.0457 64.564 81.7677 69.394C80.1117 71.188 78.7317 73.12 77.6277 75.052C76.6617 76.846 76.1097 78.778 75.9717 80.434C75.9717 81.676 76.2477 82.78 76.9377 83.47C82.7337 88.576 111.024 67.324 111.162 67.324C111.714 67.186 112.956 65.53 113.922 65.806C115.026 67.048 115.44 68.428 114.888 68.98C114.75 68.98 84.9417 94.51 75.6957 86.23C72.6597 83.47 71.4177 80.434 71.5557 77.398C71.5557 75.19 72.2457 73.12 73.3497 71.05C74.4537 68.98 75.9717 67.048 77.6277 65.116C82.1817 60.01 88.3917 56.008 91.5657 56.146C103.296 56.56 96.9477 69.67 96.9477 69.67ZM117.651 65.53C119.583 64.978 121.653 64.15 123.861 63.184C126.759 61.666 129.243 58.768 130.761 56.146C131.037 55.594 131.175 55.18 131.451 54.628C129.933 55.318 128.139 56.422 126.069 57.94C123.309 60.01 120.135 62.632 117.651 65.53ZM127.449 67.738C120.963 71.05 113.649 71.878 113.235 71.878C103.851 92.026 141.111 74.914 145.389 67.186C145.803 66.358 147.183 65.392 148.425 66.496C149.529 67.6 149.529 68.152 149.115 68.98C145.251 75.742 123.723 90.646 114.201 85.264C109.509 82.642 106.611 77.122 107.715 71.74C108.405 68.29 110.475 64.702 113.235 61.528C115.995 58.492 119.169 55.594 122.205 53.386C126.207 50.626 129.933 48.97 131.451 49.246C132.693 49.522 133.797 50.212 134.763 51.316C136.143 52.834 136.695 54.628 136.419 56.284C136.281 57.526 135.729 58.768 135.039 60.148C133.521 63.046 130.761 66.082 127.449 67.738ZM183.782 15.436C183.506 15.712 181.16 19.162 176.744 25.786C172.328 32.41 167.222 40.552 161.288 49.936C167.498 44.968 174.122 38.896 181.298 31.996C188.474 24.958 193.718 18.472 197.03 12.4C199.1 8.26 199.928 5.224 199.514 3.56799C198.962 3.56799 198.41 3.56799 197.72 3.844C193.166 5.224 188.612 9.08799 183.782 15.436ZM212.762 29.374C212.486 29.65 210.14 33.1 205.724 39.724C201.308 46.348 196.202 54.49 190.268 63.874C196.478 58.906 203.24 52.834 210.416 45.934C217.454 38.896 222.698 32.41 226.148 26.338C228.218 22.198 228.908 19.162 228.494 17.506C228.08 17.506 227.39 17.506 226.7 17.782C222.146 19.162 217.592 23.026 212.762 29.374ZM173.708 83.746L173.846 83.056C170.534 85.954 166.946 88.714 163.358 91.474C157.7 95.89 153.284 98.788 150.386 100.444C147.764 101.824 144.728 102.79 141.416 103.204C138.104 103.618 135.482 102.514 133.688 100.03C131.894 96.718 133.136 90.646 137.276 81.538C141.416 72.43 146.798 62.494 153.284 52.006C159.77 41.518 165.566 32.41 170.948 24.682C176.33 16.954 179.228 12.952 179.918 12.538C184.748 5.91399 189.578 2.05 194.27 0.669996C195.926 0.117995 197.444 0.117995 198.686 0.531998C201.17 1.36 202.688 2.87799 203.378 5.086C204.068 7.018 203.378 10.468 201.032 15.16C198.686 19.576 194.96 24.406 190.13 29.65C185.3 34.894 180.194 39.862 174.812 44.554C169.43 49.246 164.876 53.11 161.15 56.146C157.424 59.182 155.354 60.7 155.216 60.838C155.078 60.838 154.802 60.976 154.664 60.976C149.42 69.808 145.28 77.812 142.382 84.712C139.484 91.612 138.38 96.166 139.346 98.512C139.76 99.064 140.588 99.202 141.83 99.064C142.934 98.926 144.038 98.65 145.28 98.374C146.522 97.96 147.35 97.684 147.902 97.408C150.8 95.752 154.94 92.854 160.598 88.714C166.118 84.574 171.362 80.296 176.468 76.018C176.882 75.604 177.296 75.19 177.71 74.914C180.194 69.808 183.23 64.426 186.68 59.044C192.062 50.212 196.892 42.76 201.446 36.412C205.862 30.064 208.346 26.752 208.898 26.476C213.728 19.852 218.558 15.988 223.388 14.608C224.906 14.056 226.424 14.056 227.804 14.608C230.15 15.298 231.806 16.816 232.496 19.024C233.186 20.956 232.358 24.406 230.012 29.098C227.666 33.514 223.94 38.482 219.11 43.726C214.28 48.97 209.174 53.938 203.792 58.63C198.41 63.322 193.856 67.048 190.13 70.084C186.404 73.12 184.334 74.638 184.196 74.914C183.782 75.19 182.954 76.57 181.712 78.778C180.47 80.986 179.366 83.47 178.124 86.368C176.882 89.128 176.192 91.75 175.916 94.234C175.502 96.718 176.054 98.236 177.572 99.064C178.952 99.892 181.574 99.34 185.576 97.408C188.474 95.752 192.476 92.854 197.858 88.714C203.24 84.574 208.346 80.296 213.452 75.88C218.42 71.464 221.87 68.29 223.94 66.22C224.078 66.082 224.216 65.944 224.354 65.806C224.492 65.53 224.768 65.392 225.044 65.392C225.182 65.392 225.458 65.53 225.872 65.806C226.424 66.082 226.838 66.496 227.114 66.91C227.39 67.324 227.528 67.738 227.39 68.014C225.872 70.222 222.56 73.534 217.454 78.088C212.21 82.642 206.69 87.058 201.032 91.474C195.374 95.89 190.958 98.788 188.06 100.444C185.438 101.824 182.402 102.79 179.228 103.204C175.916 103.618 173.294 102.514 171.362 100.03C169.568 96.856 170.396 91.474 173.708 83.746ZM228.833 65.53C230.765 64.978 232.835 64.15 235.043 63.184C237.941 61.666 240.425 58.768 241.943 56.146C242.219 55.594 242.357 55.18 242.633 54.628C241.115 55.318 239.321 56.422 237.251 57.94C234.491 60.01 231.317 62.632 228.833 65.53ZM238.631 67.738C232.145 71.05 224.831 71.878 224.417 71.878C215.033 92.026 252.293 74.914 256.571 67.186C256.985 66.358 258.365 65.392 259.607 66.496C260.711 67.6 260.711 68.152 260.297 68.98C256.433 75.742 234.905 90.646 225.383 85.264C220.691 82.642 217.793 77.122 218.897 71.74C219.587 68.29 221.657 64.702 224.417 61.528C227.177 58.492 230.351 55.594 233.387 53.386C237.389 50.626 241.115 48.97 242.633 49.246C243.875 49.522 244.979 50.212 245.945 51.316C247.325 52.834 247.877 54.628 247.601 56.284C247.463 57.526 246.911 58.768 246.221 60.148C244.703 63.046 241.943 66.082 238.631 67.738ZM261.016 58.63C261.43 57.94 262.81 58.216 263.914 59.32C265.156 60.424 265.708 61.942 265.294 62.632L261.844 68.842C269.296 62.632 277.438 56.56 280.474 57.388H280.75C284.89 58.63 285.58 61.252 284.614 64.702C284.2 66.22 283.234 68.014 282.268 70.084C280.474 73.672 278.404 77.674 278.404 77.674C282.82 80.572 297.724 67.462 297.862 67.462C298.276 66.91 299.794 65.116 300.898 66.358C302.14 67.462 301.312 67.738 300.76 68.428C300.76 68.428 285.718 86.23 278.542 81.538C272.332 77.536 275.368 71.464 277.99 66.082C278.542 64.978 279.094 63.874 279.508 62.77C271.642 66.91 253.288 84.436 252.736 84.988C252.322 85.54 251.08 85.126 249.976 84.16C248.872 82.918 248.182 81.538 248.596 80.848L261.016 58.63ZM317.02 69.67C316.606 70.498 315.364 70.222 314.26 69.118C313.018 68.014 312.328 66.496 312.604 65.806C312.742 65.806 314.95 60.976 314.398 60.976C311.776 60.838 306.118 64.564 301.84 69.394C300.184 71.188 298.804 73.12 297.7 75.052C296.734 76.846 296.182 78.778 296.044 80.434C296.044 81.676 296.32 82.78 297.01 83.47C302.806 88.576 331.096 67.324 331.234 67.324C331.786 67.186 333.028 65.53 333.994 65.806C335.098 67.048 335.512 68.428 334.96 68.98C334.822 68.98 305.014 94.51 295.768 86.23C292.732 83.47 291.49 80.434 291.628 77.398C291.628 75.19 292.318 73.12 293.422 71.05C294.526 68.98 296.044 67.048 297.7 65.116C302.254 60.01 308.464 56.008 311.638 56.146C323.368 56.56 317.02 69.67 317.02 69.67ZM337.723 65.53C339.655 64.978 341.725 64.15 343.933 63.184C346.831 61.666 349.315 58.768 350.833 56.146C351.109 55.594 351.247 55.18 351.523 54.628C350.005 55.318 348.211 56.422 346.141 57.94C343.381 60.01 340.207 62.632 337.723 65.53ZM347.521 67.738C341.035 71.05 333.721 71.878 333.307 71.878C323.923 92.026 361.183 74.914 365.461 67.186C365.875 66.358 367.255 65.392 368.497 66.496C369.601 67.6 369.601 68.152 369.187 68.98C365.323 75.742 343.795 90.646 334.273 85.264C329.581 82.642 326.683 77.122 327.787 71.74C328.477 68.29 330.547 64.702 333.307 61.528C336.067 58.492 339.241 55.594 342.277 53.386C346.279 50.626 350.005 48.97 351.523 49.246C352.765 49.522 353.869 50.212 354.835 51.316C356.215 52.834 356.767 54.628 356.491 56.284C356.353 57.526 355.801 58.768 355.111 60.148C353.593 63.046 350.833 66.082 347.521 67.738ZM441.414 15.022C441.828 14.332 443.208 14.746 444.312 15.85C445.554 16.954 446.106 18.472 445.692 19.162L415.47 68.152C423.06 62.356 430.788 58.906 431.616 68.014C431.754 69.256 431.892 78.226 431.892 78.226C432.444 78.916 436.86 77.812 449.004 66.496C449.556 65.944 450.384 64.702 451.488 65.806C452.592 67.048 452.592 68.014 452.04 68.566C438.378 81.262 431.754 84.436 428.58 81.124C425.268 77.536 426.372 71.05 425.958 66.22C425.544 62.77 403.602 87.472 403.464 87.61C403.05 88.162 401.808 87.748 400.704 86.644C399.462 85.54 398.91 84.022 399.324 83.332L441.414 15.022ZM454.016 59.596C454.568 59.182 455.948 59.734 457.052 60.976C458.156 62.218 458.432 63.598 457.88 64.15C457.466 64.426 457.052 64.702 456.776 64.978C453.878 67.6 451.532 71.878 450.014 76.156C448.91 79.744 448.358 83.056 449.048 84.436C449.738 84.712 450.566 84.712 451.67 84.436C452.912 84.022 454.43 83.194 455.81 81.814C457.742 80.158 459.536 77.674 461.192 74.5C462.158 72.706 462.848 70.774 463.4 68.842C460.916 66.772 459.122 64.288 458.018 61.804C456.914 59.32 456.5 56.836 456.638 55.042C456.914 53.11 457.742 51.73 459.398 51.454C460.64 51.316 461.744 51.592 462.848 52.144C464.642 53.11 466.16 54.766 467.126 56.836C467.954 58.354 468.368 60.01 468.644 61.804C468.92 63.598 468.92 65.668 468.644 67.738C471.68 68.29 476.234 68.842 481.064 66.082C481.754 65.668 482.444 65.116 483.548 66.358C484.514 67.6 484.376 68.566 483.686 68.98C477.2 72.568 472.37 73.12 468.092 71.602C467.54 73.948 466.712 76.432 465.47 78.502C463.814 81.676 461.882 84.436 459.812 86.23C458.156 87.61 456.638 88.714 455.12 89.128C453.326 89.68 451.532 89.542 449.738 88.576C448.772 88.024 447.806 87.334 446.978 86.368C446.702 86.092 446.426 85.816 446.15 85.54C443.942 82.366 444.08 77.26 445.598 72.43C447.116 67.876 449.738 63.322 452.774 60.562C453.188 60.286 453.602 59.872 454.016 59.596ZM464.09 65.53C464.366 63.322 464.366 61.114 464.09 59.32C463.952 58.078 463.676 56.974 463.4 56.284C463.262 56.284 463.538 56.284 463.538 56.284C463.4 56.146 462.986 56.146 462.572 56.284C461.744 56.284 461.33 57.112 461.192 58.354C461.054 59.596 461.33 61.114 462.02 62.632C462.434 63.736 463.124 64.702 464.09 65.53ZM485.68 55.042C485.956 54.352 487.336 54.766 488.44 55.87C489.682 56.974 490.372 58.354 489.958 59.182L487.474 63.46C491.752 59.32 495.892 55.87 498.514 54.904C507.07 52.006 505.69 61.39 502.93 69.808C503.344 69.532 503.896 69.256 504.31 69.118C505.552 68.566 506.656 68.152 507.622 68.152C509.83 68.014 511.624 69.118 512.866 71.74C513.556 73.258 513.556 75.604 512.452 78.778C512.314 79.054 527.218 66.772 527.356 66.772C527.908 66.22 529.15 64.702 530.254 65.944C531.496 67.048 531.358 67.876 530.806 68.428C530.668 68.566 497.686 103.342 508.036 74.914C508.174 74.362 508.312 73.948 508.45 73.396L507.898 73.672C504.172 75.604 499.342 79.606 498.376 81.262V81.4C497.962 82.228 496.72 81.952 495.478 80.848C494.236 79.744 493.684 78.226 493.96 77.536C493.96 77.398 502.378 59.458 501.964 59.596C494.512 62.218 474.64 86.506 474.502 86.644C474.088 87.196 472.846 86.782 471.742 85.816C470.638 84.712 469.948 83.194 470.362 82.504L485.68 55.042ZM533.133 65.53C535.065 64.978 537.135 64.15 539.343 63.184C542.241 61.666 544.725 58.768 546.243 56.146C546.519 55.594 546.657 55.18 546.933 54.628C545.415 55.318 543.621 56.422 541.551 57.94C538.791 60.01 535.617 62.632 533.133 65.53ZM542.931 67.738C536.445 71.05 529.131 71.878 528.717 71.878C519.333 92.026 556.593 74.914 560.871 67.186C561.285 66.358 562.665 65.392 563.907 66.496C565.011 67.6 565.011 68.152 564.597 68.98C560.733 75.742 539.205 90.646 529.683 85.264C524.991 82.642 522.093 77.122 523.197 71.74C523.887 68.29 525.957 64.702 528.717 61.528C531.477 58.492 534.651 55.594 537.687 53.386C541.689 50.626 545.415 48.97 546.933 49.246C548.175 49.522 549.279 50.212 550.245 51.316C551.625 52.834 552.177 54.628 551.901 56.284C551.763 57.526 551.211 58.768 550.521 60.148C549.003 63.046 546.243 66.082 542.931 67.738ZM561.59 71.05C561.038 71.602 559.382 72.43 558.278 71.326C557.174 70.084 560.072 67.6 560.624 67.048L570.974 54.49C572.768 52.558 574.148 51.454 574.148 51.454C574.7 50.902 576.08 51.454 577.046 52.696C578.15 53.8 578.702 55.318 578.15 55.87L574.838 59.044C571.94 62.356 568.076 68.29 569.594 74.638C570.422 78.64 570.008 81.814 568.904 84.16C568.214 85.402 567.248 86.368 566.282 87.196C565.316 87.886 564.212 88.438 563.108 88.714C561.176 89.128 559.244 88.852 557.726 88.024C549.86 84.022 554.138 76.294 554.138 76.156C554.552 75.466 555.794 75.742 557.036 76.846C558.278 77.95 558.83 79.468 558.554 80.158C558.554 80.296 556.622 83.746 556.898 83.884C557.45 84.16 558.554 84.16 559.658 83.884C560.624 83.746 561.59 83.332 562.418 82.642C563.246 82.09 564.074 81.124 564.488 80.158C565.454 78.226 565.868 75.742 565.178 72.568C565.178 70.774 563.936 70.636 567.248 64.564L561.59 71.05Z" fill="white"/>
</svg>
