<svg width="307" height="80" viewBox="0 0 307 80" fill="none" xmlns="http://www.w3.org/2000/svg">
<path d="M27.925 27.05C27.67 26.88 27.415 26.54 27.245 26.285C26.735 25.52 26.82 24.84 27.415 24.755C28.265 24.755 30.56 22.46 32.855 19.57L33.535 18.89C34.98 16.595 36.255 14.64 37.19 13.11C38.21 11.41 38.975 10.22 39.57 9.625C39.655 9.285 39.91 9.2 40.335 9.285H40.42C42.12 9.795 42.715 10.73 42.29 12.26C41.95 13.535 39.06 17.785 36.085 21.44C34.47 23.905 32.515 26.71 30.39 29.685C27.84 33.255 23.93 38.95 19.765 44.985C23.335 45.07 29.285 45.325 35.32 40.82C35.66 40.565 36.085 39.885 36.68 40.65C37.36 41.415 37.615 42.265 37.19 42.52C28.86 48.725 21.38 48.215 18.065 47.535L17.47 48.3C17.64 50.34 17.555 53.825 16.365 59.095C15.515 63.09 13.645 66.065 11.52 68.275C8.63 71.25 5.23 72.695 3.36 72.525L3.275 72.44C3.105 72.44 3.02 72.44 2.85 72.355L2.68 72.27C0.725 71.335 0.554999 69.465 1.66 67.085C2.425 65.555 3.615 63.43 5.06 60.965C7.61 56.715 11.095 51.36 14.665 46.09C14.58 45.495 14.495 45.24 14.495 45.24C14.24 44.475 14.58 43.965 15.26 44.22H15.345C15.345 44.22 15.515 44.305 15.855 44.39C20.445 37.59 25.035 31.13 27.84 27.135L27.925 27.05ZM14.41 52.975C11.86 56.8 9.565 60.455 7.695 63.515C6.42 65.555 5.4 67.425 4.72 68.785C6.08 68.19 7.61 67.085 9.055 65.64C11.01 63.515 12.795 60.71 13.645 56.97C13.985 55.44 14.24 54.165 14.41 52.975ZM40.1105 33.425C40.4505 33.085 41.3005 33.425 41.9805 34.105C42.6605 34.87 42.9155 35.72 42.6605 36.145C36.2005 43.54 35.6905 48.64 36.2855 49.15C37.3055 50 43.8505 45.835 48.4405 38.1L48.6955 37.76C49.0355 37.42 49.8855 37.675 50.5655 38.44C51.2455 39.12 51.5855 40.055 51.2455 40.395C51.2455 40.395 51.0755 40.65 50.6505 40.99C49.5455 42.35 43.1705 51.36 49.5455 48.3C52.8605 46.685 56.7705 43.54 58.9805 40.65C59.3205 40.225 59.6605 39.375 60.4255 40.14C61.1055 40.82 60.6805 41.33 60.3405 41.67C58.0455 44.645 54.8155 48.64 51.4155 50.255C48.4405 51.7 44.7005 51.02 44.1905 47.365C35.7755 54.59 28.8905 53.23 33.5655 42.86C35.0955 39.46 37.9005 35.805 40.1105 33.425ZM61.3088 35.975C61.5638 35.55 62.4138 35.72 63.0938 36.4C63.8588 37.08 64.1988 38.015 63.9438 38.44L61.8188 42.265C66.4088 38.44 71.4238 34.7 73.2938 35.21H73.4638C76.0138 35.975 76.4388 37.59 75.8438 39.715C75.5888 40.65 74.9938 41.755 74.3988 43.03C73.2938 45.24 72.0188 47.705 72.0188 47.705C74.7388 49.49 83.9188 41.415 84.0038 41.415C84.2588 41.075 85.1938 39.97 85.8738 40.735C86.6388 41.415 86.1288 41.585 85.7888 42.01C85.7888 42.01 76.5238 52.975 72.1038 50.085C68.2788 47.62 70.1488 43.88 71.7638 40.565C72.1038 39.885 72.4438 39.205 72.6988 38.525C67.8538 41.075 56.5487 51.87 56.2087 52.21C55.9537 52.55 55.1887 52.295 54.5087 51.7C53.8287 50.935 53.4037 50.085 53.6587 49.66L61.3088 35.975ZM95.8041 42.775C95.5491 43.285 94.7841 43.115 94.1041 42.435C93.3391 41.755 92.9141 40.82 93.0841 40.395C93.1691 40.395 94.5291 37.42 94.1891 37.42C92.5741 37.335 89.0891 39.63 86.4541 42.605C85.4341 43.71 84.5841 44.9 83.9041 46.09C83.3091 47.195 82.9691 48.385 82.8841 49.405C82.8841 50.17 83.0541 50.85 83.4791 51.275C87.0491 54.42 104.474 41.33 104.559 41.33C104.899 41.245 105.664 40.225 106.259 40.395C106.939 41.16 107.194 42.01 106.854 42.35C106.769 42.35 88.4091 58.075 82.7141 52.975C80.8441 51.275 80.0791 49.405 80.1641 47.535C80.1641 46.175 80.5891 44.9 81.2691 43.625C81.9491 42.35 82.8841 41.16 83.9041 39.97C86.7091 36.825 90.5341 34.36 92.4891 34.445C99.7141 34.7 95.8041 42.775 95.8041 42.775ZM129.211 2.655C129.466 2.315 130.316 2.48499 130.996 3.24999C131.676 3.93 132.016 4.865 131.761 5.205C131.761 5.29 125.556 13.875 118.926 23.82H140.601C141.196 23.82 142.131 24.5 142.556 25.265C143.066 26.115 142.981 26.795 142.386 26.795H116.971C115.186 29.515 113.401 32.32 111.701 35.04V35.125C111.701 35.465 111.531 35.635 111.361 35.635C106.176 44.05 103.371 48.895 104.306 50.595C105.836 53.485 123.091 39.715 123.091 39.63C123.431 39.375 123.941 39.205 124.621 39.97C125.301 40.735 124.791 41.16 124.451 41.415C124.366 41.5 105.071 60.54 100.906 52.89C99.6311 50.51 103.541 42.35 108.981 33.34C108.896 33.34 109.491 32.405 109.491 32.405C109.661 25.945 87.9011 26.795 87.9011 26.795C87.3061 26.795 86.3711 26.115 85.9461 25.265C85.4361 24.5 85.5211 23.82 86.1161 23.82H114.846C121.986 12.685 129.126 2.74 129.211 2.655ZM110.426 30.875C111.276 29.515 112.126 28.155 112.976 26.795L102.351 26.37C104.901 27.39 109.066 29.09 110.426 30.875ZM128.366 34.105C128.791 33.765 129.641 34.105 130.321 34.87C131.001 35.635 131.256 36.485 130.831 36.825C128.961 38.44 125.901 42.095 124.031 45.665C122.841 48.045 122.926 49.405 123.776 49.83C127.261 50.34 136.696 41.16 136.696 41.075C137.036 40.735 137.631 40.055 138.311 40.82C139.076 41.585 138.736 41.84 138.396 42.18C138.311 42.18 124.201 57.48 120.546 51.105C119.356 48.98 119.951 46.09 121.396 43.2C123.266 39.545 126.411 35.72 128.366 34.105ZM133.636 31.64C133.296 32.065 132.446 31.725 131.766 31.045C131.086 30.28 130.746 29.43 131.086 29.005L135.846 23.565C136.186 23.14 136.951 23.48 137.716 24.16C138.396 24.925 138.651 25.775 138.396 26.2L133.636 31.64ZM139.844 36.57C140.184 36.315 141.034 36.655 141.714 37.42C142.394 38.185 142.564 39.035 142.224 39.375C141.969 39.545 141.714 39.715 141.544 39.885C139.759 41.5 138.314 44.135 137.379 46.77C136.699 48.98 136.359 51.02 136.784 51.87C137.209 52.04 137.719 52.04 138.399 51.87C139.164 51.615 140.099 51.105 140.949 50.255C142.139 49.235 143.244 47.705 144.264 45.75C144.859 44.645 145.284 43.455 145.624 42.265C144.094 40.99 142.989 39.46 142.309 37.93C141.629 36.4 141.374 34.87 141.459 33.765C141.629 32.575 142.139 31.725 143.159 31.555C143.924 31.47 144.604 31.64 145.284 31.98C146.389 32.575 147.324 33.595 147.919 34.87C148.429 35.805 148.684 36.825 148.854 37.93C149.024 39.035 149.024 40.31 148.854 41.585C150.724 41.925 153.529 42.265 156.504 40.565C156.929 40.31 157.354 39.97 158.034 40.735C158.629 41.5 158.544 42.095 158.119 42.35C154.124 44.56 151.149 44.9 148.514 43.965C148.174 45.41 147.664 46.94 146.899 48.215C145.879 50.17 144.689 51.87 143.414 52.975C142.394 53.825 141.459 54.505 140.524 54.76C139.419 55.1 138.314 55.015 137.209 54.42C136.614 54.08 136.019 53.655 135.509 53.06C135.339 52.89 135.169 52.72 134.999 52.55C133.639 50.595 133.724 47.45 134.659 44.475C135.594 41.67 137.209 38.865 139.079 37.165C139.334 36.995 139.589 36.74 139.844 36.57ZM146.049 40.225C146.219 38.865 146.219 37.505 146.049 36.4C145.964 35.635 145.794 34.955 145.624 34.53C145.539 34.53 145.709 34.53 145.709 34.53C145.624 34.445 145.369 34.445 145.114 34.53C144.604 34.53 144.349 35.04 144.264 35.805C144.179 36.57 144.349 37.505 144.774 38.44C145.029 39.12 145.454 39.715 146.049 40.225ZM159.092 35.975C159.347 35.55 160.197 35.72 160.877 36.4C161.642 37.08 161.982 38.015 161.727 38.44L159.602 42.265C164.192 38.44 169.207 34.7 171.077 35.21H171.247C173.797 35.975 174.222 37.59 173.627 39.715C173.372 40.65 172.777 41.755 172.182 43.03C171.077 45.24 169.802 47.705 169.802 47.705C172.522 49.49 181.702 41.415 181.787 41.415C182.042 41.075 182.977 39.97 183.657 40.735C184.422 41.415 183.912 41.585 183.572 42.01C183.572 42.01 174.307 52.975 169.887 50.085C166.062 47.62 167.932 43.88 169.547 40.565C169.887 39.885 170.227 39.205 170.482 38.525C165.637 41.075 154.332 51.87 153.992 52.21C153.737 52.55 152.972 52.295 152.292 51.7C151.612 50.935 151.187 50.085 151.442 49.66L159.092 35.975ZM196.052 39.29C196.392 40.14 196.137 40.65 195.457 40.48C194.777 40.31 193.927 39.545 193.587 38.78C191.887 37.165 187.722 39.12 186.192 40.395C183.047 42.945 181.262 46.005 180.327 49.915C183.302 49.065 191.037 40.055 191.037 40.055C191.377 39.715 192.142 39.97 192.907 40.735C193.502 41.415 193.842 42.18 193.587 42.605C193.417 43.03 192.397 45.24 192.907 47.62C193.247 49.66 204.297 40.395 204.467 40.31C204.807 39.97 205.487 39.545 206.167 40.225C206.847 40.99 206.762 41.67 206.422 42.01C200.812 47.025 197.497 50 195.202 51.19C191.292 53.23 188.317 52.04 188.402 47.875C185.342 50.765 182.197 53.4 180.327 52.55C179.647 52.295 179.137 51.785 178.627 51.275C177.777 50.17 177.437 48.98 177.607 47.705C177.692 46.685 178.032 45.58 178.542 44.475C179.647 42.095 181.602 39.46 183.812 37.675C187.637 34.53 194.607 34.36 196.052 39.29ZM228.075 41.075C228.245 40.82 228.585 40.31 229.265 40.82C229.945 41.245 230.37 41.925 230.2 42.18C228.075 45.835 210.905 59.69 205.975 62.155C202.915 63.77 197.815 65.3 195.69 61.9C190.675 54.845 223.4 8.18 224.165 8.01C226.885 4.1 230.455 1.465 233.09 0.699997C234.025 0.444996 234.96 0.359997 235.81 0.699997C237.255 1.125 238.275 2.06 238.7 3.42C239.04 4.695 238.7 6.735 237.17 9.625C231.73 20.505 209.035 37.76 208.95 37.845C208.865 37.845 208.78 37.93 208.61 37.845C202.405 48.64 197.985 58.415 199.175 60.965C199.94 62.07 203.595 60.71 204.445 60.285C209.29 57.735 225.95 44.645 228.075 41.075ZM226.545 9.795C226.545 9.795 219.66 19.825 212.775 31.045C219.83 25.18 231.135 15.15 234.79 7.925C236.065 5.375 236.49 3.59 236.235 2.48499C235.98 2.48499 235.555 2.57 235.13 2.655C232.665 3.42 229.265 5.97 226.545 9.795ZM233.288 34.105C233.713 33.765 234.563 34.105 235.243 34.87C235.923 35.635 236.178 36.485 235.753 36.825C233.883 38.44 230.823 42.095 228.953 45.665C227.763 48.045 227.848 49.405 228.698 49.83C232.183 50.34 241.618 41.16 241.618 41.075C241.958 40.735 242.553 40.055 243.233 40.82C243.998 41.585 243.658 41.84 243.318 42.18C243.233 42.18 229.123 57.48 225.468 51.105C224.278 48.98 224.873 46.09 226.318 43.2C228.188 39.545 231.333 35.72 233.288 34.105ZM238.558 31.64C238.218 32.065 237.368 31.725 236.688 31.045C236.008 30.28 235.668 29.43 236.008 29.005L240.768 23.565C241.108 23.14 241.873 23.48 242.638 24.16C243.318 24.925 243.573 25.775 243.318 26.2L238.558 31.64ZM265.676 2.655C265.931 2.315 266.781 2.48499 267.461 3.24999C268.141 3.93 268.481 4.865 268.226 5.205C268.226 5.29 262.021 13.875 255.391 23.82H277.066C277.661 23.82 278.596 24.5 279.021 25.265C279.531 26.115 279.446 26.795 278.851 26.795H253.436C251.651 29.515 249.866 32.32 248.166 35.04V35.125C248.166 35.465 247.996 35.635 247.826 35.635C242.641 44.05 239.836 48.895 240.771 50.595C242.301 53.485 259.556 39.715 259.556 39.63C259.896 39.375 260.406 39.205 261.086 39.97C261.766 40.735 261.256 41.16 260.916 41.415C260.831 41.5 241.536 60.54 237.371 52.89C236.096 50.51 240.006 42.35 245.446 33.34C245.361 33.34 245.956 32.405 245.956 32.405C246.126 25.945 224.366 26.795 224.366 26.795C223.771 26.795 222.836 26.115 222.411 25.265C221.901 24.5 221.986 23.82 222.581 23.82H251.311C258.451 12.685 265.591 2.74 265.676 2.655ZM246.891 30.875C247.741 29.515 248.591 28.155 249.441 26.795L238.816 26.37C241.366 27.39 245.531 29.09 246.891 30.875ZM304.356 57.48C305.036 57.565 305.886 58.245 306.311 59.095C306.736 59.86 306.651 60.455 305.971 60.455C287.951 58.925 274.691 59.265 265.086 60.625C259.391 70.23 253.016 79.495 250.126 79.495C246.216 79.41 242.816 77.285 241.116 74.31C240.181 72.61 239.841 70.655 240.436 68.785C241.031 67.085 242.306 65.385 244.601 63.77C248.086 61.305 253.866 59.095 262.706 57.735C264.916 53.995 267.041 50.255 268.826 47.025C266.191 49.32 263.471 51.105 261.686 50.935C260.921 50.85 260.326 50.68 259.731 50.34C258.031 49.405 257.096 47.96 257.096 46.175C257.011 45.155 257.351 43.88 257.946 42.52C259.051 39.8 261.261 36.485 263.981 33.255C264.321 32.83 265.171 33.17 265.851 33.85C266.531 34.615 266.871 35.465 266.531 35.89C263.811 39.035 261.686 42.265 260.581 44.9C260.411 45.24 260.241 47.11 260.751 47.45C266.616 48.725 276.646 34.275 275.966 33.765V33.85C276.306 33.425 276.986 33.68 277.751 34.36C278.431 35.04 278.856 35.89 278.601 36.315L276.731 39.63L276.646 39.715C276.646 39.8 272.311 48.13 267.126 57.225C276.391 56.205 288.631 56.12 304.356 57.48ZM260.581 61.39C254.206 62.75 249.786 64.535 246.981 66.575C244.856 68.02 243.666 69.635 243.156 71.08C242.731 72.44 242.901 73.545 243.326 74.395C244.091 75.585 245.961 76.435 248.341 76.52C250.636 76.52 255.651 69.55 260.581 61.39Z" fill="white"/>
</svg>
