<svg width="1032" height="120" viewBox="0 0 1032 120" fill="none" xmlns="http://www.w3.org/2000/svg">
<path d="M35.568 6.484C35.088 7.588 34.716 8.488 34.452 9.184C34.188 9.88 33.888 10.72 33.552 11.704L26.892 31.108L25.74 31L24.516 31.108L18 10.912H17.712L10.728 31.108L9.504 31L8.316 31.108L6.948 26.572L0.432 6.484L2.088 6.592L3.78 6.484C3.972 7.156 4.368 8.548 4.968 10.66C5.496 12.58 6.156 14.848 6.948 17.464C7.164 18.184 7.488 19.228 7.92 20.596C8.616 22.78 9.312 24.952 10.008 27.112H10.332C11.124 24.856 11.916 22.588 12.708 20.308C13.26 18.7 13.812 17.08 14.364 15.448C15.156 13.12 15.78 11.284 16.236 9.94L17.316 6.484L18.36 6.592L19.368 6.484L20.34 9.616L26.208 27.112H26.532C26.892 26.176 27.228 25.252 27.54 24.34C27.78 23.62 28.092 22.636 28.476 21.388C29.988 16.42 31.512 11.452 33.048 6.484L34.308 6.592L35.568 6.484ZM61.732 31.108L60.148 31L58.564 31.108V18.724C57.796 18.724 56.416 18.7 54.424 18.652C52.456 18.58 51.304 18.544 50.968 18.544C49.936 18.544 48.712 18.568 47.296 18.616C45.904 18.664 44.608 18.7 43.408 18.724V31.108L41.824 31L40.24 31.108V6.484L41.824 6.592L43.408 6.484V16.816C44.224 16.816 45.64 16.852 47.656 16.924C49.672 16.972 50.776 16.996 50.968 16.996C52.024 16.996 53.248 16.984 54.64 16.96C56.056 16.912 57.364 16.864 58.564 16.816V6.484L60.148 6.592L61.732 6.484V31.108ZM82.2195 31H69.2235V6.484H82.0035L81.8955 7.528L82.0035 8.644C81.1635 8.5 80.2155 8.392 79.1595 8.32C78.1275 8.224 76.6635 8.176 74.7675 8.176H72.3915V17.212H78.1155C78.5235 17.212 79.0995 17.188 79.8435 17.14C80.6115 17.068 81.0555 17.032 81.1755 17.032L81.0675 17.968L81.1755 18.976C80.7675 18.976 80.1675 18.952 79.3755 18.904C78.6075 18.832 78.1275 18.796 77.9355 18.796H72.3915V29.308C77.0955 29.308 80.3715 29.152 82.2195 28.84L82.1115 29.884L82.2195 31ZM106.332 31.108L104.244 31L102.192 31.108C101.376 29.956 100.656 28.96 100.032 28.12C99.6235 27.568 98.8555 26.572 97.7275 25.132C96.6235 23.692 95.8435 22.696 95.3875 22.144C94.5955 21.16 93.7315 20.14 92.7955 19.084H91.4275V31.108L89.8795 31L88.2595 31.108V6.484H96.0715C98.4955 6.484 100.356 6.868 101.652 7.636C103.14 8.524 103.884 9.928 103.884 11.848C103.884 14.104 102.912 15.868 100.968 17.14C99.7675 17.932 98.2795 18.484 96.5035 18.796L102.984 27.004C103.2 27.292 103.908 28.156 105.108 29.596C105.708 30.34 106.116 30.844 106.332 31.108ZM100.68 12.388C100.68 10.996 100.332 9.952 99.6355 9.256C99.0835 8.704 98.4235 8.308 97.6555 8.068C96.8875 7.828 95.8675 7.708 94.5955 7.708L91.4275 7.816V17.716L93.4075 17.752C94.8475 17.752 95.9995 17.632 96.8635 17.392C97.7275 17.128 98.5195 16.636 99.2395 15.916C100.2 14.956 100.68 13.78 100.68 12.388ZM124.227 31H111.231V6.484H124.011L123.903 7.528L124.011 8.644C123.171 8.5 122.223 8.392 121.167 8.32C120.135 8.224 118.671 8.176 116.775 8.176H114.399V17.212H120.123C120.531 17.212 121.107 17.188 121.851 17.14C122.619 17.068 123.063 17.032 123.183 17.032L123.075 17.968L123.183 18.976C122.775 18.976 122.175 18.952 121.383 18.904C120.615 18.832 120.135 18.796 119.943 18.796H114.399V29.308C119.103 29.308 122.379 29.152 124.227 28.84L124.119 29.884L124.227 31ZM154.355 31H141.251V6.484L142.835 6.592L144.419 6.484V29.308C146.747 29.308 148.667 29.272 150.179 29.2C151.691 29.128 153.083 29.008 154.355 28.84L154.247 29.92L154.355 31ZM181.347 20.632C181.347 24.496 180.267 27.352 178.107 29.2C176.283 30.76 173.835 31.54 170.763 31.54C169.083 31.54 167.571 31.324 166.227 30.892C164.907 30.46 163.791 29.8 162.879 28.912C161.991 28 161.355 26.908 160.971 25.636C160.611 24.34 160.431 22.696 160.431 20.704V6.484L161.979 6.592L163.599 6.484V20.452C163.599 22.372 163.779 23.932 164.139 25.132C164.499 26.332 165.075 27.328 165.867 28.12C166.419 28.672 167.175 29.104 168.135 29.416C169.095 29.728 170.235 29.884 171.555 29.884C172.755 29.884 173.775 29.728 174.615 29.416C175.479 29.08 176.199 28.624 176.775 28.048C178.479 26.344 179.331 23.668 179.331 20.02V6.484L180.339 6.592L181.347 6.484V20.632ZM206.73 31.108L204.75 31L202.77 31.108C201.738 29.068 200.586 26.944 199.314 24.736L196.542 20.128C195.918 21.112 195.294 22.096 194.67 23.08C194.046 24.064 193.482 24.988 192.978 25.852C192.402 26.836 191.862 27.784 191.358 28.696C190.854 29.584 190.41 30.388 190.026 31.108L188.694 31L187.362 31.108L190.458 26.608L195.714 18.724L192.078 12.748C191.238 11.404 190.494 10.264 189.846 9.328C189.222 8.368 188.61 7.42 188.01 6.484L189.954 6.592L191.898 6.484L197.55 16.132C197.958 15.484 198.726 14.308 199.854 12.604C200.982 10.9 201.702 9.784 202.014 9.256C202.71 8.152 203.238 7.228 203.598 6.484L204.93 6.592L206.262 6.484C205.926 6.82 205.206 7.756 204.102 9.292C203.31 10.444 202.722 11.284 202.338 11.812C201.09 13.54 200.454 14.428 200.43 14.476C200.07 14.98 199.386 16 198.378 17.536L206.73 31.108ZM233.374 20.632C233.374 24.496 232.294 27.352 230.134 29.2C228.31 30.76 225.862 31.54 222.79 31.54C221.11 31.54 219.598 31.324 218.254 30.892C216.934 30.46 215.818 29.8 214.906 28.912C214.018 28 213.382 26.908 212.998 25.636C212.638 24.34 212.458 22.696 212.458 20.704V6.484L214.006 6.592L215.626 6.484V20.452C215.626 22.372 215.806 23.932 216.166 25.132C216.526 26.332 217.102 27.328 217.894 28.12C218.446 28.672 219.202 29.104 220.162 29.416C221.122 29.728 222.262 29.884 223.582 29.884C224.782 29.884 225.802 29.728 226.642 29.416C227.506 29.08 228.226 28.624 228.802 28.048C230.506 26.344 231.358 23.668 231.358 20.02V6.484L232.366 6.592L233.374 6.484V20.632ZM259.406 31.108L257.318 31L255.266 31.108C254.45 29.956 253.73 28.96 253.106 28.12C252.698 27.568 251.93 26.572 250.802 25.132C249.698 23.692 248.918 22.696 248.462 22.144C247.67 21.16 246.806 20.14 245.87 19.084H244.502V31.108L242.954 31L241.334 31.108V6.484H249.146C251.57 6.484 253.43 6.868 254.726 7.636C256.214 8.524 256.958 9.928 256.958 11.848C256.958 14.104 255.986 15.868 254.042 17.14C252.842 17.932 251.354 18.484 249.578 18.796L256.058 27.004C256.274 27.292 256.982 28.156 258.182 29.596C258.782 30.34 259.19 30.844 259.406 31.108ZM253.754 12.388C253.754 10.996 253.406 9.952 252.71 9.256C252.158 8.704 251.498 8.308 250.73 8.068C249.962 7.828 248.942 7.708 247.67 7.708L244.502 7.816V17.716L246.482 17.752C247.922 17.752 249.074 17.632 249.938 17.392C250.802 17.128 251.594 16.636 252.314 15.916C253.274 14.956 253.754 13.78 253.754 12.388ZM281.006 6.484C280.382 7.276 279.782 8.104 279.206 8.968C279.11 9.112 278.27 10.432 276.686 12.928C275.366 15.016 274.382 16.612 273.734 17.716C273.086 18.796 272.666 19.576 272.474 20.056V31.108L270.89 31L269.306 31.108V20.74L260.486 6.484L262.466 6.592L264.482 6.484C264.986 7.396 265.382 8.128 265.67 8.68C266.702 10.576 267.446 11.932 267.902 12.748C268.79 14.284 269.39 15.328 269.702 15.88C270.23 16.792 270.77 17.692 271.322 18.58C271.658 18.124 272.066 17.488 272.546 16.672C272.93 16.024 273.374 15.256 273.878 14.368C274.622 13.072 275.294 11.872 275.894 10.768C276.494 9.64 277.262 8.212 278.198 6.484L279.602 6.592L281.006 6.484Z" fill="white"/>
<path d="M132.204 89.108L130.512 89L128.82 89.108L127.776 77.516C127.56 75.26 127.296 72.932 126.984 70.532C126.048 72.188 125.004 74.084 123.852 76.22C122.604 78.5 121.836 79.928 121.548 80.504C120.468 82.568 119.904 83.66 119.856 83.78C118.992 85.508 118.224 87.152 117.552 88.712H117.156C116.292 86.936 115.668 85.652 115.284 84.86C114.396 83.036 113.592 81.428 112.872 80.036L107.904 70.532C107.784 71.516 107.532 73.556 107.148 76.652C106.788 79.748 106.548 82.004 106.428 83.42C106.236 85.532 106.14 87.428 106.14 89.108L104.88 89L103.584 89.108C103.8 87.572 104.028 86.024 104.268 84.464C104.796 80.888 105.084 78.968 105.132 78.704C105.588 75.536 105.9 73.316 106.068 72.044C106.26 70.772 106.452 69.368 106.644 67.832C106.836 66.296 106.968 65.18 107.04 64.484H107.976C109.68 67.892 111.552 71.504 113.592 75.32C114.216 76.472 114.972 77.828 115.86 79.388C116.676 80.828 117.444 82.148 118.164 83.348C118.692 82.436 119.676 80.648 121.116 77.984C122.388 75.656 123.66 73.316 124.932 70.964C126.372 68.324 127.572 66.164 128.532 64.484H129.288C129.576 67.172 129.792 69.284 129.936 70.82C130.104 72.356 130.392 74.804 130.8 78.164L132.204 89.108ZM151.192 89H138.196V64.484H150.976L150.868 65.528L150.976 66.644C150.136 66.5 149.188 66.392 148.132 66.32C147.1 66.224 145.636 66.176 143.74 66.176H141.364V75.212H147.088C147.496 75.212 148.072 75.188 148.816 75.14C149.584 75.068 150.028 75.032 150.148 75.032L150.04 75.968L150.148 76.976C149.74 76.976 149.14 76.952 148.348 76.904C147.58 76.832 147.1 76.796 146.908 76.796H141.364V87.308C146.068 87.308 149.344 87.152 151.192 86.84L151.084 87.884L151.192 89ZM170.192 89H157.196V64.484H169.976L169.868 65.528L169.976 66.644C169.136 66.5 168.188 66.392 167.132 66.32C166.1 66.224 164.636 66.176 162.74 66.176H160.364V75.212H166.088C166.496 75.212 167.072 75.188 167.816 75.14C168.584 75.068 169.028 75.032 169.148 75.032L169.04 75.968L169.148 76.976C168.74 76.976 168.14 76.952 167.348 76.904C166.58 76.832 166.1 76.796 165.908 76.796H160.364V87.308C165.068 87.308 168.344 87.152 170.192 86.84L170.084 87.884L170.192 89ZM192.288 66.644C190.872 66.5 189.684 66.392 188.724 66.32C187.788 66.248 186.468 66.212 184.764 66.212V89.18L183.18 89.072L181.596 89.18V66.212C179.916 66.212 178.524 66.248 177.42 66.32C176.316 66.392 175.08 66.5 173.712 66.644L173.82 65.564L173.712 64.484H192.288L192.18 65.564L192.288 66.644ZM210.376 81.368C210.376 83.864 209.5 85.868 207.748 87.38C206.092 88.82 204.028 89.54 201.556 89.54C200.524 89.54 199.432 89.36 198.28 89C197.152 88.64 196.264 88.124 195.616 87.452C195.76 86.972 195.892 86.444 196.012 85.868C196.132 85.268 196.228 84.728 196.3 84.248H196.66C197.404 85.496 198.232 86.432 199.144 87.056C200.08 87.68 201.184 87.992 202.456 87.992C203.92 87.992 205.12 87.488 206.056 86.48C207.016 85.448 207.496 84.224 207.496 82.808C207.496 81.728 207.244 80.864 206.74 80.216C206.26 79.544 205.504 78.956 204.472 78.452C204.04 78.236 203.332 77.936 202.348 77.552C201.388 77.168 200.62 76.832 200.044 76.544C198.94 75.992 198.1 75.38 197.524 74.708C196.66 73.7 196.228 72.404 196.228 70.82C196.228 68.564 197.056 66.812 198.712 65.564C200.152 64.484 201.964 63.944 204.148 63.944C205.204 63.944 206.188 64.112 207.1 64.448C208.036 64.76 208.792 65.168 209.368 65.672C209.2 66.032 209.032 66.5 208.864 67.076C208.624 67.844 208.468 68.36 208.396 68.624H208.036C207.676 67.688 207.148 66.956 206.452 66.428C205.66 65.804 204.7 65.492 203.572 65.492C202.252 65.492 201.16 65.9 200.296 66.716C199.456 67.508 199.036 68.48 199.036 69.632C199.036 70.712 199.288 71.588 199.792 72.26C200.296 72.908 201.088 73.508 202.168 74.06C203.704 74.732 205.252 75.392 206.812 76.04C207.964 76.616 208.804 77.252 209.332 77.948C210.028 78.86 210.376 80 210.376 81.368Z" fill="white"/>
<path d="M242.925 67.05C242.67 66.88 242.415 66.54 242.245 66.285C241.735 65.52 241.82 64.84 242.415 64.755C243.265 64.755 245.56 62.46 247.855 59.57L248.535 58.89C249.98 56.595 251.255 54.64 252.19 53.11C253.21 51.41 253.975 50.22 254.57 49.625C254.655 49.285 254.91 49.2 255.335 49.285H255.42C257.12 49.795 257.715 50.73 257.29 52.26C256.95 53.535 254.06 57.785 251.085 61.44C249.47 63.905 247.515 66.71 245.39 69.685C242.84 73.255 238.93 78.95 234.765 84.985C238.335 85.07 244.285 85.325 250.32 80.82C250.66 80.565 251.085 79.885 251.68 80.65C252.36 81.415 252.615 82.265 252.19 82.52C243.86 88.725 236.38 88.215 233.065 87.535L232.47 88.3C232.64 90.34 232.555 93.825 231.365 99.095C230.515 103.09 228.645 106.065 226.52 108.275C223.63 111.25 220.23 112.695 218.36 112.525L218.275 112.44C218.105 112.44 218.02 112.44 217.85 112.355L217.68 112.27C215.725 111.335 215.555 109.465 216.66 107.085C217.425 105.555 218.615 103.43 220.06 100.965C222.61 96.715 226.095 91.36 229.665 86.09C229.58 85.495 229.495 85.24 229.495 85.24C229.24 84.475 229.58 83.965 230.26 84.22H230.345C230.345 84.22 230.515 84.305 230.855 84.39C235.445 77.59 240.035 71.13 242.84 67.135L242.925 67.05ZM229.41 92.975C226.86 96.8 224.565 100.455 222.695 103.515C221.42 105.555 220.4 107.425 219.72 108.785C221.08 108.19 222.61 107.085 224.055 105.64C226.01 103.515 227.795 100.71 228.645 96.97C228.985 95.44 229.24 94.165 229.41 92.975ZM255.111 73.425C255.451 73.085 256.301 73.425 256.981 74.105C257.661 74.87 257.916 75.72 257.661 76.145C251.201 83.54 250.691 88.64 251.286 89.15C252.306 90 258.851 85.835 263.441 78.1L263.696 77.76C264.036 77.42 264.886 77.675 265.566 78.44C266.246 79.12 266.586 80.055 266.246 80.395C266.246 80.395 266.076 80.65 265.651 80.99C264.546 82.35 258.171 91.36 264.546 88.3C267.861 86.685 271.771 83.54 273.981 80.65C274.321 80.225 274.661 79.375 275.426 80.14C276.106 80.82 275.681 81.33 275.341 81.67C273.046 84.645 269.816 88.64 266.416 90.255C263.441 91.7 259.701 91.02 259.191 87.365C250.776 94.59 243.891 93.23 248.566 82.86C250.096 79.46 252.901 75.805 255.111 73.425ZM276.309 75.975C276.564 75.55 277.414 75.72 278.094 76.4C278.859 77.08 279.199 78.015 278.944 78.44L276.819 82.265C281.409 78.44 286.424 74.7 288.294 75.21H288.464C291.014 75.975 291.439 77.59 290.844 79.715C290.589 80.65 289.994 81.755 289.399 83.03C288.294 85.24 287.019 87.705 287.019 87.705C289.739 89.49 298.919 81.415 299.004 81.415C299.259 81.075 300.194 79.97 300.874 80.735C301.639 81.415 301.129 81.585 300.789 82.01C300.789 82.01 291.524 92.975 287.104 90.085C283.279 87.62 285.149 83.88 286.764 80.565C287.104 79.885 287.444 79.205 287.699 78.525C282.854 81.075 271.549 91.87 271.209 92.21C270.954 92.55 270.189 92.295 269.509 91.7C268.829 90.935 268.404 90.085 268.659 89.66L276.309 75.975ZM310.804 82.775C310.549 83.285 309.784 83.115 309.104 82.435C308.339 81.755 307.914 80.82 308.084 80.395C308.169 80.395 309.529 77.42 309.189 77.42C307.574 77.335 304.089 79.63 301.454 82.605C300.434 83.71 299.584 84.9 298.904 86.09C298.309 87.195 297.969 88.385 297.884 89.405C297.884 90.17 298.054 90.85 298.479 91.275C302.049 94.42 319.474 81.33 319.559 81.33C319.899 81.245 320.664 80.225 321.259 80.395C321.939 81.16 322.194 82.01 321.854 82.35C321.769 82.35 303.409 98.075 297.714 92.975C295.844 91.275 295.079 89.405 295.164 87.535C295.164 86.175 295.589 84.9 296.269 83.625C296.949 82.35 297.884 81.16 298.904 79.97C301.709 76.825 305.534 74.36 307.489 74.445C314.714 74.7 310.804 82.775 310.804 82.775ZM344.211 42.655C344.466 42.315 345.316 42.485 345.996 43.25C346.676 43.93 347.016 44.865 346.761 45.205C346.761 45.29 340.556 53.875 333.926 63.82H355.601C356.196 63.82 357.131 64.5 357.556 65.265C358.066 66.115 357.981 66.795 357.386 66.795H331.971C330.186 69.515 328.401 72.32 326.701 75.04V75.125C326.701 75.465 326.531 75.635 326.361 75.635C321.176 84.05 318.371 88.895 319.306 90.595C320.836 93.485 338.091 79.715 338.091 79.63C338.431 79.375 338.941 79.205 339.621 79.97C340.301 80.735 339.791 81.16 339.451 81.415C339.366 81.5 320.071 100.54 315.906 92.89C314.631 90.51 318.541 82.35 323.981 73.34C323.896 73.34 324.491 72.405 324.491 72.405C324.661 65.945 302.901 66.795 302.901 66.795C302.306 66.795 301.371 66.115 300.946 65.265C300.436 64.5 300.521 63.82 301.116 63.82H329.846C336.986 52.685 344.126 42.74 344.211 42.655ZM325.426 70.875C326.276 69.515 327.126 68.155 327.976 66.795L317.351 66.37C319.901 67.39 324.066 69.09 325.426 70.875ZM343.366 74.105C343.791 73.765 344.641 74.105 345.321 74.87C346.001 75.635 346.256 76.485 345.831 76.825C343.961 78.44 340.901 82.095 339.031 85.665C337.841 88.045 337.926 89.405 338.776 89.83C342.261 90.34 351.696 81.16 351.696 81.075C352.036 80.735 352.631 80.055 353.311 80.82C354.076 81.585 353.736 81.84 353.396 82.18C353.311 82.18 339.201 97.48 335.546 91.105C334.356 88.98 334.951 86.09 336.396 83.2C338.266 79.545 341.411 75.72 343.366 74.105ZM348.636 71.64C348.296 72.065 347.446 71.725 346.766 71.045C346.086 70.28 345.746 69.43 346.086 69.005L350.846 63.565C351.186 63.14 351.951 63.48 352.716 64.16C353.396 64.925 353.651 65.775 353.396 66.2L348.636 71.64ZM354.844 76.57C355.184 76.315 356.034 76.655 356.714 77.42C357.394 78.185 357.564 79.035 357.224 79.375C356.969 79.545 356.714 79.715 356.544 79.885C354.759 81.5 353.314 84.135 352.379 86.77C351.699 88.98 351.359 91.02 351.784 91.87C352.209 92.04 352.719 92.04 353.399 91.87C354.164 91.615 355.099 91.105 355.949 90.255C357.139 89.235 358.244 87.705 359.264 85.75C359.859 84.645 360.284 83.455 360.624 82.265C359.094 80.99 357.989 79.46 357.309 77.93C356.629 76.4 356.374 74.87 356.459 73.765C356.629 72.575 357.139 71.725 358.159 71.555C358.924 71.47 359.604 71.64 360.284 71.98C361.389 72.575 362.324 73.595 362.919 74.87C363.429 75.805 363.684 76.825 363.854 77.93C364.024 79.035 364.024 80.31 363.854 81.585C365.724 81.925 368.529 82.265 371.504 80.565C371.929 80.31 372.354 79.97 373.034 80.735C373.629 81.5 373.544 82.095 373.119 82.35C369.124 84.56 366.149 84.9 363.514 83.965C363.174 85.41 362.664 86.94 361.899 88.215C360.879 90.17 359.689 91.87 358.414 92.975C357.394 93.825 356.459 94.505 355.524 94.76C354.419 95.1 353.314 95.015 352.209 94.42C351.614 94.08 351.019 93.655 350.509 93.06C350.339 92.89 350.169 92.72 349.999 92.55C348.639 90.595 348.724 87.45 349.659 84.475C350.594 81.67 352.209 78.865 354.079 77.165C354.334 76.995 354.589 76.74 354.844 76.57ZM361.049 80.225C361.219 78.865 361.219 77.505 361.049 76.4C360.964 75.635 360.794 74.955 360.624 74.53C360.539 74.53 360.709 74.53 360.709 74.53C360.624 74.445 360.369 74.445 360.114 74.53C359.604 74.53 359.349 75.04 359.264 75.805C359.179 76.57 359.349 77.505 359.774 78.44C360.029 79.12 360.454 79.715 361.049 80.225ZM374.092 75.975C374.347 75.55 375.197 75.72 375.877 76.4C376.642 77.08 376.982 78.015 376.727 78.44L374.602 82.265C379.192 78.44 384.207 74.7 386.077 75.21H386.247C388.797 75.975 389.222 77.59 388.627 79.715C388.372 80.65 387.777 81.755 387.182 83.03C386.077 85.24 384.802 87.705 384.802 87.705C387.522 89.49 396.702 81.415 396.787 81.415C397.042 81.075 397.977 79.97 398.657 80.735C399.422 81.415 398.912 81.585 398.572 82.01C398.572 82.01 389.307 92.975 384.887 90.085C381.062 87.62 382.932 83.88 384.547 80.565C384.887 79.885 385.227 79.205 385.482 78.525C380.637 81.075 369.332 91.87 368.992 92.21C368.737 92.55 367.972 92.295 367.292 91.7C366.612 90.935 366.187 90.085 366.442 89.66L374.092 75.975ZM411.052 79.29C411.392 80.14 411.137 80.65 410.457 80.48C409.777 80.31 408.927 79.545 408.587 78.78C406.887 77.165 402.722 79.12 401.192 80.395C398.047 82.945 396.262 86.005 395.327 89.915C398.302 89.065 406.037 80.055 406.037 80.055C406.377 79.715 407.142 79.97 407.907 80.735C408.502 81.415 408.842 82.18 408.587 82.605C408.417 83.03 407.397 85.24 407.907 87.62C408.247 89.66 419.297 80.395 419.467 80.31C419.807 79.97 420.487 79.545 421.167 80.225C421.847 80.99 421.762 81.67 421.422 82.01C415.812 87.025 412.497 90 410.202 91.19C406.292 93.23 403.317 92.04 403.402 87.875C400.342 90.765 397.197 93.4 395.327 92.55C394.647 92.295 394.137 91.785 393.627 91.275C392.777 90.17 392.437 88.98 392.607 87.705C392.692 86.685 393.032 85.58 393.542 84.475C394.647 82.095 396.602 79.46 398.812 77.675C402.637 74.53 409.607 74.36 411.052 79.29ZM443.075 81.075C443.245 80.82 443.585 80.31 444.265 80.82C444.945 81.245 445.37 81.925 445.2 82.18C443.075 85.835 425.905 99.69 420.975 102.155C417.915 103.77 412.815 105.3 410.69 101.9C405.675 94.845 438.4 48.18 439.165 48.01C441.885 44.1 445.455 41.465 448.09 40.7C449.025 40.445 449.96 40.36 450.81 40.7C452.255 41.125 453.275 42.06 453.7 43.42C454.04 44.695 453.7 46.735 452.17 49.625C446.73 60.505 424.035 77.76 423.95 77.845C423.865 77.845 423.78 77.93 423.61 77.845C417.405 88.64 412.985 98.415 414.175 100.965C414.94 102.07 418.595 100.71 419.445 100.285C424.29 97.735 440.95 84.645 443.075 81.075ZM441.545 49.795C441.545 49.795 434.66 59.825 427.775 71.045C434.83 65.18 446.135 55.15 449.79 47.925C451.065 45.375 451.49 43.59 451.235 42.485C450.98 42.485 450.555 42.57 450.13 42.655C447.665 43.42 444.265 45.97 441.545 49.795ZM448.288 74.105C448.713 73.765 449.563 74.105 450.243 74.87C450.923 75.635 451.178 76.485 450.753 76.825C448.883 78.44 445.823 82.095 443.953 85.665C442.763 88.045 442.848 89.405 443.698 89.83C447.183 90.34 456.618 81.16 456.618 81.075C456.958 80.735 457.553 80.055 458.233 80.82C458.998 81.585 458.658 81.84 458.318 82.18C458.233 82.18 444.123 97.48 440.468 91.105C439.278 88.98 439.873 86.09 441.318 83.2C443.188 79.545 446.333 75.72 448.288 74.105ZM453.558 71.64C453.218 72.065 452.368 71.725 451.688 71.045C451.008 70.28 450.668 69.43 451.008 69.005L455.768 63.565C456.108 63.14 456.873 63.48 457.638 64.16C458.318 64.925 458.573 65.775 458.318 66.2L453.558 71.64ZM480.676 42.655C480.931 42.315 481.781 42.485 482.461 43.25C483.141 43.93 483.481 44.865 483.226 45.205C483.226 45.29 477.021 53.875 470.391 63.82H492.066C492.661 63.82 493.596 64.5 494.021 65.265C494.531 66.115 494.446 66.795 493.851 66.795H468.436C466.651 69.515 464.866 72.32 463.166 75.04V75.125C463.166 75.465 462.996 75.635 462.826 75.635C457.641 84.05 454.836 88.895 455.771 90.595C457.301 93.485 474.556 79.715 474.556 79.63C474.896 79.375 475.406 79.205 476.086 79.97C476.766 80.735 476.256 81.16 475.916 81.415C475.831 81.5 456.536 100.54 452.371 92.89C451.096 90.51 455.006 82.35 460.446 73.34C460.361 73.34 460.956 72.405 460.956 72.405C461.126 65.945 439.366 66.795 439.366 66.795C438.771 66.795 437.836 66.115 437.411 65.265C436.901 64.5 436.986 63.82 437.581 63.82H466.311C473.451 52.685 480.591 42.74 480.676 42.655ZM461.891 70.875C462.741 69.515 463.591 68.155 464.441 66.795L453.816 66.37C456.366 67.39 460.531 69.09 461.891 70.875ZM519.356 97.48C520.036 97.565 520.886 98.245 521.311 99.095C521.736 99.86 521.651 100.455 520.971 100.455C502.951 98.925 489.691 99.265 480.086 100.625C474.391 110.23 468.016 119.495 465.126 119.495C461.216 119.41 457.816 117.285 456.116 114.31C455.181 112.61 454.841 110.655 455.436 108.785C456.031 107.085 457.306 105.385 459.601 103.77C463.086 101.305 468.866 99.095 477.706 97.735C479.916 93.995 482.041 90.255 483.826 87.025C481.191 89.32 478.471 91.105 476.686 90.935C475.921 90.85 475.326 90.68 474.731 90.34C473.031 89.405 472.096 87.96 472.096 86.175C472.011 85.155 472.351 83.88 472.946 82.52C474.051 79.8 476.261 76.485 478.981 73.255C479.321 72.83 480.171 73.17 480.851 73.85C481.531 74.615 481.871 75.465 481.531 75.89C478.811 79.035 476.686 82.265 475.581 84.9C475.411 85.24 475.241 87.11 475.751 87.45C481.616 88.725 491.646 74.275 490.966 73.765V73.85C491.306 73.425 491.986 73.68 492.751 74.36C493.431 75.04 493.856 75.89 493.601 76.315L491.731 79.63L491.646 79.715C491.646 79.8 487.311 88.13 482.126 97.225C491.391 96.205 503.631 96.12 519.356 97.48ZM475.581 101.39C469.206 102.75 464.786 104.535 461.981 106.575C459.856 108.02 458.666 109.635 458.156 111.08C457.731 112.44 457.901 113.545 458.326 114.395C459.091 115.585 460.961 116.435 463.341 116.52C465.636 116.52 470.651 109.55 475.581 101.39Z" fill="white"/>
</svg>
