<svg width="781" height="296" viewBox="0 0 781 296" fill="none" xmlns="http://www.w3.org/2000/svg">
<path d="M132.133 112.58C132.133 115.007 131.281 116.955 129.578 118.425C127.968 119.825 125.961 120.525 123.558 120.525C122.554 120.525 121.493 120.35 120.373 120C119.276 119.65 118.413 119.148 117.783 118.495C117.923 118.028 118.051 117.515 118.168 116.955C118.284 116.372 118.378 115.847 118.448 115.38H118.798C119.521 116.593 120.326 117.503 121.213 118.11C122.123 118.717 123.196 119.02 124.433 119.02C125.856 119.02 127.023 118.53 127.933 117.55C128.866 116.547 129.333 115.357 129.333 113.98C129.333 112.93 129.088 112.09 128.598 111.46C128.131 110.807 127.396 110.235 126.393 109.745C125.973 109.535 125.284 109.243 124.328 108.87C123.394 108.497 122.648 108.17 122.088 107.89C121.014 107.353 120.198 106.758 119.638 106.105C118.798 105.125 118.378 103.865 118.378 102.325C118.378 100.132 119.183 98.4283 120.793 97.215C122.193 96.165 123.954 95.64 126.078 95.64C127.104 95.64 128.061 95.8033 128.948 96.13C129.858 96.4333 130.593 96.83 131.153 97.32C130.989 97.67 130.826 98.125 130.663 98.685C130.429 99.4317 130.278 99.9333 130.208 100.19H129.858C129.508 99.28 128.994 98.5683 128.318 98.055C127.548 97.4483 126.614 97.145 125.518 97.145C124.234 97.145 123.173 97.5417 122.333 98.335C121.516 99.105 121.108 100.05 121.108 101.17C121.108 102.22 121.353 103.072 121.843 103.725C122.333 104.355 123.103 104.938 124.153 105.475C125.646 106.128 127.151 106.77 128.668 107.4C129.788 107.96 130.604 108.578 131.118 109.255C131.794 110.142 132.133 111.25 132.133 112.58ZM157.468 98.265C156.091 98.125 154.936 98.02 154.003 97.95C153.093 97.88 151.809 97.845 150.153 97.845V120.175L148.613 120.07L147.073 120.175V97.845C145.439 97.845 144.086 97.88 143.013 97.95C141.939 98.02 140.738 98.125 139.408 98.265L139.513 97.215L139.408 96.165H157.468L157.363 97.215L157.468 98.265ZM178.906 120H166.271V96.165H178.696L178.591 97.18L178.696 98.265C177.879 98.125 176.957 98.02 175.931 97.95C174.927 97.8567 173.504 97.81 171.661 97.81H169.351V106.595H174.916C175.312 106.595 175.872 106.572 176.596 106.525C177.342 106.455 177.774 106.42 177.891 106.42L177.786 107.33L177.891 108.31C177.494 108.31 176.911 108.287 176.141 108.24C175.394 108.17 174.927 108.135 174.741 108.135H169.351V118.355C173.924 118.355 177.109 118.203 178.906 117.9L178.801 118.915L178.906 120ZM203.716 101.905C203.716 102.955 203.564 103.853 203.261 104.6C202.981 105.323 202.572 105.953 202.036 106.49C201.196 107.33 200.017 107.995 198.501 108.485C197.007 108.975 195.584 109.22 194.231 109.22L191.501 109.115V120.105L189.926 120L188.421 120.105V96.165H194.686C197.906 96.165 200.169 96.5383 201.476 97.285C202.969 98.1483 203.716 99.6883 203.716 101.905ZM200.496 102.115C200.496 100.668 200.111 99.56 199.341 98.79C198.781 98.23 198.127 97.8683 197.381 97.705C196.634 97.5417 195.491 97.46 193.951 97.46L191.501 97.53V107.75L193.321 107.82C194.581 107.82 195.666 107.692 196.576 107.435C197.486 107.178 198.256 106.735 198.886 106.105C199.399 105.592 199.796 105.008 200.076 104.355C200.356 103.702 200.496 102.955 200.496 102.115ZM231.25 120.105L229.71 120L228.17 120.105V96.165L229.71 96.27L231.25 96.165V120.105ZM263.386 120.105H262.336C262.056 119.755 261.695 119.323 261.251 118.81C260.691 118.157 260.248 117.655 259.921 117.305L245.396 101.24H245.046V120.105L244.066 120L243.086 120.105V96.165H244.451L261.076 114.19H261.426V96.165L262.441 96.27L263.386 96.165V120.105ZM290.588 98.265C289.211 98.125 288.056 98.02 287.123 97.95C286.213 97.88 284.929 97.845 283.273 97.845V120.175L281.733 120.07L280.193 120.175V97.845C278.559 97.845 277.206 97.88 276.133 97.95C275.059 98.02 273.858 98.125 272.528 98.265L272.633 97.215L272.528 96.165H290.588L290.483 97.215L290.588 98.265ZM323.961 107.61C323.961 109.593 323.646 111.343 323.016 112.86C322.409 114.353 321.499 115.707 320.286 116.92C319.096 118.11 317.638 119.008 315.911 119.615C314.208 120.222 312.458 120.525 310.661 120.525C308.818 120.525 307.079 120.245 305.446 119.685C303.813 119.125 302.424 118.273 301.281 117.13C300.138 115.987 299.263 114.68 298.656 113.21C298.049 111.717 297.746 110.025 297.746 108.135C297.746 104.565 298.866 101.66 301.106 99.42C302.319 98.2067 303.708 97.2733 305.271 96.62C306.858 95.9667 308.666 95.64 310.696 95.64C312.749 95.64 314.628 95.9433 316.331 96.55C318.034 97.1567 319.563 98.1367 320.916 99.49C321.779 100.353 322.479 101.427 323.016 102.71C323.646 104.227 323.961 105.86 323.961 107.61ZM320.531 108.415C320.531 106.735 320.438 105.428 320.251 104.495C320.088 103.562 319.784 102.652 319.341 101.765C318.594 100.295 317.533 99.1167 316.156 98.23C314.639 97.2733 312.959 96.795 311.116 96.795C309.693 96.795 308.421 97.0167 307.301 97.46C306.181 97.9033 305.248 98.4983 304.501 99.245C303.381 100.365 302.541 101.707 301.981 103.27C301.444 104.833 301.176 106.595 301.176 108.555C301.176 110.352 301.433 111.938 301.946 113.315C302.459 114.668 303.229 115.858 304.256 116.885C305.049 117.655 306.006 118.262 307.126 118.705C308.246 119.148 309.459 119.37 310.766 119.37C313.263 119.37 315.363 118.518 317.066 116.815C318.069 115.812 318.898 114.552 319.551 113.035C320.204 111.518 320.531 109.978 320.531 108.415ZM363.932 98.265C362.556 98.125 361.401 98.02 360.467 97.95C359.557 97.88 358.274 97.845 356.617 97.845V120.175L355.077 120.07L353.537 120.175V97.845C351.904 97.845 350.551 97.88 349.477 97.95C348.404 98.02 347.202 98.125 345.872 98.265L345.977 97.215L345.872 96.165H363.932L363.827 97.215L363.932 98.265ZM393.666 120.105L392.126 120L390.586 120.105V108.065C389.839 108.065 388.497 108.042 386.561 107.995C384.647 107.925 383.527 107.89 383.201 107.89C382.197 107.89 381.007 107.913 379.631 107.96C378.277 108.007 377.017 108.042 375.851 108.065V120.105L374.311 120L372.771 120.105V96.165L374.311 96.27L375.851 96.165V106.21C376.644 106.21 378.021 106.245 379.981 106.315C381.941 106.362 383.014 106.385 383.201 106.385C384.227 106.385 385.417 106.373 386.771 106.35C388.147 106.303 389.419 106.257 390.586 106.21V96.165L392.126 96.27L393.666 96.165V120.105ZM417.612 120H404.977V96.165H417.402L417.297 97.18L417.402 98.265C416.585 98.125 415.663 98.02 414.637 97.95C413.633 97.8567 412.21 97.81 410.367 97.81H408.057V106.595H413.622C414.018 106.595 414.578 106.572 415.302 106.525C416.048 106.455 416.48 106.42 416.597 106.42L416.492 107.33L416.597 108.31C416.2 108.31 415.617 108.287 414.847 108.24C414.1 108.17 413.633 108.135 413.447 108.135H408.057V118.355C412.63 118.355 415.815 118.203 417.612 117.9L417.507 118.915L417.612 120ZM473.683 96.165C473.216 97.2383 472.855 98.1133 472.598 98.79C472.341 99.4667 472.05 100.283 471.723 101.24L465.248 120.105L464.128 120L462.938 120.105L456.603 100.47H456.323L449.533 120.105L448.343 120L447.188 120.105L445.858 115.695L439.523 96.165L441.133 96.27L442.778 96.165C442.965 96.8183 443.35 98.1717 443.933 100.225C444.446 102.092 445.088 104.297 445.858 106.84C446.068 107.54 446.383 108.555 446.803 109.885C447.48 112.008 448.156 114.12 448.833 116.22H449.148C449.918 114.027 450.688 111.822 451.458 109.605C451.995 108.042 452.531 106.467 453.068 104.88C453.838 102.617 454.445 100.832 454.888 99.525L455.938 96.165L456.953 96.27L457.933 96.165L458.878 99.21L464.583 116.22H464.898C465.248 115.31 465.575 114.412 465.878 113.525C466.111 112.825 466.415 111.868 466.788 110.655C468.258 105.825 469.74 100.995 471.233 96.165L472.458 96.27L473.683 96.165ZM506.788 107.61C506.788 109.593 506.473 111.343 505.843 112.86C505.236 114.353 504.326 115.707 503.113 116.92C501.923 118.11 500.465 119.008 498.738 119.615C497.035 120.222 495.285 120.525 493.488 120.525C491.645 120.525 489.906 120.245 488.273 119.685C486.64 119.125 485.251 118.273 484.108 117.13C482.965 115.987 482.09 114.68 481.483 113.21C480.876 111.717 480.573 110.025 480.573 108.135C480.573 104.565 481.693 101.66 483.933 99.42C485.146 98.2067 486.535 97.2733 488.098 96.62C489.685 95.9667 491.493 95.64 493.523 95.64C495.576 95.64 497.455 95.9433 499.158 96.55C500.861 97.1567 502.39 98.1367 503.743 99.49C504.606 100.353 505.306 101.427 505.843 102.71C506.473 104.227 506.788 105.86 506.788 107.61ZM503.358 108.415C503.358 106.735 503.265 105.428 503.078 104.495C502.915 103.562 502.611 102.652 502.168 101.765C501.421 100.295 500.36 99.1167 498.983 98.23C497.466 97.2733 495.786 96.795 493.943 96.795C492.52 96.795 491.248 97.0167 490.128 97.46C489.008 97.9033 488.075 98.4983 487.328 99.245C486.208 100.365 485.368 101.707 484.808 103.27C484.271 104.833 484.003 106.595 484.003 108.555C484.003 110.352 484.26 111.938 484.773 113.315C485.286 114.668 486.056 115.858 487.083 116.885C487.876 117.655 488.833 118.262 489.953 118.705C491.073 119.148 492.286 119.37 493.593 119.37C496.09 119.37 498.19 118.518 499.893 116.815C500.896 115.812 501.725 114.552 502.378 113.035C503.031 111.518 503.358 109.978 503.358 108.415ZM533.978 120.105L531.948 120L529.953 120.105C529.16 118.985 528.46 118.017 527.853 117.2C527.457 116.663 526.71 115.695 525.613 114.295C524.54 112.895 523.782 111.927 523.338 111.39C522.568 110.433 521.728 109.442 520.818 108.415H519.488V120.105L517.983 120L516.408 120.105V96.165H524.003C526.36 96.165 528.168 96.5383 529.428 97.285C530.875 98.1483 531.598 99.5133 531.598 101.38C531.598 103.573 530.653 105.288 528.763 106.525C527.597 107.295 526.15 107.832 524.423 108.135L530.723 116.115C530.933 116.395 531.622 117.235 532.788 118.635C533.372 119.358 533.768 119.848 533.978 120.105ZM528.483 101.905C528.483 100.552 528.145 99.5367 527.468 98.86C526.932 98.3233 526.29 97.9383 525.543 97.705C524.797 97.4717 523.805 97.355 522.568 97.355L519.488 97.46V107.085L521.413 107.12C522.813 107.12 523.933 107.003 524.773 106.77C525.613 106.513 526.383 106.035 527.083 105.335C528.017 104.402 528.483 103.258 528.483 101.905ZM555.51 120H542.77V96.165L544.31 96.27L545.85 96.165V118.355C548.113 118.355 549.98 118.32 551.45 118.25C552.92 118.18 554.273 118.063 555.51 117.9L555.405 118.95L555.51 120ZM587.46 107.085C587.46 109.208 587.11 111.098 586.41 112.755C585.803 114.202 584.881 115.543 583.645 116.78C582.431 117.993 581.043 118.833 579.48 119.3C577.94 119.767 575.828 120 573.145 120H565.655V96.165H574.055L575.98 96.13C577.986 96.13 579.62 96.3283 580.88 96.725C582.163 97.0983 583.353 97.8333 584.45 98.93C585.383 99.8633 586.118 101.018 586.655 102.395C587.191 103.748 587.46 105.312 587.46 107.085ZM584.03 107.575C584.03 103.982 583.295 101.45 581.825 99.98C580.915 99.07 579.76 98.4167 578.36 98.02C576.96 97.6233 575.163 97.425 572.97 97.425L568.735 97.565V118.425C569.435 118.425 570.31 118.46 571.36 118.53C572.41 118.577 573.156 118.6 573.6 118.6C575.466 118.6 576.983 118.39 578.15 117.97C579.316 117.527 580.296 116.908 581.09 116.115C582.14 115.065 582.91 113.758 583.4 112.195C583.82 110.842 584.03 109.302 584.03 107.575ZM636.822 107.61C636.822 109.593 636.507 111.343 635.877 112.86C635.271 114.353 634.361 115.707 633.147 116.92C631.957 118.11 630.499 119.008 628.772 119.615C627.069 120.222 625.319 120.525 623.522 120.525C621.679 120.525 619.941 120.245 618.307 119.685C616.674 119.125 615.286 118.273 614.142 117.13C612.999 115.987 612.124 114.68 611.517 113.21C610.911 111.717 610.607 110.025 610.607 108.135C610.607 104.565 611.727 101.66 613.967 99.42C615.181 98.2067 616.569 97.2733 618.132 96.62C619.719 95.9667 621.527 95.64 623.557 95.64C625.611 95.64 627.489 95.9433 629.192 96.55C630.896 97.1567 632.424 98.1367 633.777 99.49C634.641 100.353 635.341 101.427 635.877 102.71C636.507 104.227 636.822 105.86 636.822 107.61ZM633.392 108.415C633.392 106.735 633.299 105.428 633.112 104.495C632.949 103.562 632.646 102.652 632.202 101.765C631.456 100.295 630.394 99.1167 629.017 98.23C627.501 97.2733 625.821 96.795 623.977 96.795C622.554 96.795 621.282 97.0167 620.162 97.46C619.042 97.9033 618.109 98.4983 617.362 99.245C616.242 100.365 615.402 101.707 614.842 103.27C614.306 104.833 614.037 106.595 614.037 108.555C614.037 110.352 614.294 111.938 614.807 113.315C615.321 114.668 616.091 115.858 617.117 116.885C617.911 117.655 618.867 118.262 619.987 118.705C621.107 119.148 622.321 119.37 623.627 119.37C626.124 119.37 628.224 118.518 629.927 116.815C630.931 115.812 631.759 114.552 632.412 113.035C633.066 111.518 633.392 109.978 633.392 108.415ZM658.832 98.265C657.922 98.0783 656.931 97.9617 655.857 97.915C654.807 97.845 653.454 97.81 651.797 97.81H649.487V106.595H655.157L658.027 106.42L657.922 107.33L658.027 108.31L654.947 108.135H649.487V120.105L647.912 120L646.407 120.105V96.165H658.832L658.727 97.215L658.832 98.265Z" fill="white"/>
<path d="M94.7417 217.53C96.6737 216.978 98.7437 216.15 100.952 215.184C103.85 213.666 106.334 210.768 107.852 208.146C108.128 207.594 108.266 207.18 108.542 206.628C107.024 207.318 105.23 208.422 103.16 209.94C100.4 212.01 97.2257 214.632 94.7417 217.53ZM104.54 219.738C98.0537 223.05 90.7397 223.878 90.3257 223.878C80.9417 244.026 118.202 226.914 122.48 219.186C122.894 218.358 124.274 217.392 125.516 218.496C126.62 219.6 126.62 220.152 126.206 220.98C122.342 227.742 100.814 242.646 91.2917 237.264C86.5997 234.642 83.7017 229.122 84.8057 223.74C85.4957 220.29 87.5657 216.702 90.3257 213.528C93.0857 210.492 96.2597 207.594 99.2957 205.386C103.298 202.626 107.024 200.97 108.542 201.246C109.784 201.522 110.888 202.212 111.854 203.316C113.234 204.834 113.786 206.628 113.51 208.284C113.372 209.526 112.82 210.768 112.13 212.148C110.612 215.046 107.852 218.082 104.54 219.738ZM161.701 218.91C161.977 218.496 162.529 217.668 163.633 218.496C164.737 219.186 165.427 220.29 165.151 220.704C161.701 226.638 133.825 249.132 125.821 253.134C120.853 255.756 112.573 258.24 109.123 252.72C100.981 241.266 154.111 165.504 155.353 165.228C159.769 158.88 165.565 154.602 169.843 153.36C171.361 152.946 172.879 152.808 174.259 153.36C176.605 154.05 178.261 155.568 178.951 157.776C179.503 159.846 178.951 163.158 176.467 167.85C167.635 185.514 130.789 213.528 130.651 213.666C130.513 213.666 130.375 213.804 130.099 213.666C120.025 231.192 112.849 247.062 114.781 251.202C116.023 252.996 121.957 250.788 123.337 250.098C131.203 245.958 158.251 224.706 161.701 218.91ZM159.217 168.126C159.217 168.126 148.039 184.41 136.861 202.626C148.315 193.104 166.669 176.82 172.603 165.09C174.673 160.95 175.363 158.052 174.949 156.258C174.535 156.258 173.845 156.396 173.155 156.534C169.153 157.776 163.633 161.916 159.217 168.126ZM166.437 217.53C168.369 216.978 170.439 216.15 172.647 215.184C175.545 213.666 178.029 210.768 179.547 208.146C179.823 207.594 179.961 207.18 180.237 206.628C178.719 207.318 176.925 208.422 174.855 209.94C172.095 212.01 168.921 214.632 166.437 217.53ZM176.235 219.738C169.749 223.05 162.435 223.878 162.021 223.878C152.637 244.026 189.897 226.914 194.175 219.186C194.589 218.358 195.969 217.392 197.211 218.496C198.315 219.6 198.315 220.152 197.901 220.98C194.037 227.742 172.509 242.646 162.987 237.264C158.295 234.642 155.397 229.122 156.501 223.74C157.191 220.29 159.261 216.702 162.021 213.528C164.781 210.492 167.955 207.594 170.991 205.386C174.993 202.626 178.719 200.97 180.237 201.246C181.479 201.522 182.583 202.212 183.549 203.316C184.929 204.834 185.481 206.628 185.205 208.284C185.067 209.526 184.515 210.768 183.825 212.148C182.307 215.046 179.547 218.082 176.235 219.738ZM193.652 220.152L193.376 219.876C192.272 218.634 191.996 217.254 192.548 216.84L199.862 209.664C200.414 209.112 202.898 210.354 204.002 211.596C204.968 212.7 205.382 213.942 204.968 214.494C204.83 214.632 195.584 227.466 192.824 234.228C191.996 236.16 193.928 235.608 195.308 234.228C201.656 229.674 210.764 219.876 218.63 209.388L219.458 208.146C220.01 207.456 220.7 207.456 221.804 208.698C223.046 209.802 224.426 212.286 223.874 212.838C223.874 212.976 218.354 220.014 218.354 222.912C218.354 223.05 222.908 222.36 227.324 218.772C227.876 218.358 229.532 216.702 230.636 217.944C231.74 219.186 231.74 220.014 231.188 220.566C231.188 220.566 217.94 232.158 213.8 223.602L213.662 223.326C208.556 228.846 203.588 233.4 199.586 236.16C197.516 237.678 195.722 238.782 194.342 239.334C192.134 240.024 190.064 239.61 188.408 237.678C187.718 236.85 187.304 236.022 187.166 235.056C186.476 232.02 190.064 225.672 193.652 220.152ZM251.484 216.012C252.036 217.392 251.622 218.22 250.518 217.944C249.414 217.668 248.034 216.426 247.482 215.184C244.722 212.562 237.96 215.736 235.476 217.806C230.37 221.946 227.472 226.914 225.954 233.262C230.784 231.882 243.342 217.254 243.342 217.254C243.894 216.702 245.136 217.116 246.378 218.358C247.344 219.462 247.896 220.704 247.482 221.394C247.206 222.084 245.55 225.672 246.378 229.536C246.93 232.848 264.87 217.806 265.146 217.668C265.698 217.116 266.802 216.426 267.906 217.53C269.01 218.772 268.872 219.876 268.32 220.428C259.212 228.57 253.83 233.4 250.104 235.332C243.756 238.644 238.926 236.712 239.064 229.95C234.096 234.642 228.99 238.92 225.954 237.54C224.85 237.126 224.022 236.298 223.194 235.47C221.814 233.676 221.262 231.744 221.538 229.674C221.676 228.018 222.228 226.224 223.056 224.43C224.85 220.566 228.024 216.288 231.612 213.39C237.822 208.284 249.138 208.008 251.484 216.012ZM303.336 156.534C303.75 155.982 305.13 156.258 306.234 157.5C307.338 158.604 307.89 160.122 307.476 160.674C307.476 160.812 297.402 174.75 286.638 190.896H321.828C322.794 190.896 324.312 192 325.002 193.242C325.83 194.622 325.692 195.726 324.726 195.726H283.464C280.566 200.142 277.668 204.696 274.908 209.112V209.25C274.908 209.802 274.632 210.078 274.356 210.078C265.938 223.74 261.384 231.606 262.902 234.366C265.386 239.058 293.4 216.702 293.4 216.564C293.952 216.15 294.78 215.874 295.884 217.116C296.988 218.358 296.16 219.048 295.608 219.462C295.47 219.6 264.144 250.512 257.382 238.092C255.312 234.228 261.66 220.98 270.492 206.352C270.354 206.352 271.32 204.834 271.32 204.834C271.596 194.346 236.268 195.726 236.268 195.726C235.302 195.726 233.784 194.622 233.094 193.242C232.266 192 232.404 190.896 233.37 190.896H280.014C291.606 172.818 303.198 156.672 303.336 156.534ZM272.838 202.35C274.218 200.142 275.598 197.934 276.978 195.726L259.728 195.036C263.868 196.692 270.63 199.452 272.838 202.35ZM298.238 217.53C300.17 216.978 302.24 216.15 304.448 215.184C307.346 213.666 309.83 210.768 311.348 208.146C311.624 207.594 311.762 207.18 312.038 206.628C310.52 207.318 308.726 208.422 306.656 209.94C303.896 212.01 300.722 214.632 298.238 217.53ZM308.036 219.738C301.55 223.05 294.236 223.878 293.822 223.878C284.438 244.026 321.698 226.914 325.976 219.186C326.39 218.358 327.77 217.392 329.012 218.496C330.116 219.6 330.116 220.152 329.702 220.98C325.838 227.742 304.31 242.646 294.788 237.264C290.096 234.642 287.198 229.122 288.302 223.74C288.992 220.29 291.062 216.702 293.822 213.528C296.582 210.492 299.756 207.594 302.792 205.386C306.794 202.626 310.52 200.97 312.038 201.246C313.28 201.522 314.384 202.212 315.35 203.316C316.73 204.834 317.282 206.628 317.006 208.284C316.868 209.526 316.316 210.768 315.626 212.148C314.108 215.046 311.348 218.082 308.036 219.738ZM346.705 224.154C346.567 224.844 345.739 224.982 344.773 224.43L344.635 224.706C339.667 228.984 335.251 232.434 331.801 234.642C327.109 237.54 319.243 238.23 319.657 230.364C319.795 228.294 320.761 225.672 322.279 223.05C325.039 218.496 330.973 210.906 336.769 211.182C342.151 211.044 343.807 213.804 345.187 215.874C350.293 211.044 355.537 205.386 360.505 199.452C371.821 185.928 379.549 174.75 383.275 168.954L386.173 164.538C386.587 163.848 387.829 164.124 389.071 165.366C390.175 166.47 390.865 167.85 390.451 168.678C390.451 168.678 389.347 170.472 387.139 173.784C373.615 195.036 322.417 275.766 324.349 280.32C324.901 281.7 324.349 282.39 323.245 282.114C322.141 281.838 320.761 280.596 320.347 279.216C318.691 275.352 337.045 243.888 354.709 214.77C352.087 217.53 349.465 220.152 346.843 222.498C346.843 223.464 346.705 224.016 346.705 224.154ZM342.151 218.772C341.875 217.806 341.185 216.702 339.391 216.702C334.423 216.426 328.903 223.188 326.557 227.052C325.453 228.984 324.625 230.778 324.349 232.158C325.177 231.744 326.419 231.054 327.937 230.088C331.387 228.018 335.803 224.568 340.633 220.29L342.151 218.772ZM453.064 218.91C453.34 218.496 453.892 217.668 454.996 218.496C456.1 219.186 456.79 220.29 456.514 220.704C453.064 226.638 425.188 249.132 417.184 253.134C412.216 255.756 403.936 258.24 400.486 252.72C392.344 241.266 445.474 165.504 446.716 165.228C451.132 158.88 456.928 154.602 461.206 153.36C462.724 152.946 464.242 152.808 465.622 153.36C467.968 154.05 469.624 155.568 470.314 157.776C470.866 159.846 470.314 163.158 467.83 167.85C458.998 185.514 422.152 213.528 422.014 213.666C421.876 213.666 421.738 213.804 421.462 213.666C411.388 231.192 404.212 247.062 406.144 251.202C407.386 252.996 413.32 250.788 414.7 250.098C422.566 245.958 449.614 224.706 453.064 218.91ZM450.58 168.126C450.58 168.126 439.402 184.41 428.224 202.626C439.678 193.104 458.032 176.82 463.966 165.09C466.036 160.95 466.726 158.052 466.312 156.258C465.898 156.258 465.208 156.396 464.518 156.534C460.516 157.776 454.996 161.916 450.58 168.126ZM461.526 207.594C462.216 207.042 463.596 207.594 464.7 208.836C465.804 210.078 466.218 211.458 465.528 212.01C462.492 214.632 457.524 220.566 454.488 226.362C452.556 230.226 452.694 232.434 454.074 233.124C459.732 233.952 475.05 219.048 475.05 218.91C475.602 218.358 476.568 217.254 477.672 218.496C478.914 219.738 478.362 220.152 477.81 220.704C477.672 220.704 454.764 245.544 448.83 235.194C446.898 231.744 447.864 227.052 450.21 222.36C453.246 216.426 458.352 210.216 461.526 207.594ZM470.082 203.592C469.53 204.282 468.15 203.73 467.046 202.626C465.942 201.384 465.39 200.004 465.942 199.314L473.67 190.482C474.222 189.792 475.464 190.344 476.706 191.448C477.81 192.69 478.224 194.07 477.81 194.76L470.082 203.592ZM489.96 196.14C489.546 195.864 489.132 195.312 488.856 194.898C488.028 193.656 488.166 192.552 489.132 192.414C490.512 192.414 494.238 188.688 497.964 183.996L499.068 182.892C501.414 179.166 503.484 175.992 505.002 173.508C506.658 170.748 507.9 168.816 508.866 167.85C509.004 167.298 509.418 167.16 510.108 167.298H510.246C513.006 168.126 513.972 169.644 513.282 172.128C512.73 174.198 508.038 181.098 503.208 187.032C500.586 191.034 497.412 195.588 493.962 200.418C489.822 206.214 483.474 215.46 476.712 225.258C482.508 225.396 492.168 225.81 501.966 218.496C502.518 218.082 503.208 216.978 504.174 218.22C505.278 219.462 505.692 220.842 505.002 221.256C491.478 231.33 479.334 230.502 473.952 229.398L472.986 230.64C473.262 233.952 473.124 239.61 471.192 248.166C469.812 254.652 466.776 259.482 463.326 263.07C458.634 267.9 453.114 270.246 450.078 269.97L449.94 269.832C449.664 269.832 449.526 269.832 449.25 269.694L448.974 269.556C445.8 268.038 445.524 265.002 447.318 261.138C448.56 258.654 450.492 255.204 452.838 251.202C456.978 244.302 462.636 235.608 468.432 227.052C468.294 226.086 468.156 225.672 468.156 225.672C467.742 224.43 468.294 223.602 469.398 224.016H469.536C469.536 224.016 469.812 224.154 470.364 224.292C477.816 213.252 485.268 202.764 489.822 196.278L489.96 196.14ZM468.018 238.23C463.878 244.44 460.152 250.374 457.116 255.342C455.046 258.654 453.39 261.69 452.286 263.898C454.494 262.932 456.978 261.138 459.324 258.792C462.498 255.342 465.396 250.788 466.776 244.716C467.328 242.232 467.742 240.162 468.018 238.23ZM507.259 217.53C509.191 216.978 511.261 216.15 513.469 215.184C516.367 213.666 518.851 210.768 520.369 208.146C520.645 207.594 520.783 207.18 521.059 206.628C519.541 207.318 517.747 208.422 515.677 209.94C512.917 212.01 509.743 214.632 507.259 217.53ZM517.057 219.738C510.571 223.05 503.257 223.878 502.843 223.878C493.459 244.026 530.719 226.914 534.997 219.186C535.411 218.358 536.791 217.392 538.033 218.496C539.137 219.6 539.137 220.152 538.723 220.98C534.859 227.742 513.331 242.646 503.809 237.264C499.117 234.642 496.219 229.122 497.323 223.74C498.013 220.29 500.083 216.702 502.843 213.528C505.603 210.492 508.777 207.594 511.813 205.386C515.815 202.626 519.541 200.97 521.059 201.246C522.301 201.522 523.405 202.212 524.371 203.316C525.751 204.834 526.303 206.628 526.027 208.284C525.889 209.526 525.337 210.768 524.647 212.148C523.129 215.046 520.369 218.082 517.057 219.738ZM535.716 223.05C535.164 223.602 533.508 224.43 532.404 223.326C531.3 222.084 534.198 219.6 534.75 219.048L545.1 206.49C546.894 204.558 548.274 203.454 548.274 203.454C548.826 202.902 550.206 203.454 551.172 204.696C552.276 205.8 552.828 207.318 552.276 207.87L548.964 211.044C546.066 214.356 542.202 220.29 543.72 226.638C544.548 230.64 544.134 233.814 543.03 236.16C542.34 237.402 541.374 238.368 540.408 239.196C539.442 239.886 538.338 240.438 537.234 240.714C535.302 241.128 533.37 240.852 531.852 240.024C523.986 236.022 528.264 228.294 528.264 228.156C528.678 227.466 529.92 227.742 531.162 228.846C532.404 229.95 532.956 231.468 532.68 232.158C532.68 232.296 530.748 235.746 531.024 235.884C531.576 236.16 532.68 236.16 533.784 235.884C534.75 235.746 535.716 235.332 536.544 234.642C537.372 234.09 538.2 233.124 538.614 232.158C539.58 230.226 539.994 227.742 539.304 224.568C539.304 222.774 538.062 222.636 541.374 216.564L535.716 223.05ZM596.182 156.534C596.596 155.982 597.976 156.258 599.08 157.5C600.184 158.604 600.736 160.122 600.322 160.674C600.322 160.812 590.248 174.75 579.484 190.896H614.674C615.64 190.896 617.158 192 617.848 193.242C618.676 194.622 618.538 195.726 617.572 195.726H576.31C573.412 200.142 570.514 204.696 567.754 209.112V209.25C567.754 209.802 567.478 210.078 567.202 210.078C558.784 223.74 554.23 231.606 555.748 234.366C558.232 239.058 586.246 216.702 586.246 216.564C586.798 216.15 587.626 215.874 588.73 217.116C589.834 218.358 589.006 219.048 588.454 219.462C588.316 219.6 556.99 250.512 550.228 238.092C548.158 234.228 554.506 220.98 563.338 206.352C563.2 206.352 564.166 204.834 564.166 204.834C564.442 194.346 529.114 195.726 529.114 195.726C528.148 195.726 526.63 194.622 525.94 193.242C525.112 192 525.25 190.896 526.216 190.896H572.86C584.452 172.818 596.044 156.672 596.182 156.534ZM565.684 202.35C567.064 200.142 568.444 197.934 569.824 195.726L552.574 195.036C556.714 196.692 563.476 199.452 565.684 202.35ZM658.98 245.544C660.084 245.682 661.464 246.786 662.154 248.166C662.844 249.408 662.706 250.374 661.602 250.374C632.346 247.89 610.818 248.442 595.224 250.65C585.978 266.244 575.628 281.286 570.936 281.286C564.588 281.148 559.068 277.698 556.308 272.868C554.79 270.108 554.238 266.934 555.204 263.898C556.17 261.138 558.24 258.378 561.966 255.756C567.624 251.754 577.008 248.166 591.36 245.958C594.948 239.886 598.398 233.814 601.296 228.57C597.018 232.296 592.602 235.194 589.704 234.918C588.462 234.78 587.496 234.504 586.53 233.952C583.77 232.434 582.252 230.088 582.252 227.19C582.114 225.534 582.666 223.464 583.632 221.256C585.426 216.84 589.014 211.458 593.43 206.214C593.982 205.524 595.362 206.076 596.466 207.18C597.57 208.422 598.122 209.802 597.57 210.492C593.154 215.598 589.704 220.842 587.91 225.12C587.634 225.672 587.358 228.708 588.186 229.26C597.708 231.33 613.992 207.87 612.888 207.042V207.18C613.44 206.49 614.544 206.904 615.786 208.008C616.89 209.112 617.58 210.492 617.166 211.182L614.13 216.564L613.992 216.702C613.992 216.84 606.954 230.364 598.536 245.13C613.578 243.474 633.45 243.336 658.98 245.544ZM587.91 251.892C577.56 254.1 570.384 256.998 565.83 260.31C562.38 262.656 560.448 265.278 559.62 267.624C558.93 269.832 559.206 271.626 559.896 273.006C561.138 274.938 564.174 276.318 568.038 276.456C571.764 276.456 579.906 265.14 587.91 251.892ZM658.447 218.91C658.723 218.496 659.275 217.668 660.379 218.496C661.483 219.186 662.173 220.29 661.897 220.704C658.447 226.638 630.571 249.132 622.567 253.134C617.599 255.756 609.319 258.24 605.869 252.72C597.727 241.266 650.857 165.504 652.099 165.228C656.515 158.88 662.311 154.602 666.589 153.36C668.107 152.946 669.625 152.808 671.005 153.36C673.351 154.05 675.007 155.568 675.697 157.776C676.249 159.846 675.697 163.158 673.213 167.85C664.381 185.514 627.535 213.528 627.397 213.666C627.259 213.666 627.121 213.804 626.845 213.666C616.771 231.192 609.595 247.062 611.527 251.202C612.769 252.996 618.703 250.788 620.083 250.098C627.949 245.958 654.997 224.706 658.447 218.91ZM655.963 168.126C655.963 168.126 644.785 184.41 633.607 202.626C645.061 193.104 663.415 176.82 669.349 165.09C671.419 160.95 672.109 158.052 671.695 156.258C671.281 156.258 670.591 156.396 669.901 156.534C665.899 157.776 660.379 161.916 655.963 168.126ZM663.183 217.53C665.115 216.978 667.185 216.15 669.393 215.184C672.291 213.666 674.775 210.768 676.293 208.146C676.569 207.594 676.707 207.18 676.983 206.628C675.465 207.318 673.671 208.422 671.601 209.94C668.841 212.01 665.667 214.632 663.183 217.53ZM672.981 219.738C666.495 223.05 659.181 223.878 658.767 223.878C649.383 244.026 686.643 226.914 690.921 219.186C691.335 218.358 692.715 217.392 693.957 218.496C695.061 219.6 695.061 220.152 694.647 220.98C690.783 227.742 669.255 242.646 659.733 237.264C655.041 234.642 652.143 229.122 653.247 223.74C653.937 220.29 656.007 216.702 658.767 213.528C661.527 210.492 664.701 207.594 667.737 205.386C671.739 202.626 675.465 200.97 676.983 201.246C678.225 201.522 679.329 202.212 680.295 203.316C681.675 204.834 682.227 206.628 681.951 208.284C681.813 209.526 681.261 210.768 680.571 212.148C679.053 215.046 676.293 218.082 672.981 219.738Z" fill="white"/>
<path d="M390.653 0C390.272 17.5597 388.935 35.1252 389.507 52.6821C389.651 57.0856 390.272 61.4634 390.653 65.8526C391.033 61.4634 391.655 57.0856 391.798 52.6821C392.371 35.1252 391.033 17.5597 390.653 0Z" fill="white"/>
<path d="M391.34 66.0645C396.511 59.7656 402.446 54.0392 406.85 47.1677C407.955 45.4498 408.668 43.4456 409.578 41.5902C408.058 42.9932 406.348 44.2472 405.014 45.7991C399.692 51.9835 395.898 59.3103 391.34 66.0645Z" fill="white"/>
<path d="M389.965 66.0645C384.795 59.7656 378.859 54.0392 374.456 47.1677C373.351 45.4498 372.638 43.4456 371.727 41.5902C373.247 42.9932 374.957 44.2472 376.291 45.7991C381.614 51.9835 385.407 59.3103 389.965 66.0645Z" fill="white"/>
<path d="M392.757 65.6894C405.547 59.2301 418.792 53.6098 431.123 46.3173C434.218 44.4877 437.064 42.2487 440.036 40.213C436.704 41.5759 433.268 42.724 430.038 44.3016C417.163 50.5891 405.183 58.5516 392.757 65.6894Z" fill="white"/>
<path d="M388.548 65.6894C375.759 59.2301 362.514 53.6098 350.182 46.3173C347.087 44.4877 344.241 42.2487 341.269 40.213C344.602 41.5759 348.037 42.724 351.267 44.3016C364.143 50.5891 376.122 58.5516 388.548 65.6894Z" fill="white"/>
<path d="M393.994 66.4367C416.613 61.5092 439.429 57.5065 461.811 51.6514C467.425 50.1826 472.894 48.2585 478.437 46.5607C472.711 47.5141 466.967 48.2328 461.284 49.4238C438.642 54.1652 416.421 60.7648 393.994 66.4367Z" fill="white"/>
<path d="M387.311 66.4367C364.692 61.5092 341.876 57.5065 319.495 51.6514C313.88 50.1826 308.411 48.2585 302.868 46.5607C308.594 47.5141 314.338 48.2328 320.021 49.4238C342.663 54.1652 364.884 60.7648 387.311 66.4367Z" fill="white"/>
<path d="M284 67.1411C284 67.1411 363.665 68 390.223 68C416.997 68 497.305 67.1411 497.305 67.1411C497.305 67.1411 416.997 65.5663 390.223 65.5663C363.665 65.5663 284 67.1411 284 67.1411Z" fill="white"/>
</svg>
