<svg width="196" height="80" viewBox="0 0 196 80" fill="none" xmlns="http://www.w3.org/2000/svg">
<path d="M37.885 41.075C38.055 40.82 38.395 40.31 39.075 40.82C39.755 41.245 40.18 41.925 40.01 42.18C37.885 45.835 20.715 59.69 15.785 62.155C12.725 63.77 7.625 65.3 5.5 61.9C0.484999 54.845 33.21 8.18 33.975 8.01C36.695 4.1 40.265 1.465 42.9 0.699997C43.835 0.444996 44.77 0.359997 45.62 0.699997C47.065 1.125 48.085 2.06 48.51 3.42C48.85 4.695 48.51 6.735 46.98 9.625C41.54 20.505 18.845 37.76 18.76 37.845C18.675 37.845 18.59 37.93 18.42 37.845C12.215 48.64 7.795 58.415 8.985 60.965C9.75 62.07 13.405 60.71 14.255 60.285C19.1 57.735 35.76 44.645 37.885 41.075ZM36.355 9.795C36.355 9.795 29.47 19.825 22.585 31.045C29.64 25.18 40.945 15.15 44.6 7.925C45.875 5.375 46.3 3.59 46.045 2.48499C45.79 2.48499 45.365 2.57 44.94 2.655C42.475 3.42 39.075 5.97 36.355 9.795ZM43.0972 34.105C43.5222 33.765 44.3722 34.105 45.0522 34.87C45.7322 35.635 45.9872 36.485 45.5622 36.825C43.6922 38.44 40.6322 42.095 38.7622 45.665C37.5722 48.045 37.6572 49.405 38.5072 49.83C41.9922 50.34 51.4272 41.16 51.4272 41.075C51.7672 40.735 52.3622 40.055 53.0422 40.82C53.8072 41.585 53.4672 41.84 53.1272 42.18C53.0422 42.18 38.9322 57.48 35.2772 51.105C34.0872 48.98 34.6822 46.09 36.1272 43.2C37.9972 39.545 41.1422 35.72 43.0972 34.105ZM48.3672 31.64C48.0272 32.065 47.1772 31.725 46.4972 31.045C45.8172 30.28 45.4772 29.43 45.8172 29.005L50.5772 23.565C50.9172 23.14 51.6822 23.48 52.4472 24.16C53.1272 24.925 53.3822 25.775 53.1272 26.2L48.3672 31.64ZM60.6105 27.05C60.3555 26.88 60.1005 26.54 59.9305 26.285C59.4205 25.52 59.5055 24.84 60.1005 24.755C60.9505 24.755 63.2455 22.46 65.5405 19.57L66.2205 18.89C67.6655 16.595 68.9405 14.64 69.8755 13.11C70.8955 11.41 71.6605 10.22 72.2555 9.625C72.3405 9.285 72.5955 9.2 73.0205 9.285H73.1055C74.8055 9.795 75.4005 10.73 74.9755 12.26C74.6355 13.535 71.7455 17.785 68.7705 21.44C67.1555 23.905 65.2005 26.71 63.0755 29.685C60.5255 33.255 56.6155 38.95 52.4505 44.985C56.0205 45.07 61.9705 45.325 68.0055 40.82C68.3455 40.565 68.7705 39.885 69.3655 40.65C70.0455 41.415 70.3005 42.265 69.8755 42.52C61.5455 48.725 54.0655 48.215 50.7505 47.535L50.1555 48.3C50.3255 50.34 50.2405 53.825 49.0505 59.095C48.2005 63.09 46.3305 66.065 44.2055 68.275C41.3155 71.25 37.9155 72.695 36.0455 72.525L35.9605 72.44C35.7905 72.44 35.7055 72.44 35.5355 72.355L35.3655 72.27C33.4105 71.335 33.2405 69.465 34.3455 67.085C35.1105 65.555 36.3005 63.43 37.7455 60.965C40.2955 56.715 43.7805 51.36 47.3505 46.09C47.2655 45.495 47.1805 45.24 47.1805 45.24C46.9255 44.475 47.2655 43.965 47.9455 44.22H48.0305C48.0305 44.22 48.2005 44.305 48.5405 44.39C53.1305 37.59 57.7205 31.13 60.5255 27.135L60.6105 27.05ZM47.0955 52.975C44.5455 56.8 42.2505 60.455 40.3805 63.515C39.1055 65.555 38.0855 67.425 37.4055 68.785C38.7655 68.19 40.2955 67.085 41.7405 65.64C43.6955 63.515 45.4805 60.71 46.3305 56.97C46.6705 55.44 46.9255 54.165 47.0955 52.975ZM71.2661 40.225C72.4561 39.885 73.7311 39.375 75.0911 38.78C76.8761 37.845 78.4061 36.06 79.3411 34.445C79.5111 34.105 79.5961 33.85 79.7661 33.51C78.8311 33.935 77.7261 34.615 76.4511 35.55C74.7511 36.825 72.7961 38.44 71.2661 40.225ZM77.3011 41.585C73.3061 43.625 68.8011 44.135 68.5461 44.135C62.7661 56.545 85.7161 46.005 88.3511 41.245C88.6061 40.735 89.4561 40.14 90.2211 40.82C90.9011 41.5 90.9011 41.84 90.6461 42.35C88.2661 46.515 75.0061 55.695 69.1411 52.38C66.2511 50.765 64.4661 47.365 65.1461 44.05C65.5711 41.925 66.8461 39.715 68.5461 37.76C70.2461 35.89 72.2011 34.105 74.0711 32.745C76.5361 31.045 78.8311 30.025 79.7661 30.195C80.5311 30.365 81.2111 30.79 81.8061 31.47C82.6561 32.405 82.9961 33.51 82.8261 34.53C82.7411 35.295 82.4011 36.06 81.9761 36.91C81.0411 38.695 79.3411 40.565 77.3011 41.585ZM88.794 43.625C88.454 43.965 87.434 44.475 86.754 43.795C86.074 43.03 87.859 41.5 88.199 41.16L94.574 33.425C95.679 32.235 96.529 31.555 96.529 31.555C96.869 31.215 97.719 31.555 98.314 32.32C98.994 33 99.334 33.935 98.994 34.275L96.954 36.23C95.169 38.27 92.789 41.925 93.724 45.835C94.234 48.3 93.979 50.255 93.299 51.7C92.874 52.465 92.279 53.06 91.684 53.57C91.089 53.995 90.409 54.335 89.729 54.505C88.539 54.76 87.349 54.59 86.414 54.08C81.569 51.615 84.204 46.855 84.204 46.77C84.459 46.345 85.224 46.515 85.989 47.195C86.754 47.875 87.094 48.81 86.924 49.235C86.924 49.32 85.734 51.445 85.904 51.53C86.244 51.7 86.924 51.7 87.604 51.53C88.199 51.445 88.794 51.19 89.304 50.765C89.814 50.425 90.324 49.83 90.579 49.235C91.174 48.045 91.429 46.515 91.004 44.56C91.004 43.455 90.239 43.37 92.279 39.63L88.794 43.625ZM126.037 2.655C126.292 2.315 127.142 2.48499 127.822 3.24999C128.502 3.93 128.842 4.865 128.587 5.205C128.587 5.29 122.382 13.875 115.752 23.82H137.427C138.022 23.82 138.957 24.5 139.382 25.265C139.892 26.115 139.807 26.795 139.212 26.795H113.797C112.012 29.515 110.227 32.32 108.527 35.04V35.125C108.527 35.465 108.357 35.635 108.187 35.635C103.002 44.05 100.197 48.895 101.132 50.595C102.662 53.485 119.917 39.715 119.917 39.63C120.257 39.375 120.767 39.205 121.447 39.97C122.127 40.735 121.617 41.16 121.277 41.415C121.192 41.5 101.897 60.54 97.7323 52.89C96.4573 50.51 100.367 42.35 105.807 33.34C105.722 33.34 106.317 32.405 106.317 32.405C106.487 25.945 84.7273 26.795 84.7273 26.795C84.1323 26.795 83.1973 26.115 82.7723 25.265C82.2623 24.5 82.3473 23.82 82.9423 23.82H111.672C118.812 12.685 125.952 2.74 126.037 2.655ZM107.252 30.875C108.102 29.515 108.952 28.155 109.802 26.795L99.1773 26.37C101.727 27.39 105.892 29.09 107.252 30.875ZM164.717 57.48C165.397 57.565 166.247 58.245 166.672 59.095C167.097 59.86 167.012 60.455 166.332 60.455C148.312 58.925 135.052 59.265 125.447 60.625C119.752 70.23 113.377 79.495 110.487 79.495C106.577 79.41 103.177 77.285 101.477 74.31C100.542 72.61 100.202 70.655 100.797 68.785C101.392 67.085 102.667 65.385 104.962 63.77C108.447 61.305 114.227 59.095 123.067 57.735C125.277 53.995 127.402 50.255 129.187 47.025C126.552 49.32 123.832 51.105 122.047 50.935C121.282 50.85 120.687 50.68 120.092 50.34C118.392 49.405 117.457 47.96 117.457 46.175C117.372 45.155 117.712 43.88 118.307 42.52C119.412 39.8 121.622 36.485 124.342 33.255C124.682 32.83 125.532 33.17 126.212 33.85C126.892 34.615 127.232 35.465 126.892 35.89C124.172 39.035 122.047 42.265 120.942 44.9C120.772 45.24 120.602 47.11 121.112 47.45C126.977 48.725 137.007 34.275 136.327 33.765V33.85C136.667 33.425 137.347 33.68 138.112 34.36C138.792 35.04 139.217 35.89 138.962 36.315L137.092 39.63L137.007 39.715C137.007 39.8 132.672 48.13 127.487 57.225C136.752 56.205 148.992 56.12 164.717 57.48ZM120.942 61.39C114.567 62.75 110.147 64.535 107.342 66.575C105.217 68.02 104.027 69.635 103.517 71.08C103.092 72.44 103.262 73.545 103.687 74.395C104.452 75.585 106.322 76.435 108.702 76.52C110.997 76.52 116.012 69.55 120.942 61.39ZM164.389 41.075C164.559 40.82 164.899 40.31 165.579 40.82C166.259 41.245 166.684 41.925 166.514 42.18C164.389 45.835 147.219 59.69 142.289 62.155C139.229 63.77 134.129 65.3 132.004 61.9C126.989 54.845 159.714 8.18 160.479 8.01C163.199 4.1 166.769 1.465 169.404 0.699997C170.339 0.444996 171.274 0.359997 172.124 0.699997C173.569 1.125 174.589 2.06 175.014 3.42C175.354 4.695 175.014 6.735 173.484 9.625C168.044 20.505 145.349 37.76 145.264 37.845C145.179 37.845 145.094 37.93 144.924 37.845C138.719 48.64 134.299 58.415 135.489 60.965C136.254 62.07 139.909 60.71 140.759 60.285C145.604 57.735 162.264 44.645 164.389 41.075ZM162.859 9.795C162.859 9.795 155.974 19.825 149.089 31.045C156.144 25.18 167.449 15.15 171.104 7.925C172.379 5.375 172.804 3.59 172.549 2.48499C172.294 2.48499 171.869 2.57 171.444 2.655C168.979 3.42 165.579 5.97 162.859 9.795ZM167.306 40.225C168.496 39.885 169.771 39.375 171.131 38.78C172.916 37.845 174.446 36.06 175.381 34.445C175.551 34.105 175.636 33.85 175.806 33.51C174.871 33.935 173.766 34.615 172.491 35.55C170.791 36.825 168.836 38.44 167.306 40.225ZM173.341 41.585C169.346 43.625 164.841 44.135 164.586 44.135C158.806 56.545 181.756 46.005 184.391 41.245C184.646 40.735 185.496 40.14 186.261 40.82C186.941 41.5 186.941 41.84 186.686 42.35C184.306 46.515 171.046 55.695 165.181 52.38C162.291 50.765 160.506 47.365 161.186 44.05C161.611 41.925 162.886 39.715 164.586 37.76C166.286 35.89 168.241 34.105 170.111 32.745C172.576 31.045 174.871 30.025 175.806 30.195C176.571 30.365 177.251 30.79 177.846 31.47C178.696 32.405 179.036 33.51 178.866 34.53C178.781 35.295 178.441 36.06 178.016 36.91C177.081 38.695 175.381 40.565 173.341 41.585ZM184.834 43.625C184.494 43.965 183.474 44.475 182.794 43.795C182.114 43.03 183.899 41.5 184.239 41.16L190.614 33.425C191.719 32.235 192.569 31.555 192.569 31.555C192.909 31.215 193.759 31.555 194.354 32.32C195.034 33 195.374 33.935 195.034 34.275L192.994 36.23C191.209 38.27 188.829 41.925 189.764 45.835C190.274 48.3 190.019 50.255 189.339 51.7C188.914 52.465 188.319 53.06 187.724 53.57C187.129 53.995 186.449 54.335 185.769 54.505C184.579 54.76 183.389 54.59 182.454 54.08C177.609 51.615 180.244 46.855 180.244 46.77C180.499 46.345 181.264 46.515 182.029 47.195C182.794 47.875 183.134 48.81 182.964 49.235C182.964 49.32 181.774 51.445 181.944 51.53C182.284 51.7 182.964 51.7 183.644 51.53C184.239 51.445 184.834 51.19 185.344 50.765C185.854 50.425 186.364 49.83 186.619 49.235C187.214 48.045 187.469 46.515 187.044 44.56C187.044 43.455 186.279 43.37 188.319 39.63L184.834 43.625Z" fill="white"/>
</svg>
