<svg width="281" height="26" viewBox="0 0 281 26" fill="none" xmlns="http://www.w3.org/2000/svg">
<path d="M35.568 0.483998C35.088 1.588 34.716 2.488 34.452 3.184C34.188 3.88 33.888 4.72 33.552 5.704L26.892 25.108L25.74 25L24.516 25.108L18 4.912H17.712L10.728 25.108L9.504 25L8.316 25.108L6.948 20.572L0.432 0.483998L2.088 0.591999L3.78 0.483998C3.972 1.156 4.368 2.548 4.968 4.66C5.496 6.58 6.156 8.848 6.948 11.464C7.164 12.184 7.488 13.228 7.92 14.596C8.616 16.78 9.312 18.952 10.008 21.112H10.332C11.124 18.856 11.916 16.588 12.708 14.308C13.26 12.7 13.812 11.08 14.364 9.448C15.156 7.12 15.78 5.284 16.236 3.94L17.316 0.483998L18.36 0.591999L19.368 0.483998L20.34 3.616L26.208 21.112H26.532C26.892 20.176 27.228 19.252 27.54 18.34C27.78 17.62 28.092 16.636 28.476 15.388C29.988 10.42 31.512 5.452 33.048 0.483998L34.308 0.591999L35.568 0.483998ZM61.732 25.108L60.148 25L58.564 25.108V12.724C57.796 12.724 56.416 12.7 54.424 12.652C52.456 12.58 51.304 12.544 50.968 12.544C49.936 12.544 48.712 12.568 47.296 12.616C45.904 12.664 44.608 12.7 43.408 12.724V25.108L41.824 25L40.24 25.108V0.483998L41.824 0.591999L43.408 0.483998V10.816C44.224 10.816 45.64 10.852 47.656 10.924C49.672 10.972 50.776 10.996 50.968 10.996C52.024 10.996 53.248 10.984 54.64 10.96C56.056 10.912 57.364 10.864 58.564 10.816V0.483998L60.148 0.591999L61.732 0.483998V25.108ZM82.2195 25H69.2235V0.483998H82.0035L81.8955 1.528L82.0035 2.644C81.1635 2.5 80.2155 2.392 79.1595 2.32C78.1275 2.224 76.6635 2.176 74.7675 2.176H72.3915V11.212H78.1155C78.5235 11.212 79.0995 11.188 79.8435 11.14C80.6115 11.068 81.0555 11.032 81.1755 11.032L81.0675 11.968L81.1755 12.976C80.7675 12.976 80.1675 12.952 79.3755 12.904C78.6075 12.832 78.1275 12.796 77.9355 12.796H72.3915V23.308C77.0955 23.308 80.3715 23.152 82.2195 22.84L82.1115 23.884L82.2195 25ZM106.332 25.108L104.244 25L102.192 25.108C101.376 23.956 100.656 22.96 100.032 22.12C99.6235 21.568 98.8555 20.572 97.7275 19.132C96.6235 17.692 95.8435 16.696 95.3875 16.144C94.5955 15.16 93.7315 14.14 92.7955 13.084H91.4275V25.108L89.8795 25L88.2595 25.108V0.483998H96.0715C98.4955 0.483998 100.356 0.867998 101.652 1.636C103.14 2.524 103.884 3.928 103.884 5.848C103.884 8.104 102.912 9.868 100.968 11.14C99.7675 11.932 98.2795 12.484 96.5035 12.796L102.984 21.004C103.2 21.292 103.908 22.156 105.108 23.596C105.708 24.34 106.116 24.844 106.332 25.108ZM100.68 6.388C100.68 4.996 100.332 3.952 99.6355 3.256C99.0835 2.704 98.4235 2.308 97.6555 2.068C96.8875 1.828 95.8675 1.708 94.5955 1.708L91.4275 1.816V11.716L93.4075 11.752C94.8475 11.752 95.9995 11.632 96.8635 11.392C97.7275 11.128 98.5195 10.636 99.2395 9.916C100.2 8.956 100.68 7.78 100.68 6.388ZM124.227 25H111.231V0.483998H124.011L123.903 1.528L124.011 2.644C123.171 2.5 122.223 2.392 121.167 2.32C120.135 2.224 118.671 2.176 116.775 2.176H114.399V11.212H120.123C120.531 11.212 121.107 11.188 121.851 11.14C122.619 11.068 123.063 11.032 123.183 11.032L123.075 11.968L123.183 12.976C122.775 12.976 122.175 12.952 121.383 12.904C120.615 12.832 120.135 12.796 119.943 12.796H114.399V23.308C119.103 23.308 122.379 23.152 124.227 22.84L124.119 23.884L124.227 25ZM154.355 25H141.251V0.483998L142.835 0.591999L144.419 0.483998V23.308C146.747 23.308 148.667 23.272 150.179 23.2C151.691 23.128 153.083 23.008 154.355 22.84L154.247 23.92L154.355 25ZM181.347 14.632C181.347 18.496 180.267 21.352 178.107 23.2C176.283 24.76 173.835 25.54 170.763 25.54C169.083 25.54 167.571 25.324 166.227 24.892C164.907 24.46 163.791 23.8 162.879 22.912C161.991 22 161.355 20.908 160.971 19.636C160.611 18.34 160.431 16.696 160.431 14.704V0.483998L161.979 0.591999L163.599 0.483998V14.452C163.599 16.372 163.779 17.932 164.139 19.132C164.499 20.332 165.075 21.328 165.867 22.12C166.419 22.672 167.175 23.104 168.135 23.416C169.095 23.728 170.235 23.884 171.555 23.884C172.755 23.884 173.775 23.728 174.615 23.416C175.479 23.08 176.199 22.624 176.775 22.048C178.479 20.344 179.331 17.668 179.331 14.02V0.483998L180.339 0.591999L181.347 0.483998V14.632ZM206.73 25.108L204.75 25L202.77 25.108C201.738 23.068 200.586 20.944 199.314 18.736L196.542 14.128C195.918 15.112 195.294 16.096 194.67 17.08C194.046 18.064 193.482 18.988 192.978 19.852C192.402 20.836 191.862 21.784 191.358 22.696C190.854 23.584 190.41 24.388 190.026 25.108L188.694 25L187.362 25.108L190.458 20.608L195.714 12.724L192.078 6.748C191.238 5.404 190.494 4.264 189.846 3.328C189.222 2.368 188.61 1.42 188.01 0.483998L189.954 0.591999L191.898 0.483998L197.55 10.132C197.958 9.484 198.726 8.308 199.854 6.604C200.982 4.9 201.702 3.784 202.014 3.256C202.71 2.152 203.238 1.228 203.598 0.483998L204.93 0.591999L206.262 0.483998C205.926 0.819998 205.206 1.756 204.102 3.292C203.31 4.444 202.722 5.284 202.338 5.812C201.09 7.54 200.454 8.428 200.43 8.476C200.07 8.98 199.386 10 198.378 11.536L206.73 25.108ZM233.374 14.632C233.374 18.496 232.294 21.352 230.134 23.2C228.31 24.76 225.862 25.54 222.79 25.54C221.11 25.54 219.598 25.324 218.254 24.892C216.934 24.46 215.818 23.8 214.906 22.912C214.018 22 213.382 20.908 212.998 19.636C212.638 18.34 212.458 16.696 212.458 14.704V0.483998L214.006 0.591999L215.626 0.483998V14.452C215.626 16.372 215.806 17.932 216.166 19.132C216.526 20.332 217.102 21.328 217.894 22.12C218.446 22.672 219.202 23.104 220.162 23.416C221.122 23.728 222.262 23.884 223.582 23.884C224.782 23.884 225.802 23.728 226.642 23.416C227.506 23.08 228.226 22.624 228.802 22.048C230.506 20.344 231.358 17.668 231.358 14.02V0.483998L232.366 0.591999L233.374 0.483998V14.632ZM259.406 25.108L257.318 25L255.266 25.108C254.45 23.956 253.73 22.96 253.106 22.12C252.698 21.568 251.93 20.572 250.802 19.132C249.698 17.692 248.918 16.696 248.462 16.144C247.67 15.16 246.806 14.14 245.87 13.084H244.502V25.108L242.954 25L241.334 25.108V0.483998H249.146C251.57 0.483998 253.43 0.867998 254.726 1.636C256.214 2.524 256.958 3.928 256.958 5.848C256.958 8.104 255.986 9.868 254.042 11.14C252.842 11.932 251.354 12.484 249.578 12.796L256.058 21.004C256.274 21.292 256.982 22.156 258.182 23.596C258.782 24.34 259.19 24.844 259.406 25.108ZM253.754 6.388C253.754 4.996 253.406 3.952 252.71 3.256C252.158 2.704 251.498 2.308 250.73 2.068C249.962 1.828 248.942 1.708 247.67 1.708L244.502 1.816V11.716L246.482 11.752C247.922 11.752 249.074 11.632 249.938 11.392C250.802 11.128 251.594 10.636 252.314 9.916C253.274 8.956 253.754 7.78 253.754 6.388ZM281.006 0.483998C280.382 1.276 279.782 2.104 279.206 2.968C279.11 3.112 278.27 4.432 276.686 6.928C275.366 9.016 274.382 10.612 273.734 11.716C273.086 12.796 272.666 13.576 272.474 14.056V25.108L270.89 25L269.306 25.108V14.74L260.486 0.483998L262.466 0.591999L264.482 0.483998C264.986 1.396 265.382 2.128 265.67 2.68C266.702 4.576 267.446 5.932 267.902 6.748C268.79 8.284 269.39 9.328 269.702 9.88C270.23 10.792 270.77 11.692 271.322 12.58C271.658 12.124 272.066 11.488 272.546 10.672C272.93 10.024 273.374 9.256 273.878 8.368C274.622 7.072 275.294 5.872 275.894 4.768C276.494 3.64 277.262 2.212 278.198 0.483998L279.602 0.591999L281.006 0.483998Z" fill="white"/>
</svg>
