<svg width="140" height="62" viewBox="0 0 140 62" fill="none" xmlns="http://www.w3.org/2000/svg">
<g clip-path="url(#clip0_489_584)">
<path d="M33.669 61.0998C33.1563 61.6556 32.4278 61.9329 31.4835 61.9315H29.1948V55.7025H31.5806C32.525 55.7025 33.2359 55.9657 33.7135 56.492C34.1911 57.0183 34.4319 57.7802 34.4359 58.7778C34.4359 59.77 34.1803 60.544 33.669 61.0998ZM32.896 57.0599C32.5742 56.7397 32.0562 56.5786 31.3459 56.5786H30.2612V61.0555H31.2872C31.9975 61.0555 32.5256 60.8803 32.8717 60.5258C33.2177 60.1714 33.3897 59.5874 33.3897 58.7697C33.3897 57.9521 33.2197 57.3821 32.896 57.0599Z" fill="#0E2E23"/>
<path d="M36.4879 61.9335V55.7045H40.8407V56.5786H37.5543V58.3226H40.5371V59.1886H37.5543V61.0575H40.8407V61.9335H36.4879Z" fill="#0E2E23"/>
<path d="M45.8572 61.9335H44.5378L42.1216 55.7045H43.2649L45.2116 61.1441L47.1766 55.7045H48.3321L45.8572 61.9335Z" fill="#0E2E23"/>
<path d="M49.9247 61.9335V55.7045H54.2755V56.5786H50.9911V58.3226H53.9739V59.1886H50.9911V61.0575H54.2755V61.9335H49.9247Z" fill="#0E2E23"/>
<path d="M56.2809 61.9335V55.7045H57.3554V61.0575H59.7332V61.9335H56.2809Z" fill="#0E2E23"/>
<path d="M66.7289 60.0385C66.6414 60.3983 66.4892 60.7395 66.2796 61.0454C66.0498 61.3701 65.7277 61.619 65.3548 61.7603C64.3991 62.0933 63.3581 62.0933 62.4024 61.7603C62.0304 61.6163 61.709 61.3671 61.4776 61.0434C61.2678 60.7413 61.1155 60.4034 61.0283 60.0465C60.9349 59.6445 60.8907 59.2327 60.8968 58.8201C60.8909 58.4072 60.9365 57.9953 61.0324 57.5936C61.1231 57.2382 61.2773 56.9018 61.4877 56.6007C61.7182 56.2816 62.0376 56.0366 62.4064 55.8959C63.3607 55.5626 64.4005 55.5626 65.3548 55.8959C65.7275 56.0357 66.0495 56.2833 66.2796 56.6068C66.4905 56.912 66.6428 57.2534 66.7289 57.6137C66.8233 58.019 66.8682 58.4342 66.8624 58.8503C66.8675 59.257 66.8227 59.6627 66.7289 60.0586M65.6988 57.9319C65.6485 57.6779 65.554 57.4346 65.4196 57.213C65.2821 56.9883 65.0767 56.8127 64.8327 56.7115C64.5303 56.5895 64.2058 56.5312 63.8796 56.5403C63.5547 56.531 63.2314 56.5893 62.9305 56.7115C62.6881 56.8135 62.4841 56.9889 62.3477 57.213C62.2138 57.4332 62.1199 57.6752 62.0705 57.9279C62.0141 58.2246 61.9877 58.5262 61.9916 58.8281C61.9916 59.5558 62.1265 60.1217 62.3963 60.5258C62.6674 60.9286 63.1612 61.13 63.8796 61.13C64.598 61.13 65.0938 60.9286 65.371 60.5258C65.6482 60.123 65.7757 59.5612 65.7757 58.8422C65.7792 58.535 65.7534 58.2282 65.6988 57.9259" fill="#0E2E23"/>
<path d="M73.7791 58.238C73.7575 58.3898 73.725 58.5399 73.682 58.6871C73.637 58.8521 73.553 59.004 73.4371 59.1302C73.3077 59.2662 73.1615 59.3853 73.002 59.4846C72.7839 59.6133 72.5438 59.7007 72.2938 59.7424C71.9567 59.804 71.6145 59.833 71.2718 59.829H70.001V61.9315H68.9265V55.7025H71.1848C71.5853 55.6963 71.9849 55.7437 72.3727 55.8435C72.648 55.9096 72.9087 56.0257 73.1417 56.1859C73.3174 56.3187 73.4606 56.4895 73.5605 56.6853C73.6567 56.8554 73.725 57.0396 73.7629 57.2311C73.7904 57.4151 73.8033 57.6009 73.8014 57.7869C73.8027 57.9377 73.7946 58.0883 73.7771 58.238M72.6479 57.372C72.6072 57.2365 72.5443 57.1086 72.4617 56.9934C72.3492 56.8452 72.1917 56.7372 72.0125 56.6853C71.7589 56.608 71.4945 56.572 71.2293 56.5786H70.0152V58.9731H71.2678C71.5276 58.9796 71.7867 58.9435 72.0347 58.8664C72.2102 58.8157 72.3657 58.7123 72.4799 58.5703C72.5635 58.4593 72.6252 58.3336 72.6621 58.1998C72.6913 58.0675 72.7055 57.9324 72.7045 57.797C72.7065 57.6572 72.6902 57.5177 72.656 57.3821" fill="#0E2E23"/>
<path d="M82.1751 61.9315V56.9975L80.0726 61.9315H78.996L76.8935 56.9975V61.9315H75.827V55.7025H77.4216L79.2429 59.9458L79.5363 60.7514C79.5449 60.6957 79.5612 60.6415 79.5849 60.5903L79.7164 60.2298C79.767 60.0969 79.8034 60.0002 79.8297 59.9418L81.651 55.6985H83.2537V61.9275L82.1751 61.9315Z" fill="#0E2E23"/>
<path d="M85.508 61.9335V55.7045H89.8608V56.5786H86.5744V58.3226H89.5573V59.1886H86.5744V61.0575H89.8608V61.9335H85.508Z" fill="#0E2E23"/>
<path d="M96.215 61.9335L92.9387 57.0659V61.9335H91.8642V55.7045H93.2423L96.47 60.5319V55.7045H97.5465V61.9335H96.215Z" fill="#0E2E23"/>
<path d="M102.122 56.5786V61.9335H101.076V56.5786H99.2767V55.7045H103.921V56.5786H102.122Z" fill="#0E2E23"/>
<path d="M110.676 60.7897C110.573 61.0438 110.412 61.2705 110.206 61.452C110 61.6334 109.754 61.7645 109.488 61.8349C109.094 61.9523 108.685 62.008 108.274 62C107.29 62 106.578 61.7986 106.137 61.3959C105.696 60.9931 105.47 60.4258 105.459 59.6941H106.533C106.566 60.6084 107.136 61.0656 108.245 61.0656C109.249 61.0656 109.751 60.7608 109.751 60.1513C109.752 60.0414 109.725 59.933 109.672 59.8367C109.619 59.7404 109.541 59.6593 109.447 59.6015C109.219 59.451 108.961 59.3514 108.691 59.3094C108.387 59.253 108.059 59.1859 107.707 59.108C107.355 59.0302 107.026 58.9456 106.72 58.8543C106.424 58.7703 106.158 58.6048 105.953 58.377C105.745 58.1443 105.631 57.8426 105.635 57.5312C105.623 57.2676 105.671 57.0047 105.776 56.7625C105.881 56.5203 106.041 56.3052 106.242 56.1335C106.647 55.7938 107.279 55.6233 108.14 55.622C109.001 55.6206 109.648 55.8126 110.081 56.198C110.502 56.5806 110.714 57.1183 110.722 57.8091H109.656C109.659 57.6271 109.624 57.4465 109.555 57.2782C109.485 57.1099 109.382 56.9575 109.251 56.8303C109.008 56.6289 108.624 56.5141 108.102 56.5141C107.171 56.5141 106.703 56.8162 106.703 57.4204C106.704 57.5239 106.733 57.6252 106.786 57.714C106.84 57.8028 106.916 57.8759 107.007 57.9259C107.241 58.066 107.5 58.1585 107.77 58.1978C108.077 58.2501 108.405 58.3166 108.757 58.3992C109.109 58.4817 109.439 58.5724 109.745 58.6771C110.042 58.7751 110.307 58.9536 110.508 59.1926C110.716 59.4482 110.824 59.7702 110.811 60.0989C110.813 60.3305 110.769 60.5602 110.684 60.7756" fill="#0E2E23"/>
<path d="M37.6879 5.98128H37.5301C37.2346 4.49099 36.5864 3.33634 35.5854 2.51735C34.5843 1.69837 33.3452 1.28955 31.868 1.29089C31.0224 1.28328 30.1838 1.44347 29.4012 1.76214C28.6328 2.08375 27.9544 2.58618 27.4241 3.22625C26.8221 3.9699 26.3756 4.82579 26.1108 5.74363C25.7729 6.92599 25.6133 8.15174 25.6373 9.38075C25.6251 10.8004 25.811 12.2149 26.1897 13.5838C26.517 14.784 27.0525 15.9181 27.7722 16.9349C28.4124 17.8383 29.2406 18.5938 30.2005 19.1502C31.1483 19.6892 32.2233 19.9673 33.3149 19.9558C33.9693 19.9619 34.6207 19.8661 35.2454 19.6718V13.5012C35.2604 13.0801 35.2015 12.6596 35.0714 12.2586C34.9465 11.9401 34.7366 11.6615 34.4643 11.453V11.296H39.8491V11.453C39.5731 11.6602 39.3596 11.9389 39.2319 12.2586C39.1025 12.6597 39.0443 13.0802 39.0599 13.5012V22.0341H38.9C38.2889 21.0943 37.5618 20.6244 36.7186 20.6244C36.3233 20.6279 35.9319 20.7022 35.5631 20.8439C35.1725 20.9929 34.7537 21.154 34.3145 21.3333C33.8338 21.5234 33.3427 21.6861 32.8434 21.8206C32.2395 21.976 31.6175 22.0505 30.9938 22.0422C29.7474 22.0461 28.5173 21.7599 27.4018 21.2064C26.2703 20.6476 25.2687 19.8594 24.4615 18.8924C23.5992 17.8571 22.9247 16.6801 22.4683 15.4144C21.9652 14.0374 21.7136 12.5819 21.7256 11.1167C21.7101 9.5949 21.9848 8.08396 22.535 6.664C23.0432 5.35762 23.8067 4.16451 24.7813 3.15375C25.7467 2.16294 26.903 1.37594 28.1809 0.839781C29.5254 0.275931 30.9717 -0.00782473 32.4305 0.00602238C33.4195 0.0102086 34.4055 0.115496 35.3729 0.320203C36.3192 0.507424 37.2347 0.825327 38.0926 1.26471L37.6879 5.98128Z" fill="#0E2E23"/>
<path d="M45.3756 2.51736C45.3906 2.09625 45.3317 1.67578 45.2016 1.2748C45.0739 0.955058 44.8604 0.676388 44.5844 0.469239V0.312149H52.2073C54.8016 0.312149 56.7679 0.763257 58.1062 1.66549C59.4444 2.56771 60.1143 3.90024 60.1156 5.66308C60.1419 7.10649 59.6094 8.50467 58.6283 9.56804C57.6367 10.6596 56.2451 11.4651 54.4535 11.9847L59.4822 19.698C60.1784 20.7049 60.7794 21.3239 61.2853 21.5548V21.7119H59.6401C58.438 21.7119 57.4363 21.5071 56.635 21.0976C55.7713 20.6311 55.0504 19.9408 54.5486 19.0999L50.3415 12.5829C50.2078 12.6055 50.0724 12.6162 49.9368 12.6151H49.1618V19.5208C49.1465 19.9419 49.2054 20.3624 49.3358 20.7633C49.4624 21.0837 49.6761 21.3626 49.953 21.5689V21.726H44.5844V21.5689C44.8612 21.3626 45.0749 21.0837 45.2016 20.7633C45.332 20.3624 45.3909 19.9419 45.3756 19.5208V2.51736ZM49.4876 11.3644C51.6596 11.3644 53.3095 10.9617 54.4373 10.1561C55.5652 9.35054 56.1291 8.15966 56.1291 6.58344C56.1356 5.87588 55.9979 5.17435 55.7244 4.52121C55.4702 3.91671 55.0805 3.37802 54.5851 2.94632C54.0639 2.50266 53.4631 2.16101 52.8144 1.93937C52.0765 1.68937 51.3011 1.56678 50.5216 1.57689H49.1597V11.3685L49.4876 11.3644Z" fill="#0E2E23"/>
<path d="M66.1885 2.51736C66.2035 2.09625 66.1446 1.67578 66.0145 1.2748C65.8896 0.956263 65.6797 0.677718 65.4074 0.469239V0.312149H78.0915L78.567 5.03474H78.4071C78.0099 3.88923 77.1773 2.94429 76.0881 2.40258C74.9913 1.84674 73.4945 1.56882 71.5977 1.56882H69.9788V9.75333H72.6722C73.684 9.75333 74.4699 9.64859 75.0297 9.43914C75.2714 9.36552 75.4956 9.24385 75.6886 9.0815C75.8817 8.91915 76.0396 8.71951 76.1528 8.49464H76.3107V12.2707H76.1528C76.0393 12.046 75.8813 11.8465 75.6883 11.6842C75.4953 11.5219 75.2712 11.4001 75.0297 11.3262C74.4712 11.1167 73.6854 11.012 72.6722 11.012H69.9848V20.4552H71.9134C75.4142 20.4552 77.6813 19.1958 78.7147 16.6771H78.8726L78.5569 21.7119H65.4034V21.5548C65.6765 21.3471 65.8866 21.0683 66.0105 20.7492C66.1409 20.3483 66.1998 19.9278 66.1845 19.5067L66.1885 2.51736Z" fill="#0E2E23"/>
<path d="M84.2493 2.51736C84.2643 2.09625 84.2054 1.67578 84.0753 1.2748C83.9512 0.955859 83.7411 0.677133 83.4682 0.469239V0.312149H96.1523L96.6278 5.03474H96.47C96.0714 3.89 95.2392 2.9455 94.1509 2.40258C93.0541 1.84674 91.5566 1.56882 89.6585 1.56882H88.0396V9.75333H90.729C91.7408 9.75333 92.5259 9.64859 93.0845 9.43914C93.3261 9.36552 93.5503 9.24385 93.7433 9.0815C93.9364 8.91915 94.0943 8.71951 94.2076 8.49464H94.3654V12.2707H94.2076C94.094 12.046 93.936 11.8465 93.743 11.6842C93.55 11.5219 93.326 11.4001 93.0845 11.3262C92.5259 11.1167 91.7408 11.012 90.729 11.012H88.0456V20.4552H89.9742C93.475 20.4552 95.7421 19.1958 96.7755 16.6771H96.9334L96.6177 21.7119H83.4642V21.5548C83.7379 21.3477 83.9482 21.0687 84.0713 20.7492C84.2017 20.3483 84.2606 19.9278 84.2453 19.5067L84.2493 2.51736Z" fill="#0E2E23"/>
<path d="M103.893 17.8492C103.869 18.6623 103.954 19.475 104.146 20.2659C104.266 20.7838 104.569 21.2417 104.999 21.5568V21.7139H101.521V21.5568C101.951 21.2411 102.253 20.7835 102.375 20.2659C102.566 19.475 102.651 18.6623 102.628 17.8492V4.1869C102.651 3.37377 102.566 2.56118 102.375 1.77022C102.253 1.25284 101.95 0.795363 101.521 0.479301V0.322235H105.819L115.909 16.5664V4.19497C115.932 3.38183 115.847 2.56924 115.656 1.77828C115.534 1.2609 115.231 0.803426 114.802 0.487364V0.330274H118.28V0.487364C117.851 0.802812 117.548 1.26055 117.427 1.77828C117.236 2.56924 117.151 3.38183 117.174 4.19497V21.728H114.644L103.889 4.38224L103.893 17.8492Z" fill="#0E2E23"/>
<path d="M0.793261 28.6256C0.808259 28.2045 0.74937 27.784 0.619233 27.383C0.492313 27.0629 0.278657 26.784 0.00202559 26.5775V26.4204H5.37878V26.5775C5.10572 26.7852 4.89563 27.064 4.77169 27.383C4.64044 27.7838 4.58153 28.2044 4.59766 28.6256V35.8756H11.5569V28.6256C11.5719 28.2045 11.513 27.784 11.3829 27.383C11.258 27.0645 11.0481 26.7859 10.7758 26.5775V26.4204H16.1323V26.5775C15.8594 26.7854 15.6493 27.0641 15.5252 27.383C15.3951 27.784 15.3362 28.2045 15.3512 28.6256V45.625C15.3359 46.0467 15.3948 46.4679 15.5252 46.8696C15.6486 47.1889 15.8588 47.4678 16.1323 47.6751V47.8342H10.7555V47.6751C11.0284 47.4672 11.2385 47.1885 11.3626 46.8696C11.493 46.4679 11.5519 46.0467 11.5367 45.625V37.1263H4.58755V45.625C4.57126 46.0468 4.63018 46.4682 4.76157 46.8696C4.88467 47.1891 5.09492 47.468 5.36866 47.6751V47.8342H0V47.6751C0.277239 47.4692 0.491039 47.1901 0.617207 46.8696C0.747578 46.4679 0.80647 46.0467 0.791236 45.625L0.793261 28.6256Z" fill="#0E2E23"/>
<path d="M20.56 37.1263C20.5449 35.6281 20.8247 34.1413 21.3836 32.7501C21.9024 31.4506 22.6701 30.2639 23.644 29.256C24.6094 28.2651 25.7657 27.4781 27.0436 26.942C29.7813 25.8302 32.8477 25.8302 35.5853 26.942C36.8633 27.4781 38.0195 28.2651 38.985 29.256C39.9588 30.2643 40.7271 31.4509 41.2474 32.7501C42.3429 35.5657 42.3429 38.6869 41.2474 41.5025C40.7271 42.8017 39.9588 43.9882 38.985 44.9966C38.0195 45.9874 36.8633 46.7744 35.5853 47.3106C32.8477 48.4224 29.7813 48.4224 27.0436 47.3106C25.7657 46.7744 24.6094 45.9874 23.644 44.9966C22.6701 43.9887 21.9024 42.802 21.3836 41.5025C20.8247 40.1112 20.5449 38.6246 20.56 37.1263ZM24.4514 35.2695C24.444 36.7505 24.6568 38.2246 25.0828 39.6437C25.4647 40.9455 26.0522 42.1786 26.8231 43.2969C27.5094 44.2963 28.3919 45.1471 29.4173 45.7982C30.3805 46.4098 31.5005 46.7321 32.643 46.7266C33.4296 46.7355 34.2065 46.5523 34.9054 46.1929C35.6016 45.8268 36.2024 45.3041 36.6599 44.6663C37.1813 43.9281 37.562 43.1007 37.783 42.2255C38.0622 41.1674 38.1983 40.077 38.1877 38.9831C38.1942 37.5013 37.9808 36.0267 37.5543 34.6069C37.1728 33.3056 36.5853 32.073 35.814 30.9557C35.1273 29.9568 34.2457 29.1054 33.2217 28.4524C32.2545 27.8398 31.1304 27.5175 29.984 27.524C29.1978 27.5157 28.4216 27.6997 27.7236 28.0597C27.027 28.426 26.4256 28.9486 25.9671 29.5862C25.4453 30.3243 25.0645 31.1517 24.844 32.0271C24.5658 33.0854 24.4297 34.1756 24.4392 35.2695" fill="#0E2E23"/>
<path d="M47.29 28.6256C47.3056 28.2043 47.246 27.7836 47.1139 27.383C46.9892 27.0644 46.7793 26.7858 46.5068 26.5775V26.4204H54.1298C56.7241 26.4204 58.6903 26.8715 60.0286 27.7737C61.3669 28.6759 62.0367 30.0091 62.0381 31.7733C62.0639 33.216 61.5314 34.6134 60.5507 35.6763C59.5592 36.7678 58.1676 37.5734 56.376 38.0929L61.4047 45.8062C62.1008 46.8132 62.7018 47.4321 63.2077 47.663V47.8201H61.5625C60.3605 47.8201 59.3588 47.6187 58.5575 47.2159C57.6939 46.7475 56.9727 46.0568 56.4691 45.2161L52.264 38.6991C52.1303 38.7217 51.9949 38.7325 51.8593 38.7314H51.0842V45.625C51.069 46.0467 51.1279 46.4679 51.2583 46.8696C51.3817 47.1889 51.5918 47.4678 51.8654 47.6751V47.8322H46.4987V47.6751C46.7718 47.4674 46.982 47.1886 47.1058 46.8696C47.238 46.4683 47.2976 46.0469 47.2819 45.625L47.29 28.6256ZM51.402 37.4727C53.574 37.4727 55.2239 37.0699 56.3517 36.2643C57.4795 35.4588 58.0435 34.2679 58.0435 32.6917C58.0532 31.9848 57.9189 31.2833 57.6489 30.6294C57.3946 30.0249 57.005 29.4863 56.5096 29.0546C55.9884 28.6109 55.3876 28.2692 54.7389 28.0476C54 27.7991 53.224 27.6772 52.4441 27.6871H51.0842V37.4767L51.402 37.4727Z" fill="#0E2E23"/>
<path d="M68.1029 28.6256C68.1179 28.2045 68.059 27.784 67.9288 27.383C67.804 27.0645 67.5941 26.7859 67.3218 26.5775V26.4204H72.6985V26.5775C72.4256 26.7854 72.2156 27.0641 72.0914 27.383C71.9613 27.784 71.9024 28.2045 71.9174 28.6256V45.625C71.9022 46.0467 71.9611 46.4679 72.0914 46.8696C72.2148 47.1889 72.425 47.4678 72.6985 47.6751V47.8342H67.3116V47.6751C67.5846 47.4672 67.7946 47.1885 67.9187 46.8696C68.0491 46.4679 68.108 46.0467 68.0928 45.625L68.1029 28.6256Z" fill="#0E2E23"/>
<path d="M88.3148 27.6831H84.5509C82.6527 27.6831 81.1552 27.961 80.0584 28.5169C78.9758 29.0573 78.1475 29.9965 77.7495 31.1349H77.5916L78.0652 26.4123H93.3435L82.3046 46.5513H86.702C90.2015 46.5513 92.4679 45.292 93.5013 42.7733H93.6592L93.3435 47.808H77.2739L88.3148 27.6831Z" fill="#0E2E23"/>
<path d="M97.2976 37.1263C97.2828 35.6283 97.5619 34.1417 98.1192 32.7501C98.6395 31.4509 99.4078 30.2643 100.382 29.256C101.347 28.2651 102.503 27.4781 103.781 26.942C106.519 25.8302 109.585 25.8302 112.323 26.942C113.601 27.4781 114.757 28.2651 115.723 29.256C116.696 30.2643 117.465 31.4509 117.985 32.7501C119.081 35.5657 119.081 38.6869 117.985 41.5025C117.465 42.8017 116.696 43.9882 115.723 44.9966C114.757 45.9874 113.601 46.7744 112.323 47.3106C109.585 48.4224 106.519 48.4224 103.781 47.3106C102.503 46.7744 101.347 45.9874 100.382 44.9966C99.4115 43.9874 98.6466 42.8009 98.1293 41.5025C97.5722 40.1108 97.2931 38.6243 97.3077 37.1263M101.199 35.2695C101.192 36.7505 101.405 38.2246 101.831 39.6437C102.213 40.9455 102.8 42.1786 103.571 43.2969C104.257 44.2963 105.14 45.1471 106.165 45.7982C107.128 46.41 108.248 46.7323 109.391 46.7266C110.177 46.7353 110.954 46.5521 111.653 46.1929C112.349 45.826 112.949 45.3034 113.408 44.6663C113.929 43.9281 114.31 43.1007 114.531 42.2255C114.809 41.1672 114.945 40.077 114.935 38.9831C114.942 37.5013 114.729 36.0267 114.302 34.6069C113.92 33.3059 113.332 32.0735 112.562 30.9557C111.875 29.9562 110.993 29.1048 109.967 28.4524C109.004 27.8418 107.884 27.5195 106.742 27.524C105.955 27.516 105.178 27.6999 104.479 28.0597C103.783 28.4257 103.182 28.9484 102.725 29.5862C102.203 30.3243 101.822 31.1517 101.602 32.0271C101.324 33.0854 101.188 34.1756 101.197 35.2695" fill="#0E2E23"/>
<path d="M125.608 43.9574C125.584 44.7706 125.669 45.5834 125.861 46.3741C125.982 46.8921 126.285 47.35 126.715 47.665V47.8241H123.234V47.665C123.665 47.35 123.968 46.8921 124.088 46.3741C124.28 45.5834 124.366 44.7706 124.341 43.9574V30.2951C124.365 29.482 124.28 28.6693 124.088 27.8784C123.966 27.361 123.664 26.9035 123.234 26.5875V26.4305H127.537L137.628 42.6746V30.2951C137.652 29.4819 137.566 28.6691 137.373 27.8784C137.251 27.3615 136.95 26.9042 136.521 26.5875V26.4305H140V26.5875C139.571 26.9035 139.268 27.361 139.146 27.8784C138.954 28.6693 138.869 29.482 138.893 30.2951V47.8302H136.362L125.608 30.4844V43.9574Z" fill="#0E2E23"/>
</g>
<defs>
<clipPath id="clip0_489_584">
<rect width="140" height="62" fill="white"/>
</clipPath>
</defs>
</svg>
