<svg width="150" height="67" viewBox="0 0 150 67" fill="none" xmlns="http://www.w3.org/2000/svg">
<g clip-path="url(#clip0_489_395)">
<path d="M36.0739 65.7799C35.5246 66.3783 34.7441 66.6768 33.7323 66.6753H31.2801V59.9692H33.8363C34.8482 59.9692 35.6099 60.2525 36.1216 60.8191C36.6333 61.3857 36.8913 62.206 36.8956 63.28C36.8956 64.3482 36.6217 65.1815 36.0739 65.7799ZM35.2457 61.4306C34.9009 61.0858 34.3459 60.9124 33.5848 60.9124H32.4227V65.7322H33.522C34.283 65.7322 34.8489 65.5436 35.2196 65.162C35.5904 64.7804 35.7747 64.1516 35.7747 63.2713C35.7747 62.3911 35.5926 61.7775 35.2457 61.4306Z" fill="white"/>
<path d="M39.0941 66.6775V59.9714H43.7579V60.9124H40.2368V62.79H43.4326V63.7223H40.2368V65.7343H43.7579V66.6775H39.0941Z" fill="white"/>
<path d="M49.1327 66.6775H47.7191L45.1303 59.9714H46.3553L48.4411 65.8276L50.5464 59.9714H51.7844L49.1327 66.6775Z" fill="white"/>
<path d="M53.4907 66.6775V59.9714H58.1523V60.9124H54.6334V62.79H57.8292V63.7223H54.6334V65.7343H58.1523V66.6775H53.4907Z" fill="white"/>
<path d="M60.3009 66.6775V59.9714H61.4522V65.7343H63.9998V66.6775H60.3009Z" fill="white"/>
<path d="M71.4952 64.6372C71.4015 65.0247 71.2384 65.392 71.0138 65.7213C70.7676 66.0709 70.4226 66.3389 70.023 66.491C68.999 66.8495 67.8836 66.8495 66.8596 66.491C66.4611 66.3359 66.1167 66.0676 65.8688 65.7192C65.644 65.3939 65.4809 65.0301 65.3874 64.6459C65.2874 64.2131 65.2401 63.7697 65.2465 63.3255C65.2403 62.8811 65.289 62.4376 65.3918 62.0051C65.489 61.6225 65.6543 61.2604 65.8796 60.9362C66.1267 60.5926 66.4688 60.3288 66.864 60.1773C67.8864 59.8185 69.0005 59.8185 70.023 60.1773C70.4222 60.3279 70.7673 60.5944 71.0138 60.9427C71.2398 61.2713 71.403 61.6388 71.4952 62.0268C71.5964 62.4632 71.6444 62.9102 71.6383 63.3581C71.6437 63.7959 71.5957 64.2328 71.4952 64.659M70.3916 62.3694C70.3376 62.0959 70.2364 61.834 70.0924 61.5953C69.9451 61.3535 69.725 61.1645 69.4636 61.0555C69.1396 60.9241 68.7919 60.8614 68.4424 60.8711C68.0943 60.8611 67.7479 60.9239 67.4255 61.0555C67.1658 61.1652 66.9472 61.3542 66.8011 61.5953C66.6576 61.8324 66.557 62.093 66.5041 62.365C66.4437 62.6845 66.4153 63.0091 66.4195 63.3342C66.4195 64.1176 66.564 64.7269 66.8531 65.162C67.1437 65.5956 67.6727 65.8124 68.4424 65.8124C69.2121 65.8124 69.7433 65.5956 70.0403 65.162C70.3374 64.7283 70.474 64.1234 70.474 63.3494C70.4777 63.0187 70.4501 62.6884 70.3916 62.3628" fill="white"/>
<path d="M79.049 62.6989C79.0259 62.8624 78.9911 63.0239 78.945 63.1824C78.8968 63.36 78.8068 63.5236 78.6826 63.6594C78.544 63.8058 78.3874 63.934 78.2165 64.041C77.9828 64.1796 77.7255 64.2737 77.4576 64.3185C77.0965 64.3848 76.7298 64.416 76.3627 64.4118H75.0011V66.6753H73.8498V59.9692H76.2695C76.6986 59.9625 77.1267 60.0135 77.5422 60.121C77.8371 60.1921 78.1164 60.3171 78.3661 60.4896C78.5544 60.6326 78.7078 60.8164 78.8149 61.0273C78.918 61.2104 78.9911 61.4087 79.0317 61.6148C79.0612 61.8129 79.075 62.013 79.0729 62.2133C79.0743 62.3755 79.0656 62.5377 79.0469 62.6989M77.837 61.7666C77.7935 61.6207 77.7261 61.4829 77.6376 61.359C77.5171 61.1994 77.3482 61.0831 77.1562 61.0273C76.8846 60.944 76.6012 60.9052 76.3172 60.9124H75.0163V63.4903H76.3584C76.6367 63.4972 76.9143 63.4584 77.1801 63.3754C77.3681 63.3209 77.5347 63.2095 77.6571 63.0567C77.7466 62.9371 77.8128 62.8018 77.8522 62.6577C77.8836 62.5154 77.8988 62.3699 77.8977 62.2241C77.8999 62.0736 77.8824 61.9234 77.8457 61.7775" fill="white"/>
<path d="M88.0448 66.6753V61.3633L85.792 66.6753H84.6386L82.3859 61.3633V66.6753H81.2432V59.9692H82.9517L84.9031 64.5375L85.2175 65.4048C85.2266 65.3448 85.2442 65.2865 85.2695 65.2313L85.4104 64.8432C85.4646 64.7001 85.5037 64.5961 85.5319 64.5332L87.4832 59.9649H89.2004V66.671L88.0448 66.6753Z" fill="white"/>
<path d="M91.6157 66.6775V59.9714H96.2794V60.9124H92.7583V62.79H95.9542V63.7223H92.7583V65.7343H96.2794V66.6775H91.6157Z" fill="white"/>
<path d="M103.087 66.6775L99.5772 61.437V66.6775H98.4259V59.9714H99.9024L103.361 65.1685V59.9714H104.514V66.6775H103.087Z" fill="white"/>
<path d="M109.416 60.9124V66.6775H108.295V60.9124H106.368V59.9714H111.344V60.9124H109.416Z" fill="white"/>
<path d="M118.581 65.446C118.471 65.7196 118.299 65.9637 118.078 66.159C117.857 66.3544 117.593 66.4955 117.308 66.5713C116.887 66.6977 116.448 66.7577 116.008 66.7491C114.954 66.7491 114.191 66.5323 113.718 66.0986C113.245 65.665 113.003 65.0543 112.992 64.2665H114.143C114.178 65.2509 114.789 65.743 115.977 65.743C117.053 65.743 117.59 65.4149 117.59 64.7587C117.592 64.6404 117.562 64.5237 117.505 64.42C117.448 64.3163 117.366 64.2291 117.265 64.1668C117.021 64.0048 116.744 63.8975 116.454 63.8524C116.129 63.7917 115.778 63.7194 115.4 63.6356C115.023 63.5517 114.67 63.4607 114.342 63.3624C114.026 63.2719 113.741 63.0938 113.521 62.8485C113.298 62.598 113.176 62.2732 113.18 61.9379C113.167 61.6541 113.219 61.3711 113.331 61.1103C113.444 60.8496 113.615 60.618 113.831 60.4332C114.264 60.0675 114.942 59.8839 115.864 59.8825C116.787 59.881 117.48 60.0877 117.944 60.5026C118.395 60.9145 118.622 61.4934 118.631 62.2371H117.488C117.491 62.0412 117.455 61.8468 117.38 61.6656C117.306 61.4844 117.195 61.3204 117.055 61.1834C116.795 60.9666 116.383 60.843 115.823 60.843C114.826 60.843 114.325 61.1682 114.325 61.8186C114.326 61.93 114.357 62.0391 114.414 62.1348C114.471 62.2304 114.553 62.3091 114.65 62.3629C114.901 62.5137 115.178 62.6133 115.468 62.6556C115.797 62.712 116.148 62.7835 116.526 62.8724C116.903 62.9613 117.256 63.0589 117.584 63.1716C117.903 63.2772 118.186 63.4693 118.401 63.7266C118.624 64.0018 118.74 64.3485 118.726 64.7023C118.728 64.9516 118.681 65.1989 118.59 65.4308" fill="white"/>
<path d="M40.3799 6.43944H40.2107C39.8942 4.835 39.1997 3.5919 38.1271 2.71018C37.0546 1.82846 35.727 1.38833 34.1442 1.38978C33.2383 1.38158 32.3398 1.55405 31.5012 1.89712C30.678 2.24337 29.9511 2.78428 29.3829 3.47338C28.738 4.27399 28.2596 5.19545 27.9758 6.18358C27.6138 7.45651 27.4428 8.77615 27.4685 10.0993C27.4554 11.6277 27.6546 13.1506 28.0604 14.6243C28.411 15.9165 28.9848 17.1374 29.7559 18.2321C30.4419 19.2046 31.3292 20.0181 32.3577 20.6171C33.3732 21.1974 34.5249 21.4967 35.6945 21.4843C36.3957 21.4909 37.0936 21.3878 37.7629 21.1786V14.5354C37.779 14.082 37.7159 13.6293 37.5764 13.1976C37.4427 12.8546 37.2177 12.5548 36.926 12.3303V12.1612H42.6955V12.3303C42.3997 12.5533 42.171 12.8534 42.0342 13.1976C41.8955 13.6294 41.8331 14.0821 41.8499 14.5354V23.7219H41.6786C41.0238 22.71 40.2447 22.2041 39.3413 22.2041C38.9178 22.2079 38.4984 22.288 38.1033 22.4405C37.6848 22.6009 37.236 22.7744 36.7655 22.9673C36.2505 23.1721 35.7242 23.3472 35.1893 23.492C34.5423 23.6594 33.8758 23.7396 33.2076 23.7305C31.8721 23.7348 30.5542 23.4266 29.3591 22.8307C28.1467 22.2292 27.0736 21.3806 26.2088 20.3395C25.2848 19.2249 24.5621 17.9578 24.0731 16.5951C23.5341 15.1126 23.2646 13.5457 23.2774 11.9683C23.2608 10.3299 23.5551 8.70318 24.1447 7.17445C24.6891 5.76801 25.5071 4.48351 26.5513 3.39533C27.5858 2.32862 28.8246 1.48134 30.1938 0.904113C31.6343 0.297073 33.1839 -0.00841729 34.747 0.00649047C35.8066 0.0109974 36.863 0.124349 37.8995 0.344737C38.9135 0.546298 39.8943 0.888551 40.8135 1.36159L40.3799 6.43944Z" fill="white"/>
<path d="M48.6167 2.71019C48.6328 2.25682 48.5697 1.80414 48.4303 1.37245C48.2935 1.02822 48.0647 0.728202 47.769 0.505186V0.336063H55.9364C58.716 0.336063 60.8227 0.821725 62.2566 1.79306C63.6905 2.7644 64.4082 4.19899 64.4096 6.09686C64.4378 7.65083 63.8672 9.15611 62.816 10.3009C61.7536 11.4761 60.2626 12.3433 58.3431 12.9027L63.731 21.2068C64.4768 22.2909 65.1208 22.9572 65.6628 23.2058V23.375H63.9001C62.6122 23.375 61.539 23.1545 60.6804 22.7137C59.7549 22.2114 58.9826 21.4682 58.445 20.5629L53.9374 13.5467C53.7941 13.571 53.649 13.5826 53.5037 13.5814H52.6733V21.016C52.657 21.4694 52.7201 21.9221 52.8598 22.3538C52.9955 22.6986 53.2245 22.9989 53.5211 23.221V23.3901H47.769V23.221C48.0656 22.9989 48.2946 22.6986 48.4303 22.3538C48.57 21.9221 48.6331 21.4694 48.6167 21.016V2.71019ZM53.0224 12.2349C55.3496 12.2349 57.1174 11.8013 58.3258 10.934C59.5341 10.0668 60.1383 8.78467 60.1383 7.08773C60.1453 6.32596 59.9978 5.57069 59.7047 4.86753C59.4323 4.21672 59.0148 3.63677 58.484 3.17201C57.9256 2.69436 57.2819 2.32655 56.5869 2.08793C55.7963 1.81877 54.9655 1.6868 54.1303 1.69768H52.6712V12.2393L53.0224 12.2349Z" fill="white"/>
<path d="M70.9163 2.71019C70.9323 2.25682 70.8692 1.80414 70.7298 1.37245C70.596 1.02951 70.3711 0.729634 70.0794 0.505186V0.336063H83.6694L84.1789 5.42039H84.0076C83.582 4.18714 82.69 3.16982 81.5229 2.58662C80.3478 1.9882 78.7441 1.68899 76.7118 1.68899H74.9772V10.5004H77.8631C78.9471 10.5004 79.7891 10.3877 80.389 10.1622C80.6479 10.0829 80.8881 9.95191 81.0949 9.77713C81.3018 9.60234 81.471 9.3874 81.5923 9.14531H81.7614V13.2106H81.5923C81.4707 12.9687 81.3013 12.754 81.0945 12.5792C80.8878 12.4045 80.6477 12.2734 80.389 12.1938C79.7906 11.9683 78.9486 11.8555 77.8631 11.8555H74.9837V22.022H77.05C80.8009 22.022 83.23 20.6662 84.3372 17.9546H84.5063L84.1681 23.375H70.075V23.2058C70.3677 22.9823 70.5928 22.6821 70.7255 22.3386C70.8652 21.9069 70.9283 21.4542 70.9119 21.0008L70.9163 2.71019Z" fill="white"/>
<path d="M90.2671 2.71019C90.2832 2.25682 90.2201 1.80414 90.0806 1.37245C89.9477 1.02908 89.7226 0.729004 89.4302 0.505186V0.336063H103.02L103.53 5.42039H103.361C102.934 4.18796 102.042 3.17112 100.876 2.58662C99.7008 1.9882 98.0964 1.68899 96.0626 1.68899H94.3281V10.5004H97.2096C98.2937 10.5004 99.1349 10.3877 99.7333 10.1622C99.9923 10.0829 100.232 9.95191 100.439 9.77713C100.646 9.60234 100.815 9.3874 100.937 9.14531H101.106V13.2106H100.937C100.815 12.9687 100.646 12.754 100.439 12.5792C100.232 12.4045 99.9921 12.2734 99.7333 12.1938C99.1349 11.9683 98.2937 11.8555 97.2096 11.8555H94.3346V22.022H96.4008C100.152 22.022 102.581 20.6662 103.688 17.9546H103.857L103.519 23.375H89.4259V23.2058C89.7192 22.9829 89.9444 22.6826 90.0763 22.3386C90.2161 21.9069 90.2792 21.4542 90.2628 21.0008L90.2671 2.71019Z" fill="white"/>
<path d="M111.313 19.2164C111.289 20.0918 111.38 20.9667 111.584 21.8182C111.714 22.3758 112.038 22.8688 112.499 23.208V23.3771H108.772V23.208C109.233 22.8681 109.557 22.3754 109.687 21.8182C109.892 20.9667 109.983 20.0918 109.958 19.2164V4.50761C109.983 3.63219 109.892 2.75736 109.687 1.90581C109.557 1.3488 109.232 0.856284 108.772 0.516013V0.346916H113.378L124.188 17.8353V4.51629C124.213 3.64087 124.122 2.76604 123.917 1.91449C123.786 1.35748 123.462 0.864966 123.002 0.524694V0.355571H126.729V0.524694C126.268 0.864304 125.944 1.3571 125.814 1.91449C125.61 2.76604 125.518 3.64087 125.543 4.51629V23.3923H122.833L111.309 4.71791L111.313 19.2164Z" fill="white"/>
<path d="M0.849923 30.8183C0.865992 30.3649 0.802896 29.9122 0.663464 29.4805C0.527478 29.1358 0.298561 28.8356 0.00217028 28.6132V28.4441H5.76297V28.6132C5.47041 28.8369 5.24532 29.137 5.11252 29.4805C4.9719 29.9119 4.90878 30.3648 4.92607 30.8183V38.6236H12.3824V30.8183C12.3984 30.3649 12.3354 29.9122 12.1959 29.4805C12.0621 29.1376 11.8372 28.8377 11.5455 28.6132V28.4441H17.2846V28.6132C16.9922 28.8371 16.7671 29.1371 16.6341 29.4805C16.4947 29.9122 16.4316 30.3649 16.4477 30.8183V49.1197C16.4314 49.5738 16.4945 50.0273 16.6341 50.4597C16.7663 50.8035 16.9915 51.1037 17.2846 51.3269V51.4982H11.5238V51.3269C11.8162 51.1031 12.0412 50.803 12.1742 50.4597C12.3139 50.0273 12.377 49.5738 12.3607 49.1197V39.9701H4.91523V49.1197C4.89778 49.5739 4.9609 50.0275 5.10169 50.4597C5.23358 50.8036 5.45884 51.104 5.75214 51.3269V51.4982H0V51.3269C0.297042 51.1052 0.526113 50.8048 0.661294 50.4597C0.800976 50.0273 0.864075 49.5738 0.847752 49.1197L0.849923 30.8183Z" fill="white"/>
<path d="M22.0285 39.9701C22.0124 38.3571 22.3122 36.7565 22.911 35.2586C23.4669 33.8597 24.2894 32.582 25.3328 31.4969C26.3673 30.4302 27.6061 29.5829 28.9753 29.0057C31.9085 27.8087 35.1939 27.8087 38.1271 29.0057C39.4964 29.5829 40.7352 30.4302 41.7696 31.4969C42.813 32.5825 43.6362 33.86 44.1936 35.2586C45.3674 38.2899 45.3674 41.6502 44.1936 44.6815C43.6362 46.0802 42.813 47.3576 41.7696 48.4433C40.7352 49.51 39.4964 50.3572 38.1271 50.9345C35.1939 52.1314 31.9085 52.1314 28.9753 50.9345C27.6061 50.3572 26.3673 49.51 25.3328 48.4433C24.2894 47.3581 23.4669 46.0805 22.911 44.6815C22.3122 43.1837 22.0124 41.5831 22.0285 39.9701ZM26.1979 37.971C26.19 39.5655 26.418 41.1525 26.8744 42.6803C27.2836 44.0818 27.913 45.4094 28.739 46.6133C29.4744 47.6893 30.4199 48.6053 31.5186 49.3062C32.5506 49.9646 33.7505 50.3116 34.9746 50.3057C35.8175 50.3154 36.6498 50.1181 37.3986 49.7311C38.1446 49.3371 38.7883 48.7743 39.2784 48.0877C39.8371 47.2928 40.245 46.4021 40.4818 45.4599C40.7809 44.3208 40.9268 43.1468 40.9154 41.9691C40.9224 40.3738 40.6937 38.7862 40.2368 37.2577C39.828 35.8567 39.1985 34.5298 38.3721 33.3268C37.6364 32.2514 36.6919 31.3348 35.5947 30.6318C34.5584 29.9723 33.354 29.6253 32.1257 29.6323C31.2833 29.6234 30.4517 29.8214 29.7038 30.209C28.9574 30.6033 28.3131 31.166 27.8219 31.8525C27.2628 32.6471 26.8548 33.5379 26.6185 34.4803C26.3205 35.6196 26.1747 36.7934 26.1849 37.971" fill="white"/>
<path d="M50.6678 30.8183C50.6845 30.3647 50.6207 29.9118 50.4792 29.4805C50.3456 29.1375 50.1206 28.8375 49.8287 28.6132V28.4441H57.9962C60.7758 28.4441 62.8825 28.9298 64.3164 29.9011C65.7502 30.8725 66.4679 32.3078 66.4694 34.2071C66.497 35.7603 65.9264 37.2647 64.8758 38.409C63.8134 39.5841 62.3224 40.4514 60.4028 41.0108L65.7907 49.3149C66.5366 50.3989 67.1805 51.0653 67.7226 51.3139V51.483H65.9598C64.672 51.483 63.5987 51.2662 62.7401 50.8326C61.8149 50.3283 61.0421 49.5847 60.5026 48.6796L55.9971 41.6634C55.8539 41.6877 55.7088 41.6994 55.5635 41.6981H54.7331V49.1197C54.7168 49.5738 54.7799 50.0273 54.9196 50.4597C55.0518 50.8035 55.277 51.1037 55.57 51.3269V51.496H49.82V51.3269C50.1127 51.1033 50.3378 50.8032 50.4705 50.4597C50.6121 50.0277 50.676 49.574 50.6591 49.1197L50.6678 30.8183ZM55.0735 40.343C57.4007 40.343 59.1684 39.9094 60.3768 39.0421C61.5852 38.1748 62.1894 36.8927 62.1894 35.1958C62.1998 34.4348 62.056 33.6795 61.7666 32.9756C61.4943 32.3248 61.0767 31.7448 60.5459 31.2801C59.9875 30.8024 59.3438 30.4346 58.6488 30.196C57.8571 29.9285 57.0257 29.7973 56.1901 29.8079H54.7331V40.3473L55.0735 40.343Z" fill="white"/>
<path d="M72.9673 30.8183C72.9834 30.3649 72.9203 29.9122 72.7809 29.4805C72.6471 29.1376 72.4222 28.8377 72.1304 28.6132V28.4441H77.8912V28.6132C77.5988 28.8371 77.3738 29.1371 77.2408 29.4805C77.1014 29.9122 77.0383 30.3649 77.0543 30.8183V49.1197C77.038 49.5738 77.1011 50.0273 77.2408 50.4597C77.373 50.8035 77.5982 51.1037 77.8912 51.3269V51.4982H72.1196V51.3269C72.412 51.1031 72.6371 50.803 72.77 50.4597C72.9097 50.0273 72.9728 49.5738 72.9565 49.1197L72.9673 30.8183Z" fill="white"/>
<path d="M94.623 29.8036H90.5902C88.5564 29.8036 86.952 30.1028 85.7769 30.7012C84.6169 31.2831 83.7294 32.2942 83.303 33.5198H83.1339L83.6412 28.4354H100.011L88.1835 50.1171H92.8949C96.6444 50.1171 99.0727 48.7612 100.18 46.0496H100.349L100.011 51.47H82.7935L94.623 29.8036Z" fill="white"/>
<path d="M104.247 39.9701C104.232 38.3573 104.531 36.7569 105.128 35.2586C105.685 33.86 106.508 32.5825 107.552 31.4969C108.586 30.4302 109.825 29.5829 111.194 29.0057C114.127 27.8087 117.413 27.8087 120.346 29.0057C121.715 29.5829 122.954 30.4302 123.989 31.4969C125.032 32.5825 125.855 33.86 126.413 35.2586C127.586 38.2899 127.586 41.6502 126.413 44.6815C125.855 46.0802 125.032 47.3576 123.989 48.4433C122.954 49.51 121.715 50.3572 120.346 50.9345C117.413 52.1314 114.127 52.1314 111.194 50.9345C109.825 50.3572 108.586 49.51 107.552 48.4433C106.512 47.3567 105.693 46.0793 105.139 44.6815C104.542 43.1832 104.243 41.5829 104.258 39.9701M108.428 37.971C108.42 39.5655 108.648 41.1525 109.104 42.6803C109.513 44.0818 110.143 45.4094 110.969 46.6133C111.704 47.6893 112.65 48.6053 113.748 49.3062C114.78 49.9649 115.98 50.3119 117.204 50.3057C118.047 50.3151 118.879 50.1178 119.628 49.7311C120.374 49.3361 121.017 48.7736 121.508 48.0877C122.067 47.2928 122.475 46.4021 122.712 45.4599C123.01 44.3205 123.155 43.1468 123.145 41.9691C123.152 40.3738 122.923 38.7862 122.467 37.2577C122.057 35.857 121.427 34.5302 120.602 33.3268C119.866 32.2508 118.921 31.3341 117.822 30.6318C116.79 29.9744 115.59 29.6274 114.366 29.6323C113.523 29.6236 112.691 29.8217 111.942 30.209C111.196 30.6031 110.553 31.1658 110.062 31.8525C109.503 32.6471 109.095 33.5379 108.859 34.4803C108.561 35.6196 108.415 36.7934 108.425 37.971" fill="white"/>
<path d="M134.58 47.3245C134.554 48.1999 134.645 49.075 134.851 49.9263C134.98 50.4839 135.305 50.9769 135.766 51.3161V51.4874H132.037V51.3161C132.498 50.9769 132.822 50.4839 132.952 49.9263C133.158 49.075 133.249 48.1999 133.223 47.3245V32.6157C133.248 31.7402 133.157 30.8653 132.952 30.0139C132.821 29.4568 132.497 28.9642 132.037 28.6241V28.455H136.646L147.459 45.9434V32.6157C147.484 31.7401 147.392 30.8651 147.186 30.0139C147.055 29.4573 146.732 28.965 146.273 28.6241V28.455H150V28.6241C149.54 28.9642 149.216 29.4568 149.085 30.0139C148.88 30.8653 148.788 31.7402 148.814 32.6157V51.4939H146.102L134.58 32.8195V47.3245Z" fill="white"/>
</g>
<defs>
<clipPath id="clip0_489_395">
<rect width="150" height="66.7491" fill="white"/>
</clipPath>
</defs>
</svg>
