<svg width="78" height="78" viewBox="0 0 78 78" fill="none" xmlns="http://www.w3.org/2000/svg">
<path fill-rule="evenodd" clip-rule="evenodd" d="M39 4.06245C33.059 4.06245 28.1483 4.5857 24.3685 5.2227L23.933 5.29745C20.6505 5.8467 17.9205 6.30495 15.7852 8.93095C14.4202 10.6177 13.975 12.441 13.8743 14.4722L12.2752 15.0052C10.7705 15.5057 9.44775 15.9477 8.4045 16.4352C7.2735 16.9617 6.23675 17.6377 5.44375 18.7394C4.65075 19.8412 4.3355 21.0372 4.1925 22.2754C4.0625 23.4227 4.0625 24.8105 4.0625 26.3997V26.8709C4.0625 28.1774 4.0625 29.3312 4.16 30.2964C4.264 31.3397 4.49475 32.357 5.07 33.3385C5.65175 34.3232 6.42525 35.0187 7.28975 35.6167C8.086 36.1692 9.0935 36.7314 10.2375 37.3652L18.8175 42.1329C20.5725 45.5812 22.9808 48.6557 26.2925 50.8755C29.1753 52.8125 32.6365 54.028 36.7348 54.3497C36.6245 54.6372 36.5662 54.942 36.5625 55.25V60.9375H31.915C30.6001 60.9375 29.3258 61.3931 28.309 62.2268C27.2922 63.0605 26.5957 64.2208 26.338 65.5102L25.6263 69.0625H19.5C18.8535 69.0625 18.2335 69.3193 17.7764 69.7764C17.3193 70.2335 17.0625 70.8535 17.0625 71.5C17.0625 72.1464 17.3193 72.7664 17.7764 73.2235C18.2335 73.6806 18.8535 73.9375 19.5 73.9375H58.5C59.1465 73.9375 59.7665 73.6806 60.2236 73.2235C60.6807 72.7664 60.9375 72.1464 60.9375 71.5C60.9375 70.8535 60.6807 70.2335 60.2236 69.7764C59.7665 69.3193 59.1465 69.0625 58.5 69.0625H52.3737L51.662 65.5102C51.4043 64.2208 50.7078 63.0605 49.691 62.2268C48.6742 61.3931 47.3999 60.9375 46.085 60.9375H41.4375V55.25C41.4338 54.942 41.3755 54.6372 41.2652 54.3497C45.3635 54.0247 48.8247 52.8125 51.7075 50.8787C55.0225 48.6557 57.4275 45.5812 59.1825 42.1329L67.7625 37.3652C68.9065 36.7314 69.914 36.1692 70.7103 35.6167C71.5715 35.0187 72.3482 34.3232 72.9268 33.3417C73.5052 32.3569 73.7393 31.3397 73.84 30.2964C73.9375 29.3312 73.9375 28.1774 73.9375 26.8709V26.3997C73.9375 24.8137 73.9375 23.4227 73.8075 22.2754C73.6645 21.0372 73.3525 19.8379 72.5563 18.7394C71.7633 17.6377 70.7265 16.9617 69.5988 16.432C68.549 15.9445 67.2295 15.5057 65.7247 15.0052L64.1258 14.4722C64.0283 12.4377 63.583 10.6177 62.2147 8.93095C60.0827 6.3017 57.3527 5.84345 54.0702 5.29745L53.6315 5.2227C48.7953 4.42803 43.901 4.03992 39 4.06245ZM47.4012 69.0625L46.8813 66.4657C46.8444 66.2816 46.745 66.1159 46.5999 65.9968C46.4547 65.8777 46.2728 65.8126 46.085 65.8125H31.915C31.7272 65.8126 31.5453 65.8777 31.4001 65.9968C31.255 66.1159 31.1556 66.2816 31.1187 66.4657L30.5987 69.0625H47.4012ZM13.936 19.591L13.9815 19.5747C14.2155 24.5147 14.7712 29.9747 16.1623 35.0772L12.6978 33.1564C11.4335 32.4512 10.6405 32.0092 10.0685 31.6127C9.542 31.2455 9.36975 31.0277 9.2755 30.8652C9.178 30.7027 9.074 30.4492 9.009 29.8122C8.94182 28.7975 8.91797 27.7804 8.9375 26.7637V26.5264C8.9375 24.7747 8.94075 23.6665 9.035 22.828C9.126 22.0545 9.269 21.7652 9.399 21.5897C9.52575 21.4109 9.75325 21.1834 10.4585 20.8552C11.2255 20.4977 12.2785 20.1467 13.936 19.591ZM64.0185 19.5714C63.7878 24.5114 63.2287 29.9714 61.841 35.0739L65.3022 33.1532C66.5665 32.448 67.3595 32.0059 67.9315 31.6094C68.458 31.2422 68.6302 31.0245 68.7245 30.862C68.822 30.6995 68.926 30.4459 68.991 29.809C69.0592 29.1134 69.0625 28.2067 69.0625 26.7605V26.5232C69.0625 24.7715 69.0592 23.6632 68.965 22.8247C68.874 22.0512 68.731 21.762 68.601 21.5865C68.4743 21.4077 68.2467 21.1802 67.5415 20.8519C66.7745 20.4944 65.7215 20.1402 64.064 19.5844L64.0185 19.5714ZM25.181 10.0295C29.7489 9.28168 34.3713 8.91642 39 8.93745C44.655 8.93745 49.2928 9.4347 52.819 10.0295C56.7418 10.6925 57.564 10.9395 58.4318 12.0055C59.2832 13.052 59.3645 14.0465 59.189 18.4502C58.8965 25.7887 57.928 33.7122 54.9315 39.7377C53.4495 42.7082 51.5125 45.1392 48.9937 46.8292C46.488 48.5095 43.2542 49.5625 39 49.5625C34.7458 49.5625 31.5152 48.5095 29.0095 46.8292C26.4875 45.1392 24.5505 42.7082 23.0718 39.7345C20.072 33.7122 19.1068 25.792 18.8142 18.447C18.6388 14.0465 18.7167 13.052 19.5715 12.0055C20.436 10.9395 21.2583 10.6925 25.181 10.0295Z" fill="#E3BF72"/>
</svg>
