<svg width="76" height="76" viewBox="0 0 76 76" fill="none" xmlns="http://www.w3.org/2000/svg">
<path fill-rule="evenodd" clip-rule="evenodd" d="M22.9578 20.9981V17.2931C22.9583 15.9663 23.4347 14.6837 24.3005 13.6785C25.1663 12.6732 26.3641 12.0119 27.6761 11.8147L31.5395 11.2352C35.8224 10.5951 40.1766 10.5951 44.4595 11.2352L48.3228 11.8147C49.6348 12.0119 50.8326 12.6732 51.6985 13.6785C52.5643 14.6837 53.0407 15.9663 53.0411 17.2931V20.9981L58.4688 21.4351C60.4882 21.5982 62.3946 22.4337 63.8831 23.8081C65.3717 25.1824 66.3564 27.0161 66.68 29.0161C68.1548 38.1126 68.1548 47.3872 66.68 56.4837C66.3564 58.4837 65.3717 60.3174 63.8831 61.6918C62.3946 63.0661 60.4882 63.9016 58.4688 64.0647L52.5408 64.5397C42.8624 65.322 33.1366 65.322 23.4581 64.5397L17.5301 64.0647C15.5108 63.9016 13.6044 63.0661 12.1158 61.6918C10.6273 60.3174 9.64251 58.4837 9.31898 56.4837C7.84419 47.3872 7.84419 38.1126 9.31898 29.0161C9.64315 27.0167 10.6282 25.1837 12.1167 23.81C13.6052 22.4363 15.5112 21.6012 17.5301 21.4382L22.9578 20.9981ZM32.2456 15.9314C36.0604 15.3616 39.9386 15.3616 43.7533 15.9314L47.6166 16.5109C47.8041 16.539 47.9752 16.6333 48.099 16.7769C48.2228 16.9204 48.291 17.1035 48.2911 17.2931V20.6656C41.4356 20.2741 34.5633 20.2741 27.7078 20.6656V17.2899C27.708 17.1004 27.7762 16.9172 27.8999 16.7737C28.0237 16.6302 28.1949 16.5358 28.3823 16.5077L32.2456 15.9314ZM23.8413 25.6911C33.2653 24.9311 42.7336 24.9311 52.1576 25.6911L58.0856 26.1724C59.0463 26.2493 59.9534 26.6461 60.6618 27.2994C61.3702 27.9527 61.8391 28.8248 61.9933 29.7761C62.1896 30.9942 62.3585 32.2165 62.5 33.4431C54.8775 37.1949 46.4952 39.146 37.9995 39.146C29.5037 39.146 21.1214 37.1949 13.499 33.4431C13.6383 32.2186 13.8072 30.9963 14.0056 29.7761C14.1599 28.8248 14.6287 27.9527 15.3372 27.2994C16.0456 26.6461 16.9527 26.2493 17.9133 26.1724L23.8413 25.6911ZM13.0746 38.4971C20.9023 42.0553 29.401 43.8964 37.9995 43.8964C46.5979 43.8964 55.0967 42.0553 62.9243 38.4971C63.2276 44.2561 62.9155 50.031 61.9933 55.7237C61.8397 56.6756 61.3712 57.5484 60.6627 58.2023C59.9542 58.8563 59.0467 59.2536 58.0856 59.3306L52.1576 59.8056C42.7336 60.5656 33.2653 60.5656 23.8413 59.8056L17.9133 59.3306C16.9522 59.2536 16.0448 58.8563 15.3363 58.2023C14.6278 57.5484 14.1592 56.6756 14.0056 55.7237C13.0841 50.0237 12.7706 44.2477 13.0746 38.4971Z" fill="#E3BF72"/>
</svg>
