<svg width="74" height="74" viewBox="0 0 74 74" fill="none" xmlns="http://www.w3.org/2000/svg">
<path d="M55.7813 38.7824C54.7657 47.2391 49.2269 50.6182 46.8347 53.0711C44.4389 55.5313 44.868 56.0211 45.0289 59.6291C45.0558 60.0755 44.991 60.5226 44.8384 60.943C44.6859 61.3634 44.4489 61.7481 44.142 62.0733C43.8351 62.3986 43.4649 62.6576 43.0541 62.8344C42.6434 63.0112 42.2007 63.102 41.7536 63.1011H32.2492C31.8023 63.1004 31.3603 63.0086 30.95 62.8313C30.5398 62.654 30.17 62.3951 29.8631 62.0702C29.5563 61.7453 29.3189 61.3612 29.1654 60.9415C29.0118 60.5219 28.9454 60.0753 28.9702 59.6291C28.9702 56.0891 29.2992 55.2667 27.168 53.0711C24.4505 50.3536 18.057 46.5168 18.057 35.9647C18.0407 33.3437 18.5675 30.7477 19.6043 28.3404C20.6411 25.933 22.1653 23.7666 24.0809 21.9776C25.9965 20.1886 28.262 18.8158 30.7344 17.9458C33.2069 17.0758 35.8328 16.7275 38.4466 16.9227C41.0604 17.1179 43.6055 17.8525 45.9213 19.0802C48.2371 20.3078 50.2735 22.0019 51.9021 24.0556C53.5306 26.1093 54.7161 28.4782 55.3838 31.0128C56.0514 33.5474 56.1868 36.1929 55.7813 38.7824Z" stroke="#E3BF72" stroke-width="3.5" stroke-linecap="round" stroke-linejoin="round"/>
<path d="M31.4937 62.9045V68.3111C31.4937 69.7879 32.3161 71.0001 33.328 71.0001H40.6691C41.6882 71.0001 42.507 69.7843 42.507 68.3111V62.9045M34.2112 25.2161C32.0999 25.217 30.0753 26.0564 28.5827 27.5497C27.0901 29.043 26.2516 31.0679 26.2516 33.1793M63.2178 36.6871H69.7757M56.6169 15.1896L61.269 10.5376M60.1927 54.9092L64.8448 59.5576M37.0003 2.62085V7.9237M12.8282 10.534L17.4481 15.1896M9.25245 59.5576L13.8723 54.9092M10.7829 36.6871H4.22852" stroke="#E3BF72" stroke-width="3.5" stroke-linecap="round" stroke-linejoin="round"/>
</svg>
