<svg width="79" height="78" viewBox="0 0 79 78" fill="none" xmlns="http://www.w3.org/2000/svg">
<path d="M57.0497 7.80029C56.5326 7.80029 56.0366 8.00574 55.6709 8.37144C55.3052 8.73713 55.0997 9.23312 55.0997 9.75029C55.0997 10.2675 55.3052 10.7635 55.6709 11.1292C56.0366 11.4948 56.5326 11.7003 57.0497 11.7003H64.0424L45.3497 30.393L35.0303 20.0697C34.8492 19.8881 34.634 19.744 34.3971 19.6457C34.1602 19.5474 33.9062 19.4968 33.6497 19.4968C33.3932 19.4968 33.1393 19.5474 32.9024 19.6457C32.6655 19.744 32.4503 19.8881 32.2691 20.0697L12.7691 39.5697C12.403 39.9359 12.1973 40.4325 12.1973 40.9503C12.1973 41.4681 12.403 41.9647 12.7691 42.3309C13.1353 42.6971 13.6319 42.9028 14.1497 42.9028C14.6676 42.9028 15.1642 42.6971 15.5303 42.3309L33.6497 24.2076L43.9691 34.5309C44.1503 34.7125 44.3655 34.8566 44.6024 34.9549C44.8393 35.0532 45.0932 35.1038 45.3497 35.1038C45.6062 35.1038 45.8602 35.0532 46.0971 34.9549C46.334 34.8566 46.5492 34.7125 46.7303 34.5309L66.7997 14.4576V21.4503C66.7997 21.9675 67.0052 22.4635 67.3709 22.8292C67.7366 23.1948 68.2326 23.4003 68.7497 23.4003C69.2669 23.4003 69.7629 23.1948 70.1286 22.8292C70.4943 22.4635 70.6997 21.9675 70.6997 21.4503V9.75029C70.6997 9.23312 70.4943 8.73713 70.1286 8.37144C69.7629 8.00574 69.2669 7.80029 68.7497 7.80029H57.0497ZM60.9497 35.1003C60.4326 35.1003 59.9366 35.3057 59.5709 35.6714C59.2052 36.0371 58.9997 36.5331 58.9997 37.0503V68.2503C58.9997 68.7675 59.2052 69.2635 59.5709 69.6292C59.9366 69.9949 60.4326 70.2003 60.9497 70.2003C61.4669 70.2003 61.9629 69.9949 62.3286 69.6292C62.6943 69.2635 62.8997 68.7675 62.8997 68.2503V37.0503C62.8997 36.5331 62.6943 36.0371 62.3286 35.6714C61.9629 35.3057 61.4669 35.1003 60.9497 35.1003ZM29.7497 42.9003C29.2326 42.9003 28.7366 43.1057 28.3709 43.4714C28.0052 43.8371 27.7997 44.3331 27.7997 44.8503V68.2503C27.7997 68.7675 28.0052 69.2635 28.3709 69.6292C28.7366 69.9949 29.2326 70.2003 29.7497 70.2003C30.2669 70.2003 30.7629 69.9949 31.1286 69.6292C31.4943 69.2635 31.6997 68.7675 31.6997 68.2503V44.8503C31.6997 44.3331 31.4943 43.8371 31.1286 43.4714C30.7629 43.1057 30.2669 42.9003 29.7497 42.9003ZM43.3997 52.6503C43.3997 52.1331 43.6052 51.6371 43.9709 51.2714C44.3366 50.9057 44.8326 50.7003 45.3497 50.7003C45.8669 50.7003 46.3629 50.9057 46.7286 51.2714C47.0943 51.6371 47.2997 52.1331 47.2997 52.6503V68.2503C47.2997 68.7675 47.0943 69.2635 46.7286 69.6292C46.3629 69.9949 45.8669 70.2003 45.3497 70.2003C44.8326 70.2003 44.3366 69.9949 43.9709 69.6292C43.6052 69.2635 43.3997 68.7675 43.3997 68.2503V52.6503ZM12.1997 56.5503C12.1997 56.0331 12.4052 55.5371 12.7709 55.1714C13.1366 54.8057 13.6326 54.6003 14.1497 54.6003C14.6669 54.6003 15.1629 54.8057 15.5286 55.1714C15.8943 55.5371 16.0997 56.0331 16.0997 56.5503V68.2503C16.0997 68.7675 15.8943 69.2635 15.5286 69.6292C15.1629 69.9949 14.6669 70.2003 14.1497 70.2003C13.6326 70.2003 13.1366 69.9949 12.7709 69.6292C12.4052 69.2635 12.1997 68.7675 12.1997 68.2503V56.5503Z" fill="#E3BF72"/>
</svg>
