<svg width="78" height="77" viewBox="0 0 78 77" fill="none" xmlns="http://www.w3.org/2000/svg">
<path d="M55.1671 69C54.7396 68.9993 54.3191 68.8912 53.9443 68.6856L37 59.777L20.0557 68.6856C19.6251 68.9167 19.1385 69.0229 18.6508 68.992C18.163 68.9611 17.6937 68.7945 17.2957 68.5109C16.8983 68.2196 16.5898 67.8236 16.4047 67.367C16.2196 66.9104 16.1652 66.4114 16.2476 65.9257L19.5316 47.0604L5.76656 33.7149C5.42157 33.3696 5.1799 32.9348 5.06879 32.4595C4.95768 31.9842 4.98154 31.4873 5.13769 31.0248C5.28396 30.5607 5.55829 30.1472 5.92911 29.832C6.29994 29.5168 6.75221 29.3127 7.2339 29.2431L26.1696 26.4832L34.6592 9.32974C34.9009 8.92439 35.2436 8.58874 35.6539 8.35564C36.0643 8.12255 36.5281 8 37 8C37.4719 8 37.9357 8.12255 38.3461 8.35564C38.7564 8.58874 39.0991 8.92439 39.3408 9.32974L47.8304 26.4832L66.7661 29.2431C67.2478 29.3127 67.7001 29.5168 68.0709 29.832C68.4417 30.1472 68.716 30.5607 68.8623 31.0248C69.0185 31.4873 69.0423 31.9842 68.9312 32.4595C68.8201 32.9348 68.5784 33.3696 68.2334 33.7149L54.4684 47.0604L57.7175 65.9257C57.7998 66.4114 57.7454 66.9104 57.5603 67.367C57.3752 67.8236 57.0667 68.2196 56.6694 68.5109C56.2261 68.815 55.7045 68.9848 55.1671 69ZM37 54.2222C37.4228 54.2272 37.8397 54.3225 38.2228 54.5017L51.6734 61.4888L49.123 46.5014C49.0539 46.081 49.0842 45.6503 49.2116 45.2438C49.339 44.8373 49.56 44.4663 49.8567 44.1607L60.757 33.68L45.6992 31.4441C45.2828 31.3778 44.8882 31.2133 44.548 30.9643C44.2077 30.7152 43.9317 30.3887 43.7428 30.0117L37 16.3868L30.2572 30.0466C30.0683 30.4236 29.7923 30.7501 29.452 30.9992C29.1118 31.2483 28.7172 31.4128 28.3008 31.479L13.243 33.68L24.1433 44.1607C24.44 44.4663 24.661 44.8373 24.7884 45.2438C24.9158 45.6503 24.9461 46.081 24.8769 46.5014L22.3266 61.5936L35.7772 54.6065C36.152 54.3909 36.5693 54.2597 37 54.2222Z" fill="#E3BF72"/>
<path d="M46 9L52.2104 22.1538M72 39.6923L60.9362 49.5577L63.7021 66" stroke="#E3BF72" stroke-width="4" stroke-linecap="round"/>
</svg>
